SplineFontDB: 3.0
FontName: AbismosBase
FullName: Abismos Base
FamilyName: Abismos
Weight: Book
Copyright: Copyright (c) 2017, Franz Vanderlinde,,,
Version: 001.000
ItalicAngle: 0
UnderlinePosition: -152
UnderlineWidth: 51
Ascent: 819
Descent: 205
InvalidEm: 0
sfntRevision: 0x00010000
LayerCount: 2
Layer: 0 1 "Back" 1
Layer: 1 1 "Fore" 0
XUID: [1021 40 -1673409177 15761662]
StyleMap: 0x0040
FSType: 0
OS2Version: 4
OS2_WeightWidthSlopeOnly: 0
OS2_UseTypoMetrics: 1
CreationTime: 1501460667
ModificationTime: 1506295820
PfmFamily: 17
TTFWeight: 400
TTFWidth: 5
LineGap: 94
VLineGap: 0
Panose: 2 0 5 3 0 0 0 0 0 0
OS2TypoAscent: 819
OS2TypoAOffset: 0
OS2TypoDescent: -205
OS2TypoDOffset: 0
OS2TypoLinegap: 94
OS2WinAscent: 746
OS2WinAOffset: 0
OS2WinDescent: 40
OS2WinDOffset: 0
HheadAscent: 746
HheadAOffset: 0
HheadDescent: -40
HheadDOffset: 0
OS2SubXSize: 665
OS2SubYSize: 716
OS2SubXOff: 0
OS2SubYOff: 143
OS2SupXSize: 665
OS2SupYSize: 716
OS2SupXOff: 0
OS2SupYOff: 491
OS2StrikeYSize: 51
OS2StrikeYPos: 265
OS2CapHeight: 729
OS2XHeight: 544
OS2Vendor: 'PfEd'
OS2CodePages: 00000001.00000000
OS2UnicodeRanges: 00000001.00000000.00000000.00000000
MarkAttachClasses: 1
DEI: 91125
ShortTable: cvt  2
  34
  648
EndShort
ShortTable: maxp 16
  1
  0
  32
  266
  2
  0
  0
  2
  0
  1
  1
  0
  64
  46
  0
  0
EndShort
LangName: 1033 "" "" "" "FontForge 2.0 : Abismos Base : 11-8-2017"
GaspTable: 1 65535 2 0
Encoding: UnicodeBmp
UnicodeInterp: none
NameList: AGL For New Fonts
DisplaySize: -48
AntiAlias: 1
FitToEm: 0
WinInfo: 0 16 7
BeginChars: 65539 127

StartChar: .notdef
Encoding: 65536 -1 0
Width: 374
Flags: W
LayerCount: 2
Fore
SplineSet
34 0 m 1,0,-1
 34 682 l 1,1,-1
 306 682 l 1,2,-1
 306 0 l 1,3,-1
 34 0 l 1,0,-1
68 34 m 1,4,-1
 272 34 l 1,5,-1
 272 648 l 1,6,-1
 68 648 l 1,7,-1
 68 34 l 1,4,-1
EndSplineSet
Validated: 1
EndChar

StartChar: A
Encoding: 65 65 3
Width: 598
Flags: W
LayerCount: 2
Fore
SplineSet
321 729 m 0,0,1
 330 729 330 729 335 725 c 0,2,3
 341 721 341 721 341 712 c 0,4,5
 341 710 341 710 343 709 c 0,6,7
 347 707 347 707 352 700 c 0,8,9
 356 694 356 694 360 686 c 0,10,11
 367 670 367 670 376 645 c 0,12,13
 379 634 379 634 382 626 c 0,14,15
 384 617 384 617 384 613 c 0,16,17
 384 610 384 610 386 607 c 0,18,19
 389 601 389 601 397 568 c 0,20,21
 412 509 412 509 429 460 c 0,22,23
 439 429 439 429 446 398 c 0,24,25
 467 313 467 313 484 267 c 0,26,27
 505 205 505 205 507 195 c 0,28,29
 507 192 507 192 510 185 c 0,30,31
 513 176 513 176 517 168 c 0,32,33
 521 159 521 159 524 152 c 0,34,35
 525 149 525 149 526 146 c 0,36,37
 527 145 527 145 527 144 c 0,38,39
 527 142 527 142 527 141 c 2,40,-1
 527 142 l 1,41,-1
 527 141 l 2,42,43
 528 139 528 139 528 137 c 0,44,45
 529 133 529 133 531 128 c 0,46,47
 535 115 535 115 542 88 c 0,48,49
 549 62 549 62 554 51 c 0,50,51
 560 39 560 39 559 30 c 0,52,53
 559 20 559 20 553 12 c 0,54,55
 548 6 548 6 543 4 c 256,56,57
 538 2 538 2 528 2 c 0,58,59
 517 2 517 2 513 4 c 0,60,61
 510 6 510 6 508 10 c 0,62,63
 507 12 507 12 506 17 c 0,64,65
 506 20 506 20 505 23 c 0,66,67
 504 25 504 25 503 26 c 0,68,69
 501 28 501 28 499 33 c 0,70,71
 498 38 498 38 497 42 c 1,72,-1
 497 42 l 1,73,74
 495 52 495 52 491 67 c 0,75,76
 487 81 487 81 478 113 c 0,77,78
 475 126 475 126 472 135 c 0,79,80
 472 136 472 136 471 139 c 0,81,82
 467 139 467 139 462 139 c 0,83,84
 449 140 449 140 425 140 c 0,85,86
 375 140 375 140 308 140 c 0,87,88
 256 140 256 140 235 140 c 0,89,90
 213 141 213 141 207 144 c 0,91,92
 203 146 203 146 201 147 c 0,93,94
 198 150 198 150 197 155 c 0,95,96
 196 159 196 159 195 178 c 2,97,-1
 194 203 l 2,98,99
 194 209 194 209 201 210 c 2,100,-1
 211 211 l 2,101,102
 214 212 214 212 225 212 c 0,103,104
 235 212 235 212 247 212 c 0,105,106
 277 212 277 212 286 210 c 1,107,-1
 287 211 l 2,108,109
 291 211 291 211 293 211 c 0,110,111
 300 211 300 211 307 212 c 0,112,113
 319 213 319 213 323 213 c 0,114,115
 327 212 327 212 330 210 c 2,116,117
 330 210 330 210 330.5 209.5 c 128,-1,118
 331 209 331 209 331 209 c 257,119,120
 331 209 331 209 333 210 c 0,121,122
 339 215 339 215 346 216 c 0,123,124
 353 218 353 218 367 218 c 0,125,126
 379 218 379 218 386 217 c 0,127,128
 394 215 394 215 398 213 c 0,129,130
 399 213 399 213 401 214 c 0,131,132
 403 214 403 214 407 215 c 0,133,134
 415 215 415 215 426 215 c 0,135,136
 436 215 436 215 443 216 c 1,137,138
 442 220 442 220 441 223 c 1,139,-1
 441 223 l 1,140,141
 435 238 435 238 427 266 c 0,142,143
 423 278 423 278 420 287.5 c 128,-1,144
 417 297 417 297 416 299 c 0,145,146
 414 305 414 305 411 317 c 0,147,148
 409 327 409 327 406 335 c 256,149,150
 403 343 403 343 397 370 c 0,151,152
 391 396 391 396 385 413 c 256,153,154
 379 430 379 430 373 450 c 128,-1,155
 367 470 367 470 364 482 c 0,156,157
 358 498 358 498 338 587 c 0,158,159
 334 602 334 602 330 616 c 1,160,161
 330 615 330 615 329.5 614 c 128,-1,162
 329 613 329 613 329 613 c 2,163,164
 325 605 325 605 319 585 c 0,165,166
 317 576 317 576 314 569 c 0,167,168
 313 566 313 566 312 564 c 0,169,170
 311 561 311 561 310 559 c 0,171,172
 309 559 309 559 309 557 c 0,173,174
 307 554 307 554 305 550 c 0,175,176
 301 540 301 540 295 526 c 0,177,178
 278 483 278 483 264 449 c 0,179,180
 245 405 245 405 243 399 c 0,181,182
 241 394 241 394 235 374 c 256,183,184
 229 354 229 354 224 341 c 0,185,186
 219 329 219 329 202 281 c 0,187,188
 185 231 185 231 174 211 c 0,189,190
 164 191 164 191 162 186 c 0,191,192
 153 165 153 165 115 85 c 0,193,194
 103 61 103 61 95 45 c 0,195,196
 91 37 91 37 89 32 c 0,197,198
 88 29 88 29 87 28 c 1,199,-1
 87 28 l 1,200,201
 87 29 87 29 87 30 c 1,202,203
 87 28 87 28 86 25 c 0,204,205
 86 24 86 24 85 22 c 0,206,207
 83 19 83 19 80 16 c 0,208,209
 72 5 72 5 60 5 c 256,210,211
 48 5 48 5 43 11 c 128,-1,212
 38 17 38 17 41 29 c 0,213,214
 41 30 41 30 41 30 c 2,215,216
 42 34 42 34 43 37 c 0,217,218
 45 42 45 42 47 44 c 2,219,-1
 47 45 l 1,220,-1
 48 47 l 2,221,222
 49 51 49 51 50 55 c 0,223,224
 52 67 52 67 57 75 c 0,225,226
 60 81 60 81 60 85 c 0,227,228
 60 91 60 91 64 101 c 0,229,230
 76 125 76 125 90 154 c 0,231,232
 103 183 103 183 106 191 c 0,233,234
 111 206 111 206 129 242 c 0,235,236
 154 294 154 294 172 358 c 0,237,238
 176 372 176 372 180 381 c 1,239,-1
 180 381 l 1,240,241
 182 384 182 384 186.5 396.5 c 128,-1,242
 191 409 191 409 196 425 c 0,243,244
 208 461 208 461 213 475 c 0,245,246
 221 494 221 494 226 507 c 0,247,248
 229 513 229 513 231 516 c 0,249,250
 233 521 233 521 235 523 c 2,251,-1
 235 524 l 2,252,253
 235 526 235 526 236 529 c 0,254,255
 237 531 237 531 238 534 c 0,256,257
 240 540 240 540 244 547 c 0,258,259
 263 586 263 586 290 667 c 0,260,261
 301 702 301 702 306 713 c 0,262,263
 309 720 309 720 311 723 c 0,264,265
 315 729 315 729 321 729 c 0,0,1
EndSplineSet
Validated: 5
EndChar

StartChar: B
Encoding: 66 66 4
Width: 570
Flags: W
LayerCount: 2
Fore
SplineSet
107 603 m 0,0,1
 109 594 109 594 111 579.5 c 128,-1,2
 113 565 113 565 113 563 c 0,3,4
 113 555 113 555 117 535 c 0,5,6
 119 523 119 523 124 479 c 0,7,8
 126 451 126 451 126 400 c 0,9,10
 126 367 126 367 125 362 c 0,11,12
 125 361 125 361 124.5 354 c 128,-1,13
 124 347 124 347 124 342 c 0,14,15
 124 338 124 338 124.5 326.5 c 128,-1,16
 125 315 125 315 125 310 c 0,17,18
 128 259 128 259 128 172 c 0,19,20
 128 101 128 101 126 97 c 0,21,22
 124 94 124 94 124.5 86 c 128,-1,23
 125 78 125 78 128 78 c 0,24,25
 129 78 129 78 132 81 c 0,26,27
 136 85 136 85 154 79 c 0,28,29
 181 70 181 70 243 70 c 0,30,31
 263 70 263 70 270 71 c 0,32,33
 274 72 274 72 286 73 c 128,-1,34
 298 74 298 74 303 74 c 0,35,36
 373 82 373 82 406 96 c 0,37,38
 415 100 415 100 428.5 109 c 128,-1,39
 442 118 442 118 442 120 c 0,40,41
 442 121 442 121 451 132 c 0,42,43
 474 157 474 157 476 181 c 0,44,45
 478 195 478 195 479 196 c 0,46,47
 482 199 482 199 476 206 c 0,48,49
 475 208 475 208 474 211 c 0,50,51
 473 213 473 213 472 214 c 2,52,-1
 472 216 l 2,53,54
 472 220 472 220 457.5 243 c 128,-1,55
 443 266 443 266 440 268 c 0,56,57
 434 270 434 270 428 274 c 0,58,59
 392 299 392 299 364 311 c 128,-1,60
 336 323 336 323 285 336 c 0,61,62
 243 347 243 347 214 356 c 0,63,64
 202 360 202 360 192 360 c 0,65,66
 183 360 183 360 178 359 c 0,67,68
 160 357 160 357 147 359 c 2,69,-1
 133 361 l 1,70,-1
 133 386 l 2,71,72
 133 411 133 411 140 416 c 128,-1,73
 147 421 147 421 153 419 c 0,74,75
 158 417 158 417 181 421 c 0,76,77
 207 425 207 425 213 425 c 0,78,79
 223 425 223 425 235 430 c 0,80,81
 249 434 249 434 251 434 c 0,82,83
 256 434 256 434 263 439 c 0,84,85
 271 445 271 445 274 445 c 0,86,87
 275 445 275 445 295 454 c 0,88,89
 330 470 330 470 358 523 c 0,90,91
 367 541 367 541 368 564 c 0,92,93
 368 583 368 583 364.5 591 c 128,-1,94
 361 599 361 599 341 623 c 0,95,96
 327 641 327 641 316 648 c 0,97,98
 277 671 277 671 274 672 c 0,99,100
 272 673 272 673 265.5 676 c 128,-1,101
 259 679 259 679 257 681 c 0,102,103
 244 690 244 690 205 690 c 2,104,-1
 200 690 l 2,105,106
 196 689 196 689 158 687 c 0,107,108
 128 685 128 685 126 683 c 128,-1,109
 124 681 124 681 119 681 c 0,110,111
 113 681 113 681 106 674 c 0,112,113
 101 669 101 669 101 659 c 0,114,115
 101 650 101 650 107 603 c 0,0,1
58 712 m 0,116,117
 61 729 61 729 63.5 732.5 c 128,-1,118
 66 736 66 736 77 737 c 0,119,120
 91 739 91 739 111 739 c 0,121,122
 135 739 135 739 144 742 c 0,123,124
 160 746 160 746 202 746 c 0,125,126
 223 746 223 746 229 745 c 0,127,128
 269 739 269 739 295 724 c 0,129,130
 317 712 317 712 322 712 c 0,131,132
 325 712 325 712 355 681 c 128,-1,133
 385 650 385 650 388 643 c 0,134,135
 390 637 390 637 395 630 c 0,136,137
 399 626 399 626 405 608 c 0,138,139
 410 590 410 590 410 565 c 0,140,141
 410 519 410 519 399 502 c 0,142,143
 398 499 398 499 393 491 c 128,-1,144
 388 483 388 483 387 480 c 0,145,146
 380 466 380 466 373 459 c 0,147,148
 365 448 365 448 345 427.5 c 128,-1,149
 325 407 325 407 320 403 c 0,150,151
 313 400 313 400 313 397 c 0,152,153
 313 390 313 390 353 380 c 0,154,155
 376 373 376 373 410 353 c 128,-1,156
 444 333 444 333 464 315 c 0,157,158
 492 289 492 289 504 260 c 0,159,160
 520 230 520 230 520 202 c 2,161,-1
 520 187 l 2,162,163
 520 174 520 174 516.5 156 c 128,-1,164
 513 138 513 138 510 134 c 0,165,166
 507 131 507 131 503 119 c 0,167,168
 501 111 501 111 485.5 92 c 128,-1,169
 470 73 470 73 459 65 c 0,170,171
 436 46 436 46 424 40 c 0,172,173
 416 34 416 34 383 25.5 c 128,-1,174
 350 17 350 17 331 15 c 128,-1,175
 312 13 312 13 305 10 c 0,176,177
 293 8 293 8 253 8 c 0,178,179
 222 8 222 8 211 9 c 0,180,181
 156 13 156 13 144 20 c 0,182,183
 123 31 123 31 121 28 c 0,184,185
 118 22 118 22 107 19 c 0,186,187
 94 13 94 13 94 11 c 0,188,189
 94 8 94 8 92 8 c 0,190,191
 83 8 83 8 83 75 c 0,192,193
 83 90 83 90 85 112 c 0,194,195
 86 121 86 121 86 158 c 2,196,-1
 86 179 l 2,197,198
 86 185 86 185 85.5 249 c 128,-1,199
 85 313 85 313 85 357 c 0,200,201
 85 491 85 491 83 495 c 0,202,203
 80 498 80 498 75 540 c 0,204,205
 74 551 74 551 71 572.5 c 128,-1,206
 68 594 68 594 67 599 c 0,207,208
 63 619 63 619 57 686 c 0,209,210
 57 705 57 705 58 712 c 0,116,117
EndSplineSet
Validated: 1
EndChar

StartChar: C
Encoding: 67 67 5
Width: 622
Flags: W
LayerCount: 2
Fore
SplineSet
65 373 m 0,0,1
 66 377 66 377 69 393.5 c 128,-1,2
 72 410 72 410 73 419 c 0,3,4
 81 473 81 473 90.5 503.5 c 128,-1,5
 100 534 100 534 123 579 c 0,6,7
 130 592 130 592 142 601 c 128,-1,8
 154 610 154 610 154 615 c 0,9,10
 154 622 154 622 175 643 c 128,-1,11
 196 664 196 664 210 672 c 0,12,13
 222 678 222 678 233 687 c 0,14,15
 238 692 238 692 264.5 701 c 128,-1,16
 291 710 291 710 312 713 c 0,17,18
 344 718 344 718 369 725 c 0,19,20
 381 728 381 728 389 725 c 0,21,22
 390 724 390 724 392.5 724 c 128,-1,23
 395 724 395 724 398.5 723.5 c 128,-1,24
 402 723 402 723 405.5 722.5 c 128,-1,25
 409 722 409 722 413.5 722 c 128,-1,26
 418 722 418 722 422.5 722 c 128,-1,27
 427 722 427 722 431 722 c 0,28,29
 459 722 459 722 466 724 c 0,30,31
 473 727 473 727 473 722 c 0,32,33
 473 720 473 720 473.5 719.5 c 128,-1,34
 474 719 474 719 475 720 c 0,35,36
 477 722 477 722 489 718 c 128,-1,37
 501 714 501 714 504 710 c 0,38,39
 508 704 508 704 508 698 c 0,40,41
 508 694 508 694 513 686 c 0,42,43
 518 680 518 680 509 668 c 2,44,-1
 502 657 l 1,45,-1
 441 657 l 2,46,47
 382 657 382 657 362 651 c 0,48,49
 354 649 354 649 323 643 c 0,50,51
 262 632 262 632 208 583 c 0,52,53
 191 567 191 567 171 538.5 c 128,-1,54
 151 510 151 510 147 497 c 0,55,56
 144 487 144 487 137 469 c 0,57,58
 116 414 116 414 116 378 c 0,59,60
 116 368 116 368 112 354 c 256,61,62
 108 340 108 340 108 327.5 c 128,-1,63
 108 315 108 315 112 296 c 2,64,-1
 119 254 l 2,65,66
 129 195 129 195 163 158 c 0,67,68
 182 138 182 138 204.5 127 c 128,-1,69
 227 116 227 116 282 100 c 0,70,71
 288 98 288 98 302.5 94.5 c 128,-1,72
 317 91 317 91 322 89 c 0,73,74
 346 82 346 82 380 82 c 0,75,76
 400 82 400 82 409 85 c 0,77,78
 423 91 423 91 445 96 c 0,79,80
 472 102 472 102 492 113 c 0,81,82
 516 126 516 126 521 126 c 128,-1,83
 526 126 526 126 552 96 c 0,84,85
 556 91 556 91 558 81 c 0,86,87
 558 80 558 80 558 80 c 2,88,89
 558 72 558 72 552.5 59 c 128,-1,90
 547 46 547 46 544 46 c 2,91,-1
 516 34 l 2,92,93
 463 8 463 8 390 5 c 0,94,95
 385 5 385 5 381.5 5 c 128,-1,96
 378 5 378 5 375 5 c 0,97,98
 361 5 361 5 349 7 c 128,-1,99
 337 9 337 9 311 15 c 0,100,101
 247 30 247 30 200 56 c 0,102,103
 179 69 179 69 173 71 c 0,104,105
 161 77 161 77 143 94 c 128,-1,106
 125 111 125 111 120 121 c 0,107,108
 110 137 110 137 108 140 c 128,-1,109
 106 143 106 143 101.5 150.5 c 128,-1,110
 97 158 97 158 97 159 c 0,111,112
 88 174 88 174 87 175 c 0,113,114
 80 184 80 184 77 227 c 0,115,116
 75 245 75 245 72 248 c 0,117,118
 68 252 68 252 67.5 259.5 c 128,-1,119
 67 267 67 267 69 268 c 0,120,121
 72 269 72 269 68 275 c 0,122,123
 63 281 63 281 63 335 c 0,124,125
 63 362 63 362 65 373 c 0,0,1
EndSplineSet
Validated: 1
EndChar

StartChar: D
Encoding: 68 68 6
Width: 613
Flags: W
LayerCount: 2
Fore
SplineSet
113 543 m 0,0,1
 117 517 117 517 118.5 492 c 128,-1,2
 120 467 120 467 121.5 446.5 c 128,-1,3
 123 426 123 426 124 326 c 0,4,5
 126 207 126 207 130 107 c 0,6,7
 131 83 131 83 133 81 c 128,-1,8
 135 79 135 79 156 79 c 0,9,10
 180 80 180 80 183.5 78 c 128,-1,11
 187 76 187 76 188.5 79 c 128,-1,12
 190 82 190 82 213 86.5 c 128,-1,13
 236 91 236 91 251 96.5 c 128,-1,14
 266 102 266 102 269 103 c 0,15,16
 273 104 273 104 275.5 105.5 c 128,-1,17
 278 107 278 107 277 108 c 0,18,19
 276 110 276 110 280 126 c 0,20,21
 282 136 282 136 282.5 136.5 c 128,-1,22
 283 137 283 137 282 130 c 0,23,24
 281 119 281 119 279 113 c 0,25,26
 278 109 278 109 279.5 108.5 c 128,-1,27
 281 108 281 108 287 109 c 0,28,29
 296 111 296 111 306 116 c 128,-1,30
 316 121 316 121 318 119.5 c 128,-1,31
 320 118 320 118 339 124.5 c 128,-1,32
 358 131 358 131 361 134.5 c 128,-1,33
 364 138 364 138 369 138 c 0,34,35
 378 138 378 138 401 153.5 c 128,-1,36
 424 169 424 169 425 175 c 0,37,38
 425 177 425 177 436.5 186 c 128,-1,39
 448 195 448 195 459.5 209.5 c 128,-1,40
 471 224 471 224 479 233 c 0,41,42
 504 259 504 259 508 287 c 0,43,44
 509 294 509 294 515 305 c 0,45,46
 521 314 521 314 521 324 c 128,-1,47
 521 334 521 334 515.5 335.5 c 128,-1,48
 510 337 510 337 516 343 c 0,49,50
 520 348 520 348 520.5 357 c 128,-1,51
 521 366 521 366 517 396 c 0,52,53
 515 409 515 409 508 428.5 c 128,-1,54
 501 448 501 448 491 467 c 128,-1,55
 481 486 481 486 472 498 c 0,56,57
 461 512 461 512 452 524 c 0,58,59
 442 538 442 538 419 559.5 c 128,-1,60
 396 581 396 581 381 590 c 0,61,62
 329 621 329 621 282 632 c 0,63,64
 257 639 257 639 210 637 c 0,65,66
 133 634 133 634 121 631 c 0,67,68
 114 629 114 629 113 632 c 0,69,70
 108 639 108 639 107 627 c 0,71,72
 104 602 104 602 113 543 c 0,0,1
61.5 664.5 m 128,-1,74
 64 672 64 672 65.5 682.5 c 128,-1,75
 67 693 67 693 77 701 c 128,-1,76
 87 709 87 709 94 706 c 0,77,78
 99 703 99 703 128 703 c 128,-1,79
 157 703 157 703 157 706 c 256,80,81
 157 709 157 709 203 709 c 128,-1,82
 249 709 249 709 269 706 c 0,83,84
 316 698 316 698 336 686 c 0,85,86
 342 682 342 682 345 682 c 0,87,88
 352 682 352 682 379.5 666.5 c 128,-1,89
 407 651 407 651 425 637 c 0,90,91
 443 622 443 622 452.5 616 c 128,-1,92
 462 610 462 610 471 600 c 0,93,94
 509 555 509 555 509 550 c 0,95,96
 509 547 509 547 525 514 c 0,97,98
 553 457 553 457 557 430 c 0,99,100
 563 395 563 395 563 346 c 128,-1,101
 563 297 563 297 558 275 c 0,102,103
 553 255 553 255 536 221.5 c 128,-1,104
 519 188 519 188 506 173 c 0,105,106
 492 155 492 155 492 153 c 0,107,108
 492 149 492 149 465 123 c 128,-1,109
 438 97 438 97 430 92 c 0,110,111
 419 87 419 87 419 83 c 0,112,113
 419 78 419 78 395 75 c 0,114,115
 375 71 375 71 358 60 c 0,116,117
 352 56 352 56 340.5 54 c 128,-1,118
 329 52 329 52 322 48 c 0,119,120
 290 32 290 32 283 32 c 0,121,122
 278 32 278 32 273 30 c 0,123,124
 255 21 255 21 237 19 c 0,125,126
 221 18 221 18 214.5 15 c 128,-1,127
 208 12 208 12 195 10.5 c 128,-1,128
 182 9 182 9 179 8 c 0,129,130
 174 5 174 5 156 4.5 c 128,-1,131
 138 4 138 4 128 7 c 0,132,133
 116 11 116 11 109 17.5 c 128,-1,134
 102 24 102 24 106 28 c 0,135,136
 109 32 109 32 106.5 35 c 128,-1,137
 104 38 104 38 98 38 c 256,138,139
 92 38 92 38 90 46.5 c 128,-1,140
 88 55 88 55 86 88 c 0,141,142
 83 162 83 162 80 168 c 0,143,144
 78 171 78 171 79 202 c 0,145,146
 80 234 80 234 79.5 318 c 128,-1,147
 79 402 79 402 78 425 c 0,148,149
 76 449 76 449 74.5 477 c 128,-1,150
 73 505 73 505 68.5 531.5 c 128,-1,151
 64 558 64 558 63 578.5 c 128,-1,152
 62 599 62 599 60.5 628 c 128,-1,73
 59 657 59 657 61.5 664.5 c 128,-1,74
EndSplineSet
Validated: 33
EndChar

StartChar: E
Encoding: 69 69 7
Width: 541
Flags: W
LayerCount: 2
Fore
SplineSet
54 661 m 0,0,1
 62 691 62 691 75 698 c 0,2,3
 81 701 81 701 106.5 701 c 128,-1,4
 132 701 132 701 136 698 c 0,5,6
 139 695 139 695 141 697 c 0,7,8
 144 700 144 700 209 700 c 0,9,10
 276 700 276 700 278 702 c 2,11,-1
 300 704 l 2,12,13
 318 704 318 704 340 706 c 0,14,15
 356 709 356 709 391 711 c 0,16,17
 423 713 423 713 425 714 c 0,18,19
 430 716 430 716 437 710.5 c 128,-1,20
 444 705 444 705 443 701 c 0,21,22
 443 696 443 696 447 692 c 0,23,24
 452 687 452 687 454 668 c 0,25,26
 456 654 456 654 455 650 c 128,-1,27
 454 646 454 646 448 641 c 0,28,29
 443 636 443 636 440 635 c 128,-1,30
 437 634 437 634 430 634 c 0,31,32
 427 634 427 634 424 634 c 128,-1,33
 421 634 421 634 416 634 c 2,34,-1
 409 634 l 2,35,36
 392 634 392 634 367.5 631.5 c 128,-1,37
 343 629 343 629 322 626 c 0,38,39
 317 626 317 626 298.5 625 c 128,-1,40
 280 624 280 624 255.5 623.5 c 128,-1,41
 231 623 231 623 215 623 c 0,42,43
 212 623 212 623 209.5 623 c 128,-1,44
 207 623 207 623 205 623 c 128,-1,45
 203 623 203 623 201 623 c 0,46,47
 198 623 198 623 178 623.5 c 128,-1,48
 158 624 158 624 145 624 c 0,49,50
 104 624 104 624 100 626 c 0,51,52
 99 626 99 626 99 626 c 2,53,54
 96 626 96 626 96 614 c 0,55,56
 96 603 96 603 99 565 c 0,57,58
 102 536 102 536 104 480 c 0,59,60
 107 403 107 403 108 388.5 c 128,-1,61
 109 374 109 374 113 374 c 0,62,63
 114 374 114 374 114 374 c 1,64,65
 155 378 155 378 232 389 c 0,66,67
 265 394 265 394 294 397 c 128,-1,68
 323 400 323 400 339 400 c 0,69,70
 345 400 345 400 349 399.5 c 128,-1,71
 353 399 353 399 354 398 c 0,72,73
 364 393 364 393 364 367 c 0,74,75
 364 363 364 363 364 359 c 0,76,77
 363 337 363 337 355 330 c 128,-1,78
 347 323 347 323 312 323 c 0,79,80
 265 323 265 323 250 319 c 0,81,82
 242 317 242 317 240 317 c 2,83,-1
 220 315 l 2,84,85
 204 311 204 311 161.5 305.5 c 128,-1,86
 119 300 119 300 111 300 c 0,87,88
 110 300 110 300 109.5 300 c 128,-1,89
 109 300 109 300 108.5 299 c 128,-1,90
 108 298 108 298 108 297 c 128,-1,91
 108 296 108 296 107.5 294 c 128,-1,92
 107 292 107 292 107 289.5 c 128,-1,93
 107 287 107 287 107 283 c 128,-1,94
 107 279 107 279 106.5 273.5 c 128,-1,95
 106 268 106 268 106 262 c 0,96,97
 106 245 106 245 107 192 c 2,98,-1
 109 83 l 1,99,100
 109 83 109 83 109.5 83 c 128,-1,101
 110 83 110 83 111 83 c 0,102,103
 162 83 162 83 267 91 c 0,104,105
 273 92 273 92 322 96 c 0,106,107
 409 102 409 102 418 105 c 0,108,109
 430 107 430 107 449 109 c 2,110,-1
 471 111 l 1,111,-1
 476 101 l 2,112,113
 477 100 477 100 477.5 98 c 128,-1,114
 478 96 478 96 479 93.5 c 128,-1,115
 480 91 480 91 480.5 88.5 c 128,-1,116
 481 86 481 86 481 83.5 c 128,-1,117
 481 81 481 81 481.5 78 c 128,-1,118
 482 75 482 75 482 72.5 c 128,-1,119
 482 70 482 70 482 67 c 0,120,121
 482 56 482 56 480 50 c 0,122,123
 476 41 476 41 469 38 c 0,124,125
 449 26 449 26 437 26 c 0,126,127
 435 26 435 26 435 27 c 0,128,129
 432 30 432 30 426 28 c 0,130,131
 422 28 422 28 376 24 c 0,132,133
 369 23 369 23 341 21 c 128,-1,134
 313 19 313 19 303 18 c 2,135,-1
 235 14 l 2,136,137
 190 12 190 12 165 9 c 0,138,139
 127 7 127 7 115 7 c 0,140,141
 99 7 99 7 98 6 c 0,142,143
 96 4 96 4 83 4 c 2,144,-1
 69 4 l 1,145,-1
 69 20 l 2,146,147
 67 86 67 86 64 99 c 0,148,149
 62 104 62 104 64 108 c 128,-1,150
 66 112 66 112 66 155 c 0,151,152
 66 187 66 187 64 323 c 0,153,154
 63 485 63 485 57 547 c 0,155,156
 54 567 54 567 52 597 c 0,157,158
 50 623 50 623 50 631 c 128,-1,159
 50 639 50 639 54 661 c 0,0,1
EndSplineSet
Validated: 1
EndChar

StartChar: F
Encoding: 70 70 8
Width: 517
Flags: W
LayerCount: 2
Fore
SplineSet
62 649 m 0,0,1
 67 657 67 657 67 672 c 0,2,3
 69 687 69 687 74 694 c 0,4,5
 78 699 78 699 82.5 700 c 128,-1,6
 87 701 87 701 109 701 c 0,7,8
 142 701 142 701 160 698 c 0,9,10
 179 695 179 695 234 693 c 0,11,12
 240 693 240 693 245 692.5 c 128,-1,13
 250 692 250 692 254.5 692 c 128,-1,14
 259 692 259 692 262.5 692 c 128,-1,15
 266 692 266 692 270 692 c 0,16,17
 292 692 292 692 310 695 c 0,18,19
 352 704 352 704 403 707 c 0,20,21
 417 708 417 708 426 708 c 0,22,23
 455 708 455 708 457 694 c 0,24,25
 459 686 459 686 461 686 c 2,26,-1
 462 678 l 2,27,28
 462 657 462 657 458 646 c 0,29,30
 451 630 451 630 443 628 c 0,31,32
 436 626 436 626 426 624 c 0,33,34
 414 621 414 621 411 624 c 2,35,36
 411 624 411 624 409.5 624.5 c 128,-1,37
 408 625 408 625 406.5 625 c 128,-1,38
 405 625 405 625 403 625 c 128,-1,39
 401 625 401 625 399 625 c 0,40,41
 387 625 387 625 369 623.5 c 128,-1,42
 351 622 351 622 333 619 c 0,43,44
 284 611 284 611 249 611 c 0,45,46
 207 612 207 612 154 618 c 0,47,48
 147 619 147 619 140.5 619.5 c 128,-1,49
 134 620 134 620 129 620.5 c 128,-1,50
 124 621 124 621 119.5 621 c 128,-1,51
 115 621 115 621 112 621 c 0,52,53
 106 621 106 621 105 620 c 256,54,55
 104 619 104 619 106 591 c 0,56,57
 106 586 106 586 109 511 c 0,58,59
 109 463 109 463 111 423 c 0,60,61
 112 408 112 408 112 396.5 c 128,-1,62
 112 385 112 385 111 384 c 0,63,64
 109 382 109 382 111 371 c 0,65,66
 114 361 114 361 119 361 c 0,67,68
 120 361 120 361 124.5 362 c 128,-1,69
 129 363 129 363 136 363.5 c 128,-1,70
 143 364 143 364 148 365 c 0,71,72
 176 369 176 369 181 370 c 0,73,74
 192 374 192 374 212 376 c 0,75,76
 234 379 234 379 237 382 c 0,77,78
 238 385 238 385 244 385 c 2,79,-1
 255 385 l 2,80,81
 257 385 257 385 259 385 c 128,-1,82
 261 385 261 385 263 385 c 0,83,84
 275 385 275 385 282.5 383.5 c 128,-1,85
 290 382 290 382 294.5 379 c 128,-1,86
 299 376 299 376 302 370 c 0,87,88
 306 362 306 362 301 357 c 0,89,90
 293 348 293 348 301 348 c 0,91,92
 305 348 305 348 307 343 c 0,93,94
 309 339 309 339 314 339 c 0,95,96
 320 339 320 339 316 333 c 0,97,98
 311 328 311 328 305 328 c 0,99,100
 297 328 297 328 297 322 c 0,101,102
 295 304 295 304 275 301 c 0,103,104
 266 300 266 300 261 297 c 2,105,-1
 259 297 l 2,106,107
 257 297 257 297 254 296.5 c 128,-1,108
 251 296 251 296 247 295.5 c 128,-1,109
 243 295 243 295 238 295 c 128,-1,110
 233 295 233 295 229 295 c 0,111,112
 196 293 196 293 187 290 c 0,113,114
 155 282 155 282 141 282 c 0,115,116
 133 282 133 282 129 278 c 0,117,118
 124 274 124 274 120 275 c 0,119,120
 117 276 117 276 116 272 c 0,121,122
 116 269 116 269 115 262 c 0,123,124
 115 254 115 254 113 184 c 0,125,126
 113 171 113 171 112 129 c 128,-1,127
 111 87 111 87 110 72 c 2,128,-1
 109 22 l 1,129,-1
 101 16 l 2,130,131
 93 8 93 8 93 7 c 0,132,133
 92 5 92 5 92 2 c 0,134,135
 91 1 91 1 87 5 c 0,136,137
 82 8 82 8 76 8 c 0,138,139
 73 7 73 7 71.5 7.5 c 128,-1,140
 70 8 70 8 69.5 10.5 c 128,-1,141
 69 13 69 13 68 19 c 0,142,143
 66 33 66 33 66 53 c 0,144,145
 68 72 68 72 65 77 c 0,146,147
 63 80 63 80 65 84 c 0,148,149
 67 86 67 86 69 107 c 0,150,151
 69 127 69 127 71 129 c 0,152,153
 71 130 71 130 72 153.5 c 128,-1,154
 73 177 73 177 74 205.5 c 128,-1,155
 75 234 75 234 75 247 c 0,156,157
 75 249 75 249 75 251 c 128,-1,158
 75 253 75 253 75 254 c 0,159,160
 72 282 72 282 71 285 c 0,161,162
 68 288 68 288 72 292 c 0,163,164
 74 296 74 296 72 301 c 0,165,166
 68 305 68 305 72 309 c 0,167,168
 75 314 75 314 75 347 c 0,169,170
 75 360 75 360 74.5 375.5 c 128,-1,171
 74 391 74 391 73 410 c 0,172,173
 71 446 71 446 71 471 c 0,174,175
 71 480 71 480 71 489 c 0,176,177
 71 520 71 520 69.5 548 c 128,-1,178
 68 576 68 576 66 581 c 0,179,180
 63 589 63 589 67 599 c 0,181,182
 70 610 70 610 66 616 c 0,183,184
 60 626 60 626 60 637 c 0,185,186
 60 643 60 643 62 649 c 0,0,1
EndSplineSet
Validated: 1
EndChar

StartChar: G
Encoding: 71 71 9
Width: 757
Flags: W
LayerCount: 2
Fore
SplineSet
50 296 m 0,0,1
 52 311 52 311 53 328 c 0,2,3
 55 356 55 356 57 370 c 0,4,5
 60 379 60 379 60 385 c 0,6,7
 64 407 64 407 67 410 c 0,8,9
 70 412 70 412 70 418 c 0,10,11
 70 430 70 430 88 472.5 c 128,-1,12
 106 515 106 515 123 544 c 0,13,14
 130 555 130 555 146 572 c 128,-1,15
 162 589 162 589 166 589 c 128,-1,16
 170 589 170 589 170 593 c 0,17,18
 170 601 170 601 215.5 635.5 c 128,-1,19
 261 670 261 670 271 670 c 0,20,21
 277 670 277 670 293 680 c 0,22,23
 307 689 307 689 311 689 c 2,24,-1
 314 690 l 2,25,26
 317 691 317 691 322 693.5 c 128,-1,27
 327 696 327 696 331 697 c 0,28,29
 347 704 347 704 364 706 c 0,30,31
 383 710 383 710 385 712 c 0,32,33
 389 715 389 715 412 715 c 0,34,35
 432 715 432 715 458 713 c 0,36,37
 496 710 496 710 510 700 c 0,38,39
 522 692 522 692 526 692 c 0,40,41
 528 692 528 692 552.5 679.5 c 128,-1,42
 577 667 577 667 592 658 c 0,43,44
 640 628 640 628 653 614 c 0,45,46
 666 599 666 599 668 581 c 0,47,48
 668 576 668 576 668 572 c 0,49,50
 668 562 668 562 664 557 c 128,-1,51
 660 552 660 552 648 550 c 0,52,53
 645 549 645 549 643 549 c 0,54,55
 636 549 636 549 613 569 c 0,56,57
 547 626 547 626 472 644 c 0,58,59
 459 647 459 647 420.5 647 c 128,-1,60
 382 647 382 647 372 644 c 0,61,62
 351 638 351 638 341 636 c 0,63,64
 289 625 289 625 211 559 c 0,65,66
 178 533 178 533 153 493 c 0,67,68
 144 479 144 479 132 447 c 128,-1,69
 120 415 120 415 120 406 c 0,70,71
 120 402 120 402 114 403 c 0,72,73
 108 406 108 406 108 398 c 0,74,75
 108 394 108 394 104 352 c 0,76,77
 100 318 100 318 100 303 c 0,78,79
 100 285 100 285 106 266 c 0,80,81
 113 238 113 238 132 210 c 0,82,83
 153 179 153 179 181 153.5 c 128,-1,84
 209 128 209 128 231 120 c 0,85,86
 243 115 243 115 250 111 c 0,87,88
 258 105 258 105 265 105 c 0,89,90
 271 105 271 105 278 100 c 0,91,92
 283 96 283 96 303 92 c 0,93,94
 304 92 304 92 322 89 c 128,-1,95
 340 86 340 86 348 84 c 0,96,97
 381 78 381 78 436 78 c 0,98,99
 462 78 462 78 468 80 c 0,100,101
 470 80 470 80 475 81 c 128,-1,102
 480 82 480 82 484 83 c 128,-1,103
 488 84 488 84 492 84 c 0,104,105
 512 86 512 86 546 102 c 0,106,107
 561 108 561 108 561 111 c 128,-1,108
 561 114 561 114 579 127 c 0,109,110
 614 153 614 153 614 161 c 128,-1,111
 614 169 614 169 619 177 c 2,112,-1
 627 193 l 2,113,114
 633 204 633 204 633 240 c 0,115,116
 633 247 633 247 632 250 c 0,117,118
 628 258 628 258 625 258 c 0,119,120
 623 258 623 258 620.5 267 c 128,-1,121
 618 276 618 276 618 283 c 0,122,123
 618 288 618 288 619 290 c 2,124,125
 619 290 619 290 619 291 c 0,126,127
 619 294 619 294 599 294 c 0,128,129
 592 294 592 294 579 294 c 0,130,131
 538 294 538 294 534 292 c 0,132,133
 528 289 528 289 512 289 c 0,134,135
 453 289 453 289 391 276 c 0,136,137
 356 270 356 270 345 270 c 0,138,139
 337 270 337 270 329 273 c 0,140,141
 319 277 319 277 318 281.5 c 128,-1,142
 317 286 317 286 325 297 c 0,143,144
 333 311 333 311 333 313 c 0,145,146
 333 319 333 319 343.5 332.5 c 128,-1,147
 354 346 354 346 361 347 c 0,148,149
 393 355 393 355 472 362 c 0,150,151
 583 373 583 373 599 378 c 0,152,153
 615 381 615 381 621 377 c 128,-1,154
 627 373 627 373 631 377 c 0,155,156
 634 380 634 380 641 380 c 0,157,158
 647 380 647 380 654.5 377.5 c 128,-1,159
 662 375 662 375 667 371.5 c 128,-1,160
 672 368 672 368 672 364 c 0,161,162
 672 363 672 363 672 362 c 0,163,164
 670 357 670 357 677 339 c 0,165,166
 685 312 685 312 685 287 c 0,167,168
 685 271 685 271 682 253 c 0,169,170
 680 236 680 236 680 228.5 c 128,-1,171
 680 221 680 221 682 217 c 0,172,173
 686 210 686 210 683 203 c 0,174,175
 680 195 680 195 678 176 c 0,176,177
 677 160 677 160 669 145 c 0,178,179
 661 135 661 135 661 129 c 0,180,181
 661 125 661 125 650 114 c 0,182,183
 638 100 638 100 635 94 c 0,184,185
 633 89 633 89 611 71 c 128,-1,186
 589 53 589 53 572 42 c 0,187,188
 560 34 560 34 558 33 c 0,189,190
 520 9 520 9 470 8 c 0,191,192
 448 8 448 8 439 5 c 0,193,194
 437 4 437 4 425 4 c 0,195,196
 398 4 398 4 342 10 c 0,197,198
 308 13 308 13 258 31 c 128,-1,199
 208 49 208 49 177 69 c 0,200,201
 151 86 151 86 116.5 126.5 c 128,-1,202
 82 167 82 167 78 186 c 0,203,204
 76 194 76 194 72 200 c 128,-1,205
 68 206 68 206 61 226.5 c 128,-1,206
 54 247 54 247 53 254 c 0,207,208
 49 284 49 284 49 291 c 0,209,210
 49 295 49 295 50 296 c 0,0,1
EndSplineSet
Validated: 1
EndChar

StartChar: H
Encoding: 72 72 10
Width: 643
Flags: W
LayerCount: 2
Fore
SplineSet
56 654 m 0,0,1
 62 658 62 658 64 669 c 0,2,3
 68 697 68 697 73 697 c 0,4,5
 74 697 74 697 80 699 c 0,6,7
 82 700 82 700 85.5 696.5 c 128,-1,8
 89 693 89 693 90.5 689 c 128,-1,9
 92 685 92 685 90 683 c 0,10,11
 87 681 87 681 91 672 c 0,12,13
 105 639 105 639 106 523 c 0,14,15
 106 385 106 385 116 375 c 0,16,17
 117 374 117 374 119 377 c 0,18,19
 120 378 120 378 120 379 c 0,20,21
 122 385 122 385 131 384 c 0,22,23
 151 379 151 379 307 376 c 0,24,25
 365 376 365 376 416 379 c 0,26,27
 458 381 458 381 489 381 c 0,28,29
 500 381 500 381 506 381 c 2,30,-1
 532 381 l 1,31,-1
 532 434 l 2,32,33
 532 519 532 519 538 523 c 0,34,35
 541 526 541 526 538 529 c 0,36,37
 536 531 536 531 536 549 c 0,38,39
 536 570 536 570 538 596.5 c 128,-1,40
 540 623 540 623 543 632 c 0,41,42
 547 640 547 640 545 643 c 0,43,44
 545 645 545 645 552.5 670 c 128,-1,45
 560 695 560 695 561 697 c 0,46,47
 565 697 565 697 568 696 c 0,48,49
 580 692 580 692 580 631 c 0,50,51
 580 622 580 622 580 610 c 0,52,53
 578 544 578 544 578 531 c 0,54,55
 577 515 577 515 576.5 482.5 c 128,-1,56
 576 450 576 450 576 403 c 0,57,58
 576 367 576 367 576 325 c 0,59,60
 576 319 576 319 576 313 c 128,-1,61
 576 307 576 307 576 300 c 0,62,63
 576 233 576 233 573 168.5 c 128,-1,64
 570 104 570 104 567 99 c 0,65,66
 566 97 566 97 564 62 c 0,67,68
 562 26 562 26 560 22 c 0,69,70
 559 19 559 19 557.5 16.5 c 128,-1,71
 556 14 556 14 554 12 c 128,-1,72
 552 10 552 10 549.5 8.5 c 128,-1,73
 547 7 547 7 544.5 5.5 c 128,-1,74
 542 4 542 4 539.5 3.5 c 128,-1,75
 537 3 537 3 535 3 c 0,76,77
 532 3 532 3 529.5 4 c 128,-1,78
 527 5 527 5 525 7 c 0,79,80
 520 12 520 12 520 26 c 0,81,82
 520 32 520 32 521 49 c 0,83,84
 521 57 521 57 522 68 c 128,-1,85
 523 79 523 79 523.5 86 c 128,-1,86
 524 93 524 93 524 95 c 0,87,88
 527 108 527 108 533 202 c 0,89,90
 534 210 534 210 534 227.5 c 128,-1,91
 534 245 534 245 533 262 c 2,92,-1
 531 304 l 1,93,-1
 439 302 l 2,94,95
 373 301 373 301 306 301 c 0,96,97
 233 301 233 301 182.5 302.5 c 128,-1,98
 132 304 132 304 126 307 c 256,99,100
 120 310 120 310 120 302 c 0,101,102
 120 298 120 298 121 285 c 0,103,104
 123 259 123 259 125 207 c 0,105,106
 126 173 126 173 126 164 c 0,107,108
 126 149 126 149 122 146 c 0,109,110
 117 144 117 144 121 141 c 0,111,112
 122 140 122 140 122.5 138.5 c 128,-1,113
 123 137 123 137 123.5 134.5 c 128,-1,114
 124 132 124 132 124 127 c 0,115,116
 124 121 124 121 123 106 c 0,117,118
 118 25 118 25 113 25 c 128,-1,119
 108 25 108 25 105 22 c 0,120,121
 102 18 102 18 94 17 c 2,122,-1
 93 17 l 1,123,-1
 87 15 l 2,124,125
 81 15 81 15 79.5 37 c 128,-1,126
 78 59 78 59 77 154 c 0,127,128
 76 329 76 329 73 337 c 128,-1,129
 70 345 70 345 69 354 c 0,130,131
 59 444 59 444 58 537 c 0,132,133
 56 623 56 623 54 630 c 0,134,135
 49 647 49 647 56 654 c 0,0,1
EndSplineSet
Validated: 1
EndChar

StartChar: I
Encoding: 73 73 11
Width: 214
Flags: W
LayerCount: 2
Fore
SplineSet
101 708 m 0,0,1
 103 708 103 708 105 707 c 0,2,3
 110 705 110 705 117 703 c 256,4,5
 124 701 124 701 127 699 c 0,6,7
 131 694 131 694 132 684 c 0,8,9
 133 672 133 672 134 595 c 0,10,11
 135 521 135 521 139 481 c 0,12,13
 142 440 142 440 142 254 c 0,14,15
 142 178 142 178 142 121 c 128,-1,16
 142 64 142 64 142 60 c 0,17,18
 142 51 142 51 135 31 c 0,19,20
 132 23 132 23 130 17 c 0,21,22
 128 13 128 13 127 11 c 0,23,24
 125 8 125 8 122 6 c 256,25,26
 119 4 119 4 113 3 c 0,27,28
 108 3 108 3 103 3 c 2,29,-1
 92 3 l 2,30,31
 84 3 84 3 84 11 c 2,32,-1
 85 84 l 2,33,34
 86 114 86 114 87 137 c 0,35,36
 87 143 87 143 87 149.5 c 128,-1,37
 87 156 87 156 87 159 c 128,-1,38
 87 162 87 162 87 162 c 2,39,40
 87 169 87 169 87 214 c 0,41,42
 88 233 88 233 88 247 c 0,43,44
 88 250 88 250 88 252.5 c 128,-1,45
 88 255 88 255 87.5 257 c 128,-1,46
 87 259 87 259 87 261 c 128,-1,47
 87 263 87 263 87 263.5 c 128,-1,48
 87 264 87 264 87 264 c 1,49,-1
 87 264 l 1,50,51
 86 280 86 280 86 327 c 0,52,53
 86 347 86 347 86 360 c 0,54,55
 86 368 86 368 87 372 c 0,56,57
 87 374 87 374 87 376 c 0,58,59
 87 379 87 379 88 380 c 0,60,61
 88 381 88 381 88 381 c 2,62,63
 86 384 86 384 85 387 c 0,64,65
 84 392 84 392 85 396 c 2,66,67
 85 396 85 396 85 397 c 128,-1,68
 85 398 85 398 84 400.5 c 128,-1,69
 83 403 83 403 82 404 c 0,70,71
 77 411 77 411 76 417 c 256,72,73
 75 423 75 423 76 433 c 0,74,75
 79 455 79 455 78 499 c 0,76,77
 78 519 78 519 76 532 c 0,78,79
 76 539 76 539 75 543 c 2,80,81
 75 543 75 543 75 545 c 0,82,83
 71 549 71 549 71 556 c 0,84,85
 70 562 70 562 71 570 c 0,86,87
 72 584 72 584 72 590 c 0,88,89
 69 642 69 642 72 652 c 0,90,91
 75 660 75 660 84 678 c 0,92,93
 87 685 87 685 89 691 c 0,94,95
 90 694 90 694 91 695 c 2,96,-1
 91 694 l 2,97,98
 90 697 90 697 90 699 c 0,99,100
 90 704 90 704 95 707 c 0,101,102
 97 708 97 708 101 708 c 0,0,1
EndSplineSet
Validated: 37
EndChar

StartChar: J
Encoding: 74 74 12
Width: 472
Flags: W
LayerCount: 2
Fore
SplineSet
60 131 m 2,0,1
 63 134 63 134 61 144 c 0,2,3
 61 145 61 145 61 146 c 0,4,5
 61 158 61 158 67 172 c 128,-1,6
 73 186 73 186 79 190 c 0,7,8
 86 194 86 194 95 185 c 128,-1,9
 104 176 104 176 104 172 c 0,10,11
 104 166 104 166 107 165 c 0,12,13
 112 155 112 155 115 147 c 0,14,15
 127 114 127 114 199 95 c 0,16,17
 207 93 207 93 212 91.5 c 128,-1,18
 217 90 217 90 223 89.5 c 128,-1,19
 229 89 229 89 235 89 c 0,20,21
 243 89 243 89 256 90 c 0,22,23
 290 91 290 91 301 95 c 128,-1,24
 312 99 312 99 321 112 c 0,25,26
 339 135 339 135 341 210 c 0,27,28
 341 237 341 237 344 243 c 0,29,30
 346 245 346 245 344 250 c 0,31,32
 341 254 341 254 341 288 c 128,-1,33
 341 322 341 322 336 327 c 0,34,35
 330 333 330 333 333 337 c 0,36,37
 334 341 334 341 334 352 c 128,-1,38
 334 363 334 363 333 419 c 0,39,40
 330 476 330 476 326 483 c 0,41,42
 321 493 321 493 321 568 c 0,43,44
 320 603 320 603 320 615 c 0,45,46
 320 645 320 645 325 652 c 0,47,48
 331 660 331 660 331 667 c 0,49,50
 331 675 331 675 333 677 c 0,51,52
 336 680 336 680 340 693 c 2,53,-1
 343 706 l 1,54,-1
 354 701 l 2,55,56
 370 694 370 694 370 669 c 0,57,58
 370 666 370 666 370 663 c 0,59,60
 370 662 370 662 370 660.5 c 128,-1,61
 370 659 370 659 370 657.5 c 128,-1,62
 370 656 370 656 370 655 c 0,63,64
 370 614 370 614 373.5 514.5 c 128,-1,65
 377 415 377 415 379 412 c 0,66,67
 384 402 384 402 384 298 c 0,68,69
 384 285 384 285 384 274 c 0,70,71
 384 241 384 241 382 206.5 c 128,-1,72
 380 172 380 172 377 149.5 c 128,-1,73
 374 127 374 127 372 127 c 0,74,75
 370 126 370 126 370 118 c 2,76,-1
 371 113 l 2,77,78
 371 102 371 102 351 64 c 0,79,80
 326 12 326 12 303 12 c 0,81,82
 302 12 302 12 301 12.5 c 128,-1,83
 300 13 300 13 299 13 c 0,84,85
 292 15 292 15 284 11 c 0,86,87
 264 7 264 7 248 6 c 0,88,89
 220 4 220 4 219 3 c 128,-1,90
 218 2 218 2 189 13 c 0,91,92
 180 16 180 16 173 16 c 0,93,94
 162 17 162 17 134.5 31.5 c 128,-1,95
 107 46 107 46 100 54 c 0,96,97
 95 60 95 60 88 72 c 0,98,99
 85 77 85 77 79 86 c 0,100,101
 75 93 75 93 67.5 109.5 c 128,-1,102
 60 126 60 126 60 130 c 0,103,104
 60 131 60 131 60 131 c 2,0,1
EndSplineSet
Validated: 1
EndChar

StartChar: K
Encoding: 75 75 13
Width: 607
Flags: W
LayerCount: 2
Fore
SplineSet
77 662 m 0,0,1
 84 675 84 675 89 687.5 c 128,-1,2
 94 700 94 700 100.5 705 c 128,-1,3
 107 710 107 710 105 716 c 0,4,5
 104 721 104 721 106 722 c 0,6,7
 109 724 109 724 112 716 c 0,8,9
 114 710 114 710 119 704 c 0,10,11
 123 701 123 701 123.5 693.5 c 128,-1,12
 124 686 124 686 123 659 c 0,13,14
 120 600 120 600 121.5 509 c 128,-1,15
 123 418 123 418 128 418 c 0,16,17
 130 418 130 418 136.5 431.5 c 128,-1,18
 143 445 143 445 148.5 447 c 128,-1,19
 154 449 154 449 166.5 460 c 128,-1,20
 179 471 179 471 205.5 492 c 128,-1,21
 232 513 232 513 244 523 c 0,22,23
 315 587 315 587 381 633 c 0,24,25
 386 636 386 636 393.5 643.5 c 128,-1,26
 401 651 401 651 407.5 659 c 128,-1,27
 414 667 414 667 417 672 c 0,28,29
 420 676 420 676 425.5 673 c 128,-1,30
 431 670 431 670 439 667 c 128,-1,31
 447 664 447 664 445 657 c 128,-1,32
 443 650 443 650 442.5 637 c 128,-1,33
 442 624 442 624 439 618 c 0,34,35
 436 610 436 610 416.5 589 c 128,-1,36
 397 568 397 568 385 559 c 0,37,38
 374 552 374 552 365 545 c 0,39,40
 354 538 354 538 345 531 c 0,41,42
 335 525 335 525 327 517 c 128,-1,43
 319 509 319 509 291.5 486.5 c 128,-1,44
 264 464 264 464 263 461.5 c 128,-1,45
 262 459 262 459 255 456 c 2,46,-1
 247 453 l 1,47,-1
 257 444 l 2,48,49
 284 417 284 417 299 396 c 0,50,51
 307 384 307 384 310.5 381.5 c 128,-1,52
 314 379 314 379 316.5 374 c 128,-1,53
 319 369 319 369 332 355 c 0,54,55
 357 326 357 326 394 273 c 0,56,57
 410 250 410 250 439 214 c 0,58,59
 502 135 502 135 512 116 c 0,60,61
 518 105 518 105 514 84.5 c 128,-1,62
 510 64 510 64 506 61 c 128,-1,63
 502 58 502 58 502 54 c 256,64,65
 502 50 502 50 489.5 49 c 128,-1,66
 477 48 477 48 473 52 c 0,67,68
 468 56 468 56 464.5 56 c 128,-1,69
 461 56 461 56 462 60 c 0,70,71
 464 64 464 64 460.5 70 c 128,-1,72
 457 76 457 76 453 76 c 0,73,74
 450 76 450 76 444 90 c 128,-1,75
 438 104 438 104 433 108.5 c 128,-1,76
 428 113 428 113 417.5 128 c 128,-1,77
 407 143 407 143 404 143 c 256,78,79
 401 143 401 143 392.5 154.5 c 128,-1,80
 384 166 384 166 377 179 c 0,81,82
 372 187 372 187 356 209 c 128,-1,83
 340 231 340 231 334 240 c 128,-1,84
 328 249 328 249 304 276 c 128,-1,85
 280 303 280 303 272.5 313.5 c 128,-1,86
 265 324 265 324 261 324 c 128,-1,87
 257 324 257 324 257 328 c 0,88,89
 257 330 257 330 253.5 335 c 128,-1,90
 250 340 250 340 245.5 346 c 128,-1,91
 241 352 241 352 234.5 359 c 128,-1,92
 228 366 228 366 223 372 c 0,93,94
 215 380 215 380 214 383 c 128,-1,95
 213 386 213 386 215 395 c 0,96,97
 223 422 223 422 219 424 c 0,98,99
 216 425 216 425 205 414 c 0,100,101
 194 404 194 404 185 397.5 c 128,-1,102
 176 391 176 391 162.5 378 c 128,-1,103
 149 365 149 365 141.5 365 c 128,-1,104
 134 365 134 365 132 362 c 128,-1,105
 130 359 130 359 129 202 c 0,106,107
 128 14 128 14 121 10 c 0,108,109
 106 2 106 2 97 3 c 0,110,111
 91 4 91 4 89.5 7 c 128,-1,112
 88 10 88 10 86 26 c 0,113,114
 84 48 84 48 86 61 c 0,115,116
 88 83 88 83 89 162.5 c 128,-1,117
 90 242 90 242 88 289 c 0,118,119
 83 416 83 416 80 421 c 0,120,121
 78 424 78 424 78 436 c 0,122,123
 79 452 79 452 78 474.5 c 128,-1,124
 77 497 77 497 75.5 514.5 c 128,-1,125
 74 532 74 532 72 534 c 0,126,127
 69 537 69 537 70 594 c 0,128,129
 71 632 71 632 72 643 c 128,-1,130
 73 654 73 654 77 662 c 0,0,1
EndSplineSet
Validated: 33
EndChar

StartChar: L
Encoding: 76 76 14
Width: 613
Flags: W
LayerCount: 2
Fore
SplineSet
65 646 m 0,0,1
 70 657 70 657 73 662.5 c 128,-1,2
 76 668 76 668 74 671 c 128,-1,3
 72 674 72 674 80 689.5 c 128,-1,4
 88 705 88 705 88 708 c 0,5,6
 88 709 88 709 92 708.5 c 128,-1,7
 96 708 96 708 102 705.5 c 128,-1,8
 108 703 108 703 113 700 c 0,9,10
 114 700 114 700 115 666 c 0,11,12
 119 527 119 527 121 506 c 0,13,14
 122 497 122 497 123.5 460.5 c 128,-1,15
 125 424 125 424 127 402 c 0,16,17
 135 307 135 307 135 157 c 2,18,-1
 135 87 l 1,19,-1
 148 86 l 2,20,21
 162 84 162 84 184 87 c 128,-1,22
 206 90 206 90 276.5 93 c 128,-1,23
 347 96 347 96 356 98 c 128,-1,24
 365 100 365 100 406.5 101 c 128,-1,25
 448 102 448 102 474 105 c 0,26,27
 496 107 496 107 506.5 104.5 c 128,-1,28
 517 102 517 102 523 93 c 0,29,30
 527 86 527 86 527.5 79 c 128,-1,31
 528 72 528 72 525 70 c 256,32,33
 522 68 522 68 523.5 58.5 c 128,-1,34
 525 49 525 49 520 42 c 128,-1,35
 515 35 515 35 515 30 c 0,36,37
 515 22 515 22 503.5 19.5 c 128,-1,38
 492 17 492 17 458 16 c 0,39,40
 413 14 413 14 383 13 c 0,41,42
 296 7 296 7 228 8 c 0,43,44
 215 8 215 8 203 5 c 0,45,46
 193 2 193 2 142 1.5 c 128,-1,47
 91 1 91 1 89 3 c 0,48,49
 85 6 85 6 90 54 c 0,50,51
 93 89 93 89 91 230 c 0,52,53
 91 257 91 257 87.5 293.5 c 128,-1,54
 84 330 84 330 82 330 c 0,55,56
 81 330 81 330 79.5 356.5 c 128,-1,57
 78 383 78 383 78 389 c 0,58,59
 79 417 79 417 73 456 c 0,60,61
 71 469 71 469 71 491 c 128,-1,62
 71 513 71 513 74 519 c 0,63,64
 75 523 75 523 72 533.5 c 128,-1,65
 69 544 69 544 68 580.5 c 128,-1,66
 67 617 67 617 63 623 c 0,67,68
 60 629 60 629 60 632.5 c 128,-1,69
 60 636 60 636 65 646 c 0,0,1
EndSplineSet
Validated: 33
EndChar

StartChar: M
Encoding: 77 77 15
Width: 679
Flags: W
LayerCount: 2
Fore
SplineSet
83 640 m 0,0,1
 87 654 87 654 94.5 671.5 c 128,-1,2
 102 689 102 689 104 689 c 256,3,4
 106 689 106 689 108 686 c 128,-1,5
 110 683 110 683 114 683 c 0,6,7
 134 683 134 683 153 644 c 0,8,9
 165 621 165 621 179.5 596.5 c 128,-1,10
 194 572 194 572 194 568.5 c 128,-1,11
 194 565 194 565 196.5 565 c 128,-1,12
 199 565 199 565 204 555 c 128,-1,13
 209 545 209 545 216.5 533 c 128,-1,14
 224 521 224 521 229 511.5 c 128,-1,15
 234 502 234 502 257.5 470.5 c 128,-1,16
 281 439 281 439 284.5 432.5 c 128,-1,17
 288 426 288 426 299.5 412.5 c 128,-1,18
 311 399 311 399 317 390 c 0,19,20
 328 375 328 375 331 372.5 c 128,-1,21
 334 370 334 370 338 374 c 0,22,23
 354 387 354 387 395 450 c 0,24,25
 412 477 412 477 418 483 c 128,-1,26
 424 489 424 489 428.5 497.5 c 128,-1,27
 433 506 433 506 444 522 c 0,28,29
 451 533 451 533 452 536 c 128,-1,30
 453 539 453 539 449 542 c 128,-1,31
 445 545 445 545 445.5 545.5 c 128,-1,32
 446 546 446 546 450 546 c 0,33,34
 456 546 456 546 472.5 568 c 128,-1,35
 489 590 489 590 504 617 c 0,36,37
 511 628 511 628 531 663 c 128,-1,38
 551 698 551 698 551 700 c 0,39,40
 551 706 551 706 559 712.5 c 128,-1,41
 567 719 567 719 573 719 c 0,42,43
 592 719 592 719 597 678 c 0,44,45
 599 659 599 659 600.5 622 c 128,-1,46
 602 585 602 585 601.5 555 c 128,-1,47
 601 525 601 525 599 525 c 0,48,49
 596 525 596 525 599.5 521 c 128,-1,50
 603 517 603 517 602 459 c 128,-1,51
 601 401 601 401 604 401 c 128,-1,52
 607 401 607 401 604 396 c 0,53,54
 601 387 601 387 598 313 c 0,55,56
 593 170 593 170 597 162 c 0,57,58
 599 157 599 157 601 127 c 128,-1,59
 603 97 603 97 605 75 c 0,60,61
 606 61 606 61 603 45.5 c 128,-1,62
 600 30 600 30 594 17.5 c 128,-1,63
 588 5 588 5 581 0 c 0,64,65
 576 -3 576 -3 568.5 -0.5 c 128,-1,66
 561 2 561 2 561 7 c 256,67,68
 561 12 561 12 558.5 14.5 c 128,-1,69
 556 17 556 17 555 25 c 0,70,71
 555 34 555 34 553 63 c 0,72,73
 552 94 552 94 549 138 c 0,74,75
 545 181 545 181 545 247 c 128,-1,76
 545 313 545 313 548.5 315 c 128,-1,77
 552 317 552 317 549 320.5 c 128,-1,78
 546 324 546 324 547 333 c 0,79,80
 548 350 548 350 548.5 370 c 128,-1,81
 549 390 549 390 548.5 404 c 128,-1,82
 548 418 548 418 547 419 c 0,83,84
 544 423 544 423 544 446 c 128,-1,85
 544 469 544 469 547 484 c 0,86,87
 549 496 549 496 546 498 c 128,-1,88
 543 500 543 500 541 527 c 128,-1,89
 539 554 539 554 537.5 559 c 128,-1,90
 536 564 536 564 539 575 c 0,91,92
 542 588 542 588 539 587 c 0,93,94
 535 586 535 586 526 569 c 0,95,96
 515 549 515 549 512 547.5 c 128,-1,97
 509 546 509 546 501.5 530.5 c 128,-1,98
 494 515 494 515 479 493 c 0,99,100
 412 390 412 390 399 374 c 0,101,102
 388 359 388 359 388 356.5 c 128,-1,103
 388 354 388 354 373 334.5 c 128,-1,104
 358 315 358 315 358 311.5 c 128,-1,105
 358 308 358 308 353.5 304 c 128,-1,106
 349 300 349 300 349 294 c 0,107,108
 349 285 349 285 342 276.5 c 128,-1,109
 335 268 335 268 326 266 c 0,110,111
 318 265 318 265 314.5 266.5 c 128,-1,112
 311 268 311 268 304 276 c 0,113,114
 294 287 294 287 286 301 c 0,115,116
 277 316 277 316 264 331 c 0,117,118
 258 337 258 337 258 340 c 256,119,120
 258 343 258 343 227 381 c 0,121,122
 221 390 221 390 206 412 c 128,-1,123
 191 434 191 434 176.5 456.5 c 128,-1,124
 162 479 162 479 157 488 c 0,125,126
 148 506 148 506 140 516 c 0,127,128
 133 526 133 526 132 523 c 0,129,130
 131 522 131 522 131 519 c 0,131,132
 129 512 129 512 131 468 c 0,133,134
 134 435 134 435 135 283 c 128,-1,135
 136 131 136 131 134 89 c 0,136,137
 132 43 132 43 120 13 c 0,138,139
 118 8 118 8 110.5 6 c 128,-1,140
 103 4 103 4 96 6 c 0,141,142
 88 7 88 7 88 18.5 c 128,-1,143
 88 30 88 30 83 37 c 128,-1,144
 78 44 78 44 82 52.5 c 128,-1,145
 86 61 86 61 86.5 83 c 128,-1,146
 87 105 87 105 90 106 c 128,-1,147
 93 107 93 107 91 140 c 128,-1,148
 89 173 89 173 91 189 c 0,149,150
 93 211 93 211 91.5 301 c 128,-1,151
 90 391 90 391 87 398 c 0,152,153
 85 406 85 406 83.5 463.5 c 128,-1,154
 82 521 82 521 81 575.5 c 128,-1,155
 80 630 80 630 83 640 c 0,0,1
EndSplineSet
Validated: 33
EndChar

StartChar: N
Encoding: 78 78 16
Width: 577
Flags: W
LayerCount: 2
Fore
SplineSet
74 653 m 0,0,1
 78 661 78 661 85 681 c 0,2,3
 89 694 89 694 91 697 c 128,-1,4
 93 700 93 700 98 698 c 0,5,6
 111 694 111 694 114 692 c 128,-1,7
 117 690 117 690 117 683 c 0,8,9
 116 675 116 675 128.5 657.5 c 128,-1,10
 141 640 141 640 141 637.5 c 128,-1,11
 141 635 141 635 149.5 622.5 c 128,-1,12
 158 610 158 610 166.5 592.5 c 128,-1,13
 175 575 175 575 190.5 549 c 128,-1,14
 206 523 206 523 216 503 c 0,15,16
 240 460 240 460 271 417 c 0,17,18
 292 387 292 387 298 378 c 128,-1,19
 304 369 304 369 324.5 341.5 c 128,-1,20
 345 314 345 314 361 290.5 c 128,-1,21
 377 267 377 267 390 251 c 128,-1,22
 403 235 403 235 404.5 230.5 c 128,-1,23
 406 226 406 226 417 210 c 128,-1,24
 428 194 428 194 435 181 c 0,25,26
 446 161 446 161 446 177 c 0,27,28
 445 186 445 186 446 245 c 0,29,30
 446 306 446 306 443 332 c 128,-1,31
 440 358 440 358 438.5 424 c 128,-1,32
 437 490 437 490 434 518 c 128,-1,33
 431 546 431 546 430 566.5 c 128,-1,34
 429 587 429 587 427.5 601 c 128,-1,35
 426 615 426 615 429 624.5 c 128,-1,36
 432 634 432 634 434 649 c 0,37,38
 435 655 435 655 437 662 c 128,-1,39
 439 669 439 669 440.5 674 c 128,-1,40
 442 679 442 679 443.5 682.5 c 128,-1,41
 445 686 445 686 447 686 c 256,42,43
 449 686 449 686 459 675 c 0,44,45
 467 667 467 667 468.5 661 c 128,-1,46
 470 655 470 655 471 618 c 0,47,48
 472 601 472 601 473.5 594 c 128,-1,49
 475 587 475 587 478.5 533 c 128,-1,50
 482 479 482 479 485 475 c 128,-1,51
 488 471 488 471 485 471 c 256,52,53
 482 471 482 471 481.5 468 c 128,-1,54
 481 465 481 465 482 460.5 c 128,-1,55
 483 456 483 456 486 453 c 0,56,57
 491 448 491 448 486 446 c 128,-1,58
 481 444 481 444 483 407 c 128,-1,59
 485 370 485 370 486 367 c 0,60,61
 489 363 489 363 489.5 296.5 c 128,-1,62
 490 230 490 230 487 213 c 0,63,64
 479 154 479 154 485 105 c 0,65,66
 490 59 490 59 487 37 c 128,-1,67
 484 15 484 15 471 9 c 0,68,69
 441 -5 441 -5 436 33 c 0,70,71
 434 49 434 49 425 58 c 0,72,73
 408 75 408 75 406 89 c 0,74,75
 406 94 406 94 401 105 c 128,-1,76
 396 116 396 116 393 117 c 0,77,78
 390 119 390 119 393 124.5 c 128,-1,79
 396 130 396 130 390 134 c 128,-1,80
 384 138 384 138 369 160 c 128,-1,81
 354 182 354 182 347 189 c 0,82,83
 342 194 342 194 334 204 c 128,-1,84
 326 214 326 214 320 222.5 c 128,-1,85
 314 231 314 231 314 232 c 0,86,87
 314 235 314 235 302 249.5 c 128,-1,88
 290 264 290 264 268 296.5 c 128,-1,89
 246 329 246 329 232 349 c 0,90,91
 178 424 178 424 124 529 c 0,92,93
 120 537 120 537 116 539 c 0,94,95
 115 539 115 539 114.5 538 c 128,-1,96
 114 537 114 537 115 534 c 0,97,98
 117 530 117 530 118.5 486.5 c 128,-1,99
 120 443 120 443 122.5 428.5 c 128,-1,100
 125 414 125 414 126 371 c 0,101,102
 126 329 126 329 128 320 c 0,103,104
 131 292 131 292 134 292 c 0,105,106
 136 292 136 292 136 281 c 0,107,108
 137 270 137 270 139 236 c 0,109,110
 142 202 142 202 140 170 c 0,111,112
 134 80 134 80 140 62 c 0,113,114
 143 54 143 54 140.5 52.5 c 128,-1,115
 138 51 138 51 137 33 c 128,-1,116
 136 15 136 15 128 8 c 0,117,118
 114 -3 114 -3 102 7 c 0,119,120
 96 12 96 12 100.5 15.5 c 128,-1,121
 105 19 105 19 99 29 c 0,122,123
 91 45 91 45 98 106 c 0,124,125
 100 124 100 124 96.5 126 c 128,-1,126
 93 128 93 128 97 132 c 0,127,128
 99 135 99 135 100 155 c 128,-1,129
 101 175 101 175 100.5 195.5 c 128,-1,130
 100 216 100 216 98 219 c 256,131,132
 96 222 96 222 94 230 c 0,133,134
 86 283 86 283 85 326 c 0,135,136
 85 340 85 340 80 346 c 0,137,138
 78 348 78 348 77 351 c 128,-1,139
 76 354 76 354 75.5 366 c 128,-1,140
 75 378 75 378 74.5 394.5 c 128,-1,141
 74 411 74 411 74 446 c 0,142,143
 74 540 74 540 71.5 554 c 128,-1,144
 69 568 69 568 73.5 573 c 128,-1,145
 78 578 78 578 74 584 c 128,-1,146
 70 590 70 590 70 618 c 128,-1,147
 70 646 70 646 74 653 c 0,0,1
EndSplineSet
Validated: 33
EndChar

StartChar: O
Encoding: 79 79 17
Width: 742
Flags: W
LayerCount: 2
Fore
SplineSet
129 284 m 0,0,1
 138 250 138 250 145.5 229 c 128,-1,2
 153 208 153 208 163 192.5 c 128,-1,3
 173 177 173 177 188 161 c 0,4,5
 213 136 213 136 246.5 120 c 128,-1,6
 280 104 280 104 338 91 c 0,7,8
 378 81 378 81 424 89 c 0,9,10
 504 103 504 103 550 150 c 0,11,12
 574 174 574 174 584 194.5 c 128,-1,13
 594 215 594 215 596 240 c 0,14,15
 597 264 597 264 598 268 c 0,16,17
 602 280 602 280 604.5 299.5 c 128,-1,18
 607 319 607 319 607 338.5 c 128,-1,19
 607 358 607 358 605 376.5 c 128,-1,20
 603 395 603 395 599 404 c 0,21,22
 597 409 597 409 596 413 c 128,-1,23
 595 417 595 417 589 429 c 128,-1,24
 583 441 583 441 578.5 457.5 c 128,-1,25
 574 474 574 474 571 480 c 0,26,27
 566 492 566 492 564 496 c 0,28,29
 560 506 560 506 555 517.5 c 128,-1,30
 550 529 550 529 542 539 c 0,31,32
 541 540 541 540 533 549.5 c 128,-1,33
 525 559 525 559 521 564 c 0,34,35
 508 579 508 579 500 581 c 0,36,37
 484 585 484 585 488 595 c 0,38,39
 490 601 490 601 489 605 c 0,40,41
 488 608 488 608 470 617 c 128,-1,42
 452 626 452 626 436 632 c 0,43,44
 425 636 425 636 405.5 636.5 c 128,-1,45
 386 637 386 637 378 634 c 0,46,47
 374 632 374 632 371 633 c 0,48,49
 357 636 357 636 324 621 c 0,50,51
 286 603 286 603 282 603 c 0,52,53
 279 603 279 603 272 597 c 128,-1,54
 265 591 265 591 261 591 c 128,-1,55
 257 591 257 591 246 581 c 0,56,57
 192 531 192 531 192 528 c 256,58,59
 192 525 192 525 184 515 c 0,60,61
 168 497 168 497 139 429 c 0,62,63
 124 396 124 396 121 371 c 0,64,65
 120 357 120 357 122 329.5 c 128,-1,66
 124 302 124 302 129 284 c 0,0,1
81 360 m 2,67,68
 82 362 82 362 85.5 384 c 128,-1,69
 89 406 89 406 91 409 c 128,-1,70
 93 412 93 412 97 426.5 c 128,-1,71
 101 441 101 441 108 457 c 128,-1,72
 115 473 115 473 115 477 c 256,73,74
 115 481 115 481 124 500 c 128,-1,75
 133 519 133 519 141 532 c 0,76,77
 147 542 147 542 153 552 c 0,78,79
 164 576 164 576 193.5 608 c 128,-1,80
 223 640 223 640 252 661 c 0,81,82
 265 671 265 671 267 663 c 0,83,84
 268 659 268 659 275 665 c 2,85,-1
 280 670 l 2,86,87
 280 671 280 671 275 670 c 0,88,89
 271 671 271 671 272 672 c 0,90,91
 278 680 278 680 285 678 c 0,92,93
 286 677 286 677 286 675 c 0,94,95
 284 671 284 671 287 671 c 0,96,97
 289 671 289 671 299 674 c 128,-1,98
 309 677 309 677 319 681 c 128,-1,99
 329 685 329 685 331 687 c 0,100,101
 335 690 335 690 343 694 c 2,102,-1
 350 697 l 1,103,-1
 342 696 l 1,104,-1
 335 696 l 2,105,106
 337 699 337 699 352 704 c 0,107,108
 364 708 364 708 378.5 710 c 128,-1,109
 393 712 393 712 394 710 c 0,110,111
 395 709 395 709 393 708 c 2,112,-1
 389 707 l 1,113,114
 364 705 364 705 364 700 c 0,115,116
 364 697 364 697 370.5 699 c 128,-1,117
 377 701 377 701 403 702.5 c 128,-1,118
 429 704 429 704 447 697 c 0,119,120
 463 692 463 692 480.5 682.5 c 128,-1,121
 498 673 498 673 501 670 c 0,122,123
 503 666 503 666 506 670 c 0,124,125
 514 678 514 678 549 644 c 128,-1,126
 584 610 584 610 597 582 c 0,127,128
 611 550 611 550 620 523 c 0,129,130
 628 498 628 498 630 495 c 0,131,132
 639 481 639 481 645 444 c 0,133,134
 653 399 653 399 645 313 c 0,135,136
 642 276 642 276 642 262 c 0,137,138
 642 246 642 246 637 216 c 128,-1,139
 632 186 632 186 626 169 c 0,140,141
 618 149 618 149 614 142 c 128,-1,142
 610 135 610 135 594 114 c 0,143,144
 575 90 575 90 568.5 80.5 c 128,-1,145
 562 71 562 71 554.5 67.5 c 128,-1,146
 547 64 547 64 547 61 c 0,147,148
 547 60 547 60 542.5 56 c 128,-1,149
 538 52 538 52 532 48.5 c 128,-1,150
 526 45 526 45 522 44 c 0,151,152
 519 42 519 42 497 32 c 0,153,154
 464 17 464 17 430 11 c 0,155,156
 411 7 411 7 403 5.5 c 128,-1,157
 395 4 395 4 373.5 2.5 c 128,-1,158
 352 1 352 1 339.5 7 c 128,-1,159
 327 13 327 13 304 18 c 0,160,161
 255 27 255 27 199 61 c 0,162,163
 182 71 182 71 173.5 75.5 c 128,-1,164
 165 80 165 80 163.5 85 c 128,-1,165
 162 90 162 90 158.5 90.5 c 128,-1,166
 155 91 155 91 150 95 c 128,-1,167
 145 99 145 99 140 105.5 c 128,-1,168
 135 112 135 112 132 120 c 0,169,170
 123 141 123 141 113 169.5 c 128,-1,171
 103 198 103 198 104 202 c 0,172,173
 104 204 104 204 100.5 212.5 c 128,-1,174
 97 221 97 221 97 223.5 c 128,-1,175
 97 226 97 226 93 229 c 0,176,177
 89 233 89 233 84 281 c 0,178,179
 82 300 82 300 80.5 329.5 c 128,-1,180
 79 359 79 359 80 360 c 2,181,-1
 81 360 l 2,67,68
EndSplineSet
Validated: 33
EndChar

StartChar: P
Encoding: 80 80 18
Width: 586
Flags: W
LayerCount: 2
Fore
SplineSet
137 574 m 0,0,1
 138 487 138 487 144 424 c 0,2,3
 152 339 152 339 143 325 c 0,4,5
 141 320 141 320 144 314 c 128,-1,6
 147 308 147 308 146 276 c 0,7,8
 146 271 146 271 146 266 c 128,-1,9
 146 261 146 261 146 257 c 128,-1,10
 146 253 146 253 146 250 c 128,-1,11
 146 247 146 247 146.5 245.5 c 128,-1,12
 147 244 147 244 148 244 c 0,13,14
 150 245 150 245 156 260 c 128,-1,15
 162 275 162 275 162 280 c 0,16,17
 162 284 162 284 166 288 c 128,-1,18
 170 292 170 292 176.5 295 c 128,-1,19
 183 298 183 298 190 298 c 0,20,21
 236 301 236 301 265 309 c 0,22,23
 288 315 288 315 296 315 c 128,-1,24
 304 315 304 315 334 325 c 128,-1,25
 364 335 364 335 379 342 c 0,26,27
 395 351 395 351 416.5 368 c 128,-1,28
 438 385 438 385 443 394 c 0,29,30
 449 404 449 404 449 412 c 128,-1,31
 449 420 449 420 457 441 c 0,32,33
 459 446 459 446 460.5 451 c 128,-1,34
 462 456 462 456 462 459 c 128,-1,35
 462 462 462 462 462 462 c 2,36,37
 459 462 459 462 459 477 c 0,38,39
 458 515 458 515 437 551 c 0,40,41
 402 607 402 607 337 626 c 0,42,43
 308 635 308 635 269.5 640.5 c 128,-1,44
 231 646 231 646 226 642 c 0,45,46
 223 641 223 641 209 638.5 c 128,-1,47
 195 636 195 636 179.5 633.5 c 128,-1,48
 164 631 164 631 152 629 c 0,49,50
 141 627 141 627 136 622.5 c 128,-1,51
 131 618 131 618 134 612 c 0,52,53
 136 607 136 607 137 574 c 0,0,1
75.5 655.5 m 128,-1,55
 82 676 82 676 86 678.5 c 128,-1,56
 90 681 90 681 90 686 c 0,57,58
 90 692 90 692 95.5 699 c 128,-1,59
 101 706 101 706 104 704 c 0,60,61
 110 702 110 702 189 716 c 0,62,63
 230 724 230 724 250 725 c 128,-1,64
 270 726 270 726 298 721 c 0,65,66
 397 704 397 704 430 673 c 0,67,68
 442 662 442 662 445.5 662 c 128,-1,69
 449 662 449 662 456 652.5 c 128,-1,70
 463 643 463 643 481 623 c 0,71,72
 498 604 498 604 504 582.5 c 128,-1,73
 510 561 510 561 513 513 c 0,74,75
 516 461 516 461 500 406 c 0,76,77
 496 391 496 391 485 368.5 c 128,-1,78
 474 346 474 346 466 335 c 0,79,80
 459 325 459 325 459 322 c 128,-1,81
 459 319 459 319 450 311 c 128,-1,82
 441 303 441 303 438 303 c 128,-1,83
 435 303 435 303 431.5 297 c 128,-1,84
 428 291 428 291 409.5 279 c 128,-1,85
 391 267 391 267 383.5 262 c 128,-1,86
 376 257 376 257 357 251.5 c 128,-1,87
 338 246 338 246 326.5 241.5 c 128,-1,88
 315 237 315 237 298.5 236 c 128,-1,89
 282 235 282 235 270 229.5 c 128,-1,90
 258 224 258 224 246.5 223 c 128,-1,91
 235 222 235 222 226 218 c 128,-1,92
 217 214 217 214 193.5 213 c 128,-1,93
 170 212 170 212 157 211 c 2,94,-1
 145 210 l 1,95,-1
 145 196 l 1,96,97
 152 63 152 63 145 39 c 0,98,99
 140 21 140 21 135 17 c 0,100,101
 132 14 132 14 119 9.5 c 128,-1,102
 106 5 106 5 104 6 c 0,103,104
 102 8 102 8 101.5 30.5 c 128,-1,105
 101 53 101 53 102 54 c 0,106,107
 105 56 105 56 102 68.5 c 128,-1,108
 99 81 99 81 99.5 91 c 128,-1,109
 100 101 100 101 98 111 c 128,-1,110
 96 121 96 121 99.5 126 c 128,-1,111
 103 131 103 131 100.5 131 c 128,-1,112
 98 131 98 131 99 168.5 c 128,-1,113
 100 206 100 206 95 217 c 0,114,115
 93 222 93 222 92 229.5 c 128,-1,116
 91 237 91 237 92 242.5 c 128,-1,117
 93 248 93 248 95 249 c 0,118,119
 98 249 98 249 97.5 294.5 c 128,-1,120
 97 340 97 340 93 345 c 128,-1,121
 89 350 89 350 92.5 356 c 128,-1,122
 96 362 96 362 93 363 c 0,123,124
 91 365 91 365 92.5 376 c 128,-1,125
 94 387 94 387 97 394 c 0,126,127
 100 399 100 399 97 399 c 0,128,129
 86 399 86 399 79 545 c 0,130,131
 77 588 77 588 75 591 c 128,-1,132
 73 594 73 594 73 602 c 0,133,134
 72 611 72 611 70 623 c 0,135,54
 69 635 69 635 75.5 655.5 c 128,-1,55
EndSplineSet
Validated: 33
EndChar

StartChar: Q
Encoding: 81 81 19
Width: 769
Flags: W
LayerCount: 2
Fore
SplineSet
126 309 m 0,0,1
 161 180 161 180 230 128 c 0,2,3
 256 108 256 108 292 100 c 0,4,5
 305 98 305 98 319 94 c 0,6,7
 331 91 331 91 363 92 c 128,-1,8
 395 93 395 93 412 97 c 0,9,10
 430 102 430 102 479 118 c 1,11,12
 479 118 479 118 478 120 c 128,-1,13
 477 122 477 122 475.5 125 c 128,-1,14
 474 128 474 128 472 132 c 0,15,16
 468 140 468 140 467.5 144 c 128,-1,17
 467 148 467 148 470 157 c 0,18,19
 474 170 474 170 474 176 c 0,20,21
 477 200 477 200 487 214 c 0,22,23
 491 218 491 218 493 218 c 128,-1,24
 495 218 495 218 504 212 c 0,25,26
 516 204 516 204 536 184 c 2,27,-1
 555 164 l 1,28,-1
 570 180 l 2,29,30
 583 192 583 192 594 211.5 c 128,-1,31
 605 231 605 231 608 246 c 0,32,33
 619 304 619 304 625 311 c 0,34,35
 629 317 629 317 629 358.5 c 128,-1,36
 629 400 629 400 625 413 c 0,37,38
 620 428 620 428 620 440 c 0,39,40
 620 447 620 447 614.5 466.5 c 128,-1,41
 609 486 609 486 602.5 505 c 128,-1,42
 596 524 596 524 592 529 c 0,43,44
 585 537 585 537 549.5 565 c 128,-1,45
 514 593 514 593 508 595 c 0,46,47
 500 598 500 598 480 607 c 0,48,49
 472 611 472 611 459 615.5 c 128,-1,50
 446 620 446 620 435 623 c 128,-1,51
 424 626 424 626 420 626 c 0,52,53
 393 626 393 626 355.5 621 c 128,-1,54
 318 616 318 616 309 611 c 0,55,56
 298 606 298 606 282 600 c 0,57,58
 253 588 253 588 224 557 c 0,59,60
 209 542 209 542 192 525.5 c 128,-1,61
 175 509 175 509 175 505 c 128,-1,62
 175 501 175 501 172 501 c 256,63,64
 169 501 169 501 157 480.5 c 128,-1,65
 145 460 145 460 136 440 c 0,66,67
 109 373 109 373 126 309 c 0,0,1
72 310 m 0,68,69
 72 322 72 322 73.5 336 c 128,-1,70
 75 350 75 350 76.5 361.5 c 128,-1,71
 78 373 78 373 80 381.5 c 128,-1,72
 82 390 82 390 83 391 c 0,73,74
 85 392 85 392 85 402 c 0,75,76
 85 431 85 431 106 472 c 0,77,78
 116 492 116 492 127 515 c 0,79,80
 138 536 138 536 150 556 c 0,81,82
 156 564 156 564 170 580 c 128,-1,83
 184 596 184 596 198.5 611 c 128,-1,84
 213 626 213 626 225.5 637 c 128,-1,85
 238 648 238 648 241 648 c 0,86,87
 246 648 246 648 271 661 c 0,88,89
 305 678 305 678 340 684.5 c 128,-1,90
 375 691 375 691 433 691 c 0,91,92
 462 691 462 691 476 684 c 0,93,94
 499 672 499 672 499 681 c 0,95,96
 499 685 499 685 503 679 c 0,97,98
 508 674 508 674 511.5 675.5 c 128,-1,99
 515 677 515 677 515 685 c 128,-1,100
 515 693 515 693 518 693 c 0,101,102
 524 693 524 693 538.5 684.5 c 128,-1,103
 553 676 553 676 557 670 c 0,104,105
 564 661 564 661 567.5 661 c 128,-1,106
 571 661 571 661 593.5 642.5 c 128,-1,107
 616 624 616 624 627 619 c 128,-1,108
 638 614 638 614 650.5 589.5 c 128,-1,109
 663 565 663 565 661 563 c 128,-1,110
 659 561 659 561 662 557 c 128,-1,111
 665 553 665 553 671.5 528.5 c 128,-1,112
 678 504 678 504 678 497 c 128,-1,113
 678 490 678 490 680 481 c 128,-1,114
 682 472 682 472 678.5 472 c 128,-1,115
 675 472 675 472 680 462 c 128,-1,116
 685 452 685 452 683.5 440 c 128,-1,117
 682 428 682 428 685 424.5 c 128,-1,118
 688 421 688 421 686 407.5 c 128,-1,119
 684 394 684 394 683 374.5 c 128,-1,120
 682 355 682 355 678.5 339 c 128,-1,121
 675 323 675 323 672 305 c 128,-1,122
 669 287 669 287 665.5 280.5 c 128,-1,123
 662 274 662 274 663 271.5 c 128,-1,124
 664 269 664 269 659 249.5 c 128,-1,125
 654 230 654 230 652.5 228.5 c 128,-1,126
 651 227 651 227 641 198 c 0,127,128
 628 157 628 157 610 132 c 2,129,-1
 604 123 l 1,130,-1
 618 110 l 2,131,132
 632 97 632 97 647 84 c 0,133,134
 663 70 663 70 665.5 61.5 c 128,-1,135
 668 53 668 53 662 35 c 0,136,137
 655 14 655 14 650 7 c 128,-1,138
 645 0 645 0 635 -4 c 0,139,140
 624 -8 624 -8 613 -1 c 0,141,142
 607 3 607 3 596 12.5 c 128,-1,143
 585 22 585 22 577 30.5 c 128,-1,144
 569 39 569 39 569 42 c 0,145,146
 569 46 569 46 566 45 c 0,147,148
 563 42 563 42 550 57 c 0,149,150
 549 59 549 59 546.5 60 c 128,-1,151
 544 61 544 61 540.5 61 c 128,-1,152
 537 61 537 61 534 60.5 c 128,-1,153
 531 60 531 60 528.5 59 c 128,-1,154
 526 58 526 58 524 56 c 0,155,156
 522 52 522 52 505 42.5 c 128,-1,157
 488 33 488 33 485 34 c 0,158,159
 481 34 481 34 470 29 c 0,160,161
 423 4 423 4 332 3 c 0,162,163
 291 3 291 3 280.5 8.5 c 128,-1,164
 270 14 270 14 263 14 c 0,165,166
 247 14 247 14 185 58 c 0,167,168
 177 63 177 63 174 68 c 128,-1,169
 171 73 171 73 160 84 c 0,170,171
 153 92 153 92 144 104.5 c 128,-1,172
 135 117 135 117 128 129 c 128,-1,173
 121 141 121 141 116 151 c 128,-1,174
 111 161 111 161 112 163 c 0,175,176
 114 168 114 168 108 171 c 128,-1,177
 102 174 102 174 95.5 192 c 128,-1,178
 89 210 89 210 89 223 c 0,179,180
 89 238 89 238 79 258 c 128,-1,181
 69 278 69 278 70 286 c 128,-1,182
 71 294 71 294 72 310 c 0,68,69
EndSplineSet
Validated: 33
EndChar

StartChar: R
Encoding: 82 82 20
Width: 640
Flags: W
LayerCount: 2
Fore
SplineSet
123 595 m 0,0,1
 126 584 126 584 127.5 558.5 c 128,-1,2
 129 533 129 533 130.5 513.5 c 128,-1,3
 132 494 132 494 133.5 451.5 c 128,-1,4
 135 409 135 409 138 406 c 128,-1,5
 141 403 141 403 138 400 c 0,6,7
 136 397 136 397 139 355.5 c 128,-1,8
 142 314 142 314 144 314 c 256,9,10
 146 314 146 314 150 321 c 0,11,12
 152 325 152 325 156.5 326 c 128,-1,13
 161 327 161 327 178 326 c 0,14,15
 186 326 186 326 190.5 326 c 128,-1,16
 195 326 195 326 197.5 326.5 c 128,-1,17
 200 327 200 327 201 328 c 128,-1,18
 202 329 202 329 202 331 c 0,19,20
 202 336 202 336 209 334 c 0,21,22
 227 328 227 328 254 327.5 c 128,-1,23
 281 327 281 327 307.5 331.5 c 128,-1,24
 334 336 334 336 350 344 c 0,25,26
 362 350 362 350 367 350 c 0,27,28
 375 350 375 350 417 373.5 c 128,-1,29
 459 397 459 397 463 404 c 0,30,31
 466 409 466 409 474 417 c 0,32,33
 505 446 505 446 495 505 c 0,34,35
 492 523 492 523 485.5 535 c 128,-1,36
 479 547 479 547 464 564 c 0,37,38
 432 598 432 598 357 625 c 0,39,40
 335 632 335 632 325.5 633.5 c 128,-1,41
 316 635 316 635 283 635 c 0,42,43
 228 634 228 634 202 627 c 0,44,45
 182 623 182 623 153 617 c 0,46,47
 125 612 125 612 122 610 c 128,-1,48
 119 608 119 608 123 595 c 0,0,1
64 649 m 0,49,50
 83 704 83 704 88 707 c 0,51,52
 91 710 91 710 96 706 c 0,53,54
 105 699 105 699 120 694 c 0,55,56
 126 692 126 692 221 711 c 0,57,58
 255 717 255 717 297 718 c 128,-1,59
 339 719 339 719 365 712 c 0,60,61
 413 698 413 698 421 692 c 0,62,63
 424 690 424 690 434 686 c 0,64,65
 446 682 446 682 492 651 c 0,66,67
 513 638 513 638 532 604.5 c 128,-1,68
 551 571 551 571 555 543 c 0,69,70
 560 498 560 498 550 469 c 0,71,72
 526 402 526 402 495 358 c 0,73,74
 487 347 487 347 464.5 328 c 128,-1,75
 442 309 442 309 436 308 c 0,76,77
 431 308 431 308 430.5 306.5 c 128,-1,78
 430 305 430 305 434 299 c 0,79,80
 438 290 438 290 440.5 288.5 c 128,-1,81
 443 287 443 287 453 269.5 c 128,-1,82
 463 252 463 252 465 250 c 0,83,84
 468 248 468 248 486 214 c 128,-1,85
 504 180 504 180 504 176 c 0,86,87
 504 173 504 173 514.5 159.5 c 128,-1,88
 525 146 525 146 525 143.5 c 128,-1,89
 525 141 525 141 535.5 129 c 128,-1,90
 546 117 546 117 546 114 c 128,-1,91
 546 111 546 111 554 99 c 0,92,93
 559 92 559 92 560 85.5 c 128,-1,94
 561 79 561 79 559.5 71 c 128,-1,95
 558 63 558 63 552 50 c 0,96,97
 548 38 548 38 538.5 29.5 c 128,-1,98
 529 21 529 21 521 21 c 0,99,100
 518 21 518 21 497.5 50 c 128,-1,101
 477 79 477 79 477 83 c 0,102,103
 477 85 477 85 471 91.5 c 128,-1,104
 465 98 465 98 450 128 c 0,105,106
 416 192 416 192 387 232 c 0,107,108
 380 240 380 240 377 254.5 c 128,-1,109
 374 269 374 269 378 274 c 256,110,111
 382 279 382 279 378 280 c 2,112,-1
 370 278 l 2,113,114
 363 274 363 274 354 269 c 0,115,116
 330 256 330 256 295 248 c 128,-1,117
 260 240 260 240 248 244 c 0,118,119
 243 246 243 246 232 246 c 128,-1,120
 221 246 221 246 209.5 245 c 128,-1,121
 198 244 198 244 191 241 c 0,122,123
 183 238 183 238 164 238 c 2,124,-1
 145 238 l 1,125,-1
 146 202 l 2,126,127
 147 165 147 165 149 163 c 0,128,129
 150 159 150 159 149.5 146 c 128,-1,130
 149 133 149 133 148 118.5 c 128,-1,131
 147 104 147 104 146 103 c 0,132,133
 144 101 144 101 147 98 c 0,134,135
 149 94 149 94 147.5 82.5 c 128,-1,136
 146 71 146 71 142 54.5 c 128,-1,137
 138 38 138 38 133 26 c 0,138,139
 128 15 128 15 118 9.5 c 128,-1,140
 108 4 108 4 103 10 c 0,141,142
 99 15 99 15 99 33 c 128,-1,143
 99 51 99 51 97.5 53.5 c 128,-1,144
 96 56 96 56 100.5 72.5 c 128,-1,145
 105 89 105 89 103 104 c 0,146,147
 99 148 99 148 97 181 c 0,148,149
 93 247 93 247 96 249 c 0,150,151
 102 253 102 253 92 311 c 0,152,153
 88 335 88 335 85 409 c 0,154,155
 81 515 81 515 75 528 c 0,156,157
 74 533 74 533 73 545 c 0,158,159
 68 606 68 606 63 620 c 0,160,161
 60 629 60 629 60 633 c 128,-1,162
 60 637 60 637 64 649 c 0,49,50
EndSplineSet
Validated: 33
EndChar

StartChar: S
Encoding: 83 83 21
Width: 598
Flags: W
LayerCount: 2
Fore
SplineSet
71 481 m 128,-1,1
 73 485 73 485 72 490.5 c 128,-1,2
 71 496 71 496 75 502.5 c 128,-1,3
 79 509 79 509 77 517 c 128,-1,4
 75 525 75 525 76.5 526.5 c 128,-1,5
 78 528 78 528 79 537 c 0,6,7
 79 548 79 548 93 575 c 128,-1,8
 107 602 107 602 118 614 c 0,9,10
 127 623 127 623 127 625.5 c 128,-1,11
 127 628 127 628 138.5 640 c 128,-1,12
 150 652 150 652 156.5 658.5 c 128,-1,13
 163 665 163 665 172 663 c 2,14,-1
 177 663 l 1,15,16
 177 663 177 663 175 664 c 0,17,18
 169 667 169 667 174 669 c 2,19,-1
 178 671 l 2,20,21
 186 675 186 675 202.5 675.5 c 128,-1,22
 219 676 219 676 233 680 c 0,23,24
 250 686 250 686 280.5 687.5 c 128,-1,25
 311 689 311 689 319 685 c 0,26,27
 324 682 324 682 334.5 681 c 128,-1,28
 345 680 345 680 347 682 c 0,29,30
 348 685 348 685 355.5 685 c 128,-1,31
 363 685 363 685 363 682 c 256,32,33
 363 679 363 679 358.5 680.5 c 128,-1,34
 354 682 354 682 354 680 c 256,35,36
 354 678 354 678 372.5 673 c 128,-1,37
 391 668 391 668 397 668 c 0,38,39
 401 668 401 668 399 670.5 c 128,-1,40
 397 673 397 673 399 673 c 128,-1,41
 401 673 401 673 411 669 c 0,42,43
 418 664 418 664 418 662 c 0,44,45
 414 659 414 659 423 655 c 0,46,47
 440 646 440 646 431 627 c 0,48,49
 427 620 427 620 427 617 c 0,50,51
 427 613 427 613 415 601 c 128,-1,52
 403 589 403 589 398 589 c 256,53,54
 393 589 393 589 387 593 c 0,55,56
 382 597 382 597 368.5 602 c 128,-1,57
 355 607 355 607 352 606 c 256,58,59
 349 605 349 605 340.5 607.5 c 128,-1,60
 332 610 332 610 329 612 c 0,61,62
 324 616 324 616 297.5 620 c 128,-1,63
 271 624 271 624 261 622 c 0,64,65
 247 620 247 620 240 620 c 0,66,67
 231 618 231 618 203 610 c 128,-1,68
 175 602 175 602 167 597 c 0,69,70
 132 579 132 579 123 537 c 0,71,72
 118 515 118 515 118.5 504.5 c 128,-1,73
 119 494 119 494 118 491 c 128,-1,74
 117 488 117 488 119 484 c 0,75,76
 132 451 132 451 132 440 c 0,77,78
 132 434 132 434 143.5 422.5 c 128,-1,79
 155 411 155 411 169 404 c 0,80,81
 209 383 209 383 274 375 c 0,82,83
 314 370 314 370 348 374 c 0,84,85
 418 383 418 383 440 373 c 0,86,87
 464 362 464 362 487.5 335.5 c 128,-1,88
 511 309 511 309 522 280 c 0,89,90
 528 264 528 264 527 236 c 0,91,92
 526 197 526 197 519.5 173.5 c 128,-1,93
 513 150 513 150 492 106 c 0,94,95
 479 80 479 80 479 78 c 256,96,97
 479 76 479 76 469.5 64 c 128,-1,98
 460 52 460 52 458 50 c 0,99,100
 455 48 455 48 452 41 c 0,101,102
 450 37 450 37 441 30.5 c 128,-1,103
 432 24 432 24 421 18.5 c 128,-1,104
 410 13 410 13 402 11 c 0,105,106
 370 4 370 4 316 9 c 0,107,108
 291 12 291 12 265.5 9 c 128,-1,109
 240 6 240 6 236.5 8.5 c 128,-1,110
 233 11 233 11 212 13 c 0,111,112
 187 15 187 15 167 21 c 0,113,114
 156 24 156 24 141.5 31 c 128,-1,115
 127 38 127 38 127 40.5 c 128,-1,116
 127 43 127 43 112 51 c 128,-1,117
 97 59 97 59 94.5 65.5 c 128,-1,118
 92 72 92 72 88 76 c 0,119,120
 80 83 80 83 88 91 c 0,121,122
 92 97 92 97 92 109 c 128,-1,123
 92 121 92 121 94.5 124 c 128,-1,124
 97 127 97 127 99 136.5 c 128,-1,125
 101 146 101 146 108 151 c 0,126,127
 113 154 113 154 116.5 152 c 128,-1,128
 120 150 120 150 135 135 c 0,129,130
 154 115 154 115 169 107 c 0,131,132
 182 100 182 100 208 93.5 c 128,-1,133
 234 87 234 87 253 86 c 0,134,135
 300 84 300 84 303 86 c 0,136,137
 306 87 306 87 332 84 c 0,138,139
 367 80 367 80 396.5 86 c 128,-1,140
 426 92 426 92 441 107 c 0,141,142
 450 116 450 116 456 129 c 128,-1,143
 462 142 462 142 461 149 c 0,144,145
 460 153 460 153 462 153 c 2,146,-1
 465 159 l 2,147,148
 470 176 470 176 470 196 c 0,149,150
 470 210 470 210 473 210 c 0,151,152
 478 210 478 210 461 244 c 0,153,154
 447 272 447 272 425 285 c 0,155,156
 409 294 409 294 394.5 295.5 c 128,-1,157
 380 297 380 297 349 293 c 0,158,159
 280 284 280 284 212 299 c 0,160,161
 178 307 178 307 175 309 c 128,-1,162
 172 311 172 311 164 313 c 0,163,164
 155 315 155 315 132.5 331 c 128,-1,165
 110 347 110 347 102 357 c 0,166,167
 87 375 87 375 79 401 c 0,168,169
 74 416 74 416 71.5 439 c 128,-1,170
 69 462 69 462 71.5 467 c 128,-1,171
 74 472 74 472 71.5 474.5 c 128,-1,0
 69 477 69 477 71 481 c 128,-1,1
EndSplineSet
Validated: 33
EndChar

StartChar: T
Encoding: 84 84 22
Width: 722
Flags: W
LayerCount: 2
Fore
SplineSet
59 623 m 0,0,1
 67 637 67 637 69 649 c 128,-1,2
 71 661 71 661 81 671 c 0,3,4
 89 679 89 679 94 680.5 c 128,-1,5
 99 682 99 682 120 683 c 0,6,7
 175 683 175 683 228 687 c 0,8,9
 255 689 255 689 305 690 c 128,-1,10
 355 691 355 691 377 694.5 c 128,-1,11
 399 698 399 698 424 700 c 256,12,13
 449 702 449 702 477 704 c 0,14,15
 529 709 529 709 630 709 c 0,16,17
 642 709 642 709 646.5 708.5 c 128,-1,18
 651 708 651 708 654 706 c 128,-1,19
 657 704 657 704 660 700 c 0,20,21
 668 691 668 691 668 685 c 128,-1,22
 668 679 668 679 661 663 c 0,23,24
 646 627 646 627 637 624 c 0,25,26
 619 617 619 617 513 616 c 0,27,28
 462 616 462 616 426 612 c 2,29,-1
 390 608 l 1,30,-1
 391 585 l 2,31,32
 392 563 392 563 394.5 547 c 128,-1,33
 397 531 397 531 395 464 c 0,34,35
 391 280 391 280 399 267 c 0,36,37
 401 264 401 264 403 196 c 128,-1,38
 405 128 405 128 405 88 c 0,39,40
 405 58 405 58 400.5 54.5 c 128,-1,41
 396 51 396 51 395.5 44 c 128,-1,42
 395 37 395 37 389.5 24.5 c 128,-1,43
 384 12 384 12 373 8.5 c 128,-1,44
 362 5 362 5 358 2 c 0,45,46
 356 1 356 1 353.5 3.5 c 128,-1,47
 351 6 351 6 349.5 11.5 c 128,-1,48
 348 17 348 17 348 21.5 c 128,-1,49
 348 26 348 26 346 35.5 c 128,-1,50
 344 45 344 45 347 53.5 c 128,-1,51
 350 62 350 62 348.5 63.5 c 128,-1,52
 347 65 347 65 345.5 166.5 c 128,-1,53
 344 268 344 268 342 279 c 128,-1,54
 340 290 340 290 339.5 366.5 c 128,-1,55
 339 443 339 443 343 446.5 c 128,-1,56
 347 450 347 450 344 454 c 128,-1,57
 341 458 341 458 341 470 c 0,58,59
 339 510 339 510 332 549 c 0,60,61
 329 564 329 564 327 582 c 2,62,-1
 325 600 l 1,63,-1
 269 599 l 2,64,65
 214 599 214 599 210 596.5 c 128,-1,66
 206 594 206 594 150 594 c 128,-1,67
 94 594 94 594 80.5 591.5 c 128,-1,68
 67 589 67 589 62 593 c 0,69,70
 55 601 55 601 54 606.5 c 128,-1,71
 53 612 53 612 59 623 c 0,0,1
EndSplineSet
Validated: 33
EndChar

StartChar: U
Encoding: 85 85 23
Width: 799
Flags: W
LayerCount: 2
Fore
SplineSet
101 678 m 128,-1,1
 111 703 111 703 114.5 712 c 128,-1,2
 118 721 118 721 124 724 c 0,3,4
 129 726 129 726 135.5 718.5 c 128,-1,5
 142 711 142 711 142 703 c 256,6,7
 142 695 142 695 145 693.5 c 128,-1,8
 148 692 148 692 147 648 c 0,9,10
 145 605 145 605 145.5 545.5 c 128,-1,11
 146 486 146 486 147 478 c 0,12,13
 149 469 149 469 154 435 c 0,14,15
 159 400 159 400 162.5 393.5 c 128,-1,16
 166 387 166 387 166 377 c 128,-1,17
 166 367 166 367 171.5 352.5 c 128,-1,18
 177 338 177 338 175 333.5 c 128,-1,19
 173 329 173 329 178.5 319 c 128,-1,20
 184 309 184 309 184 301 c 128,-1,21
 184 293 184 293 189 286.5 c 128,-1,22
 194 280 194 280 194 273.5 c 128,-1,23
 194 267 194 267 203 253 c 128,-1,24
 212 239 212 239 210 237 c 256,25,26
 208 235 208 235 215.5 220.5 c 128,-1,27
 223 206 223 206 231 196 c 0,28,29
 241 183 241 183 258.5 166 c 128,-1,30
 276 149 276 149 292 135.5 c 128,-1,31
 308 122 308 122 315 120 c 0,32,33
 331 113 331 113 376.5 107.5 c 128,-1,34
 422 102 422 102 449 104 c 0,35,36
 503 107 503 107 521 119 c 0,37,38
 524 121 524 121 538 126 c 0,39,40
 574 138 574 138 596 171 c 0,41,42
 608 189 608 189 612 202.5 c 128,-1,43
 616 216 616 216 618 245 c 0,44,45
 621 273 621 273 625 290 c 0,46,47
 631 310 631 310 634 340.5 c 128,-1,48
 637 371 637 371 635.5 394 c 128,-1,49
 634 417 634 417 629 417 c 0,50,51
 625 418 625 418 631 422 c 128,-1,52
 637 426 637 426 641 476.5 c 128,-1,53
 645 527 645 527 648.5 528.5 c 128,-1,54
 652 530 652 530 648.5 533.5 c 128,-1,55
 645 537 645 537 644 578 c 0,56,57
 641 637 641 637 630 637 c 0,58,59
 628 637 628 637 638 647.5 c 128,-1,60
 648 658 648 658 650 669 c 0,61,62
 653 682 653 682 658 697 c 128,-1,63
 663 712 663 712 666 714 c 256,64,65
 669 716 669 716 680 703 c 0,66,67
 691 691 691 691 694 686.5 c 128,-1,68
 697 682 697 682 698 673 c 0,69,70
 700 663 700 663 704 661.5 c 128,-1,71
 708 660 708 660 704 655.5 c 128,-1,72
 700 651 700 651 702 634.5 c 128,-1,73
 704 618 704 618 700.5 615.5 c 128,-1,74
 697 613 697 613 699 610 c 0,75,76
 702 604 702 604 702 577 c 128,-1,77
 702 550 702 550 699 531 c 0,78,79
 694 504 694 504 693 460 c 0,80,81
 691 321 691 321 681 306 c 0,82,83
 679 303 679 303 678 288 c 0,84,85
 664 153 664 153 636 114 c 0,86,87
 627 101 627 101 627 95 c 256,88,89
 627 89 627 89 602 67.5 c 128,-1,90
 577 46 577 46 560 38 c 0,91,92
 521 19 521 19 469.5 10 c 128,-1,93
 418 1 418 1 388 8 c 0,94,95
 374 11 374 11 341 15 c 0,96,97
 306 19 306 19 285 29.5 c 128,-1,98
 264 40 264 40 232 70 c 0,99,100
 205 95 205 95 191.5 112.5 c 128,-1,101
 178 130 178 130 162 161 c 0,102,103
 147 189 147 189 143 188 c 256,104,105
 139 187 139 187 138.5 190 c 128,-1,106
 138 193 138 193 142 196.5 c 128,-1,107
 146 200 146 200 140 215 c 0,108,109
 111 290 111 290 91 449 c 0,110,111
 90 463 90 463 93 503.5 c 128,-1,112
 96 544 96 544 93 547 c 128,-1,113
 90 550 90 550 93.5 560.5 c 128,-1,114
 97 571 97 571 96.5 582 c 128,-1,115
 96 593 96 593 93 593 c 0,116,117
 89 593 89 593 90 623 c 128,-1,0
 91 653 91 653 101 678 c 128,-1,1
EndSplineSet
Validated: 33
EndChar

StartChar: V
Encoding: 86 86 24
Width: 717
Flags: W
LayerCount: 2
Fore
SplineSet
51 643 m 0,0,1
 54 653 54 653 76 700 c 0,2,3
 83 713 83 713 86 712 c 0,4,5
 88 709 88 709 97.5 702.5 c 128,-1,6
 107 696 107 696 110.5 687.5 c 128,-1,7
 114 679 114 679 117 679 c 256,8,9
 120 679 120 679 128 672 c 128,-1,10
 136 665 136 665 142.5 656.5 c 128,-1,11
 149 648 149 648 149 645 c 0,12,13
 149 639 149 639 159.5 629 c 128,-1,14
 170 619 170 619 170 616 c 128,-1,15
 170 613 170 613 180.5 597.5 c 128,-1,16
 191 582 191 582 191 578 c 128,-1,17
 191 574 191 574 202.5 556 c 128,-1,18
 214 538 214 538 232 503 c 0,19,20
 258 451 258 451 264 436 c 0,21,22
 269 425 269 425 271.5 425 c 128,-1,23
 274 425 274 425 274 421.5 c 128,-1,24
 274 418 274 418 291 392.5 c 128,-1,25
 308 367 308 367 326 333 c 0,26,27
 374 241 374 241 390 214 c 0,28,29
 400 197 400 197 405 186 c 128,-1,30
 410 175 410 175 415.5 170.5 c 128,-1,31
 421 166 421 166 421 163 c 0,32,33
 421 159 421 159 433.5 138.5 c 128,-1,34
 446 118 446 118 449 118 c 256,35,36
 452 118 452 118 452 124 c 128,-1,37
 452 130 452 130 459 148 c 0,38,39
 466 168 466 168 483 244 c 0,40,41
 491 277 491 277 496 292 c 0,42,43
 519 366 519 366 517 369 c 256,44,45
 515 372 515 372 524 398 c 0,46,47
 540 445 540 445 574 574 c 0,48,49
 577 584 577 584 582.5 595.5 c 128,-1,50
 588 607 588 607 588 615 c 0,51,52
 588 619 588 619 590 627 c 128,-1,53
 592 635 592 635 596 643.5 c 128,-1,54
 600 652 600 652 604.5 661 c 128,-1,55
 609 670 609 670 613 676 c 0,56,57
 619 686 619 686 619 691 c 128,-1,58
 619 696 619 696 624 700 c 128,-1,59
 629 704 629 704 631 714 c 0,60,61
 637 738 637 738 654 722 c 0,62,63
 673 704 673 704 664 682 c 0,64,65
 658 671 658 671 654 658.5 c 128,-1,66
 650 646 650 646 645.5 641 c 128,-1,67
 641 636 641 636 636.5 618.5 c 128,-1,68
 632 601 632 601 629.5 597.5 c 128,-1,69
 627 594 627 594 623 573 c 128,-1,70
 619 552 619 552 612.5 534.5 c 128,-1,71
 606 517 606 517 603.5 500 c 128,-1,72
 601 483 601 483 597 474 c 128,-1,73
 593 465 593 465 586.5 437 c 128,-1,74
 580 409 580 409 564.5 353.5 c 128,-1,75
 549 298 549 298 548 289 c 0,76,77
 545 274 545 274 525 195 c 0,78,79
 521 179 521 179 512 155 c 0,80,81
 483 71 483 71 486 68 c 0,82,83
 488 66 488 66 483.5 60.5 c 128,-1,84
 479 55 479 55 484.5 55 c 128,-1,85
 490 55 490 55 490 51.5 c 128,-1,86
 490 48 490 48 485 50 c 0,87,88
 481 51 481 51 468 36 c 128,-1,89
 455 21 455 21 455 15 c 0,90,91
 455 11 455 11 443 5.5 c 128,-1,92
 431 0 431 0 426 2 c 0,93,94
 411 8 411 8 375 73 c 0,95,96
 353 113 353 113 344 127 c 128,-1,97
 335 141 335 141 325 160 c 128,-1,98
 315 179 315 179 309 188 c 128,-1,99
 303 197 303 197 272.5 258 c 128,-1,100
 242 319 242 319 227 343 c 128,-1,101
 212 367 212 367 191 407 c 0,102,103
 141 505 141 505 120.5 539.5 c 128,-1,104
 100 574 100 574 84 591 c 0,105,106
 47 627 47 627 48 634 c 0,107,108
 48 636 48 636 51 643 c 0,0,1
EndSplineSet
Validated: 33
EndChar

StartChar: W
Encoding: 87 87 25
Width: 949
Flags: W
LayerCount: 2
Fore
SplineSet
56.5 603 m 128,-1,1
 63 617 63 617 63 622 c 128,-1,2
 63 627 63 627 67.5 628.5 c 128,-1,3
 72 630 72 630 76 642 c 128,-1,4
 80 654 80 654 81 656 c 0,5,6
 84 661 84 661 102 638 c 0,7,8
 108 631 108 631 110 627 c 0,9,10
 116 615 116 615 119 610 c 0,11,12
 131 589 131 589 175 492 c 0,13,14
 187 466 187 466 195 448 c 0,15,16
 207 421 207 421 217 404.5 c 128,-1,17
 227 388 227 388 234 374 c 0,18,19
 255 329 255 329 273 300 c 0,20,21
 286 278 286 278 317 218 c 0,22,23
 368 118 368 118 371 118 c 0,24,25
 372 118 372 118 376.5 128.5 c 128,-1,26
 381 139 381 139 387 154.5 c 128,-1,27
 393 170 393 170 397 183 c 0,28,29
 403 203 403 203 406 206.5 c 128,-1,30
 409 210 409 210 416.5 229.5 c 128,-1,31
 424 249 424 249 433 269 c 128,-1,32
 442 289 442 289 447 304 c 2,33,-1
 452 319 l 1,34,-1
 441 339 l 2,35,36
 427 363 427 363 403 402 c 0,37,38
 380 439 380 439 390 439 c 0,39,40
 394 439 394 439 400.5 453.5 c 128,-1,41
 407 468 407 468 410 468 c 128,-1,42
 413 468 413 468 411.5 475 c 128,-1,43
 410 482 410 482 417 492 c 2,44,-1
 425 501 l 1,45,-1
 435 491 l 2,46,47
 442 484 442 484 460 457.5 c 128,-1,48
 478 431 478 431 484 418 c 0,49,50
 485 416 485 416 486.5 414 c 128,-1,51
 488 412 488 412 489 411 c 128,-1,52
 490 410 490 410 491 410 c 0,53,54
 493 411 493 411 511.5 446.5 c 128,-1,55
 530 482 530 482 537.5 492 c 128,-1,56
 545 502 545 502 552 516 c 0,57,58
 562 532 562 532 565 525 c 0,59,60
 565 521 565 521 573 517 c 0,61,62
 582 513 582 513 581.5 498.5 c 128,-1,63
 581 484 581 484 571.5 467.5 c 128,-1,64
 562 451 562 451 562 446.5 c 128,-1,65
 562 442 562 442 558.5 440 c 128,-1,66
 555 438 555 438 551 428 c 0,67,68
 538 399 538 399 527 386 c 0,69,70
 515 371 515 371 532 344 c 0,71,72
 544 323 544 323 548.5 317.5 c 128,-1,73
 553 312 553 312 551 310 c 128,-1,74
 549 308 549 308 555.5 303 c 128,-1,75
 562 298 562 298 572 278 c 0,76,77
 593 238 593 238 616 205 c 0,78,79
 640 170 640 170 654 132 c 0,80,81
 657 126 657 126 663 140 c 2,82,-1
 665 144 l 2,83,84
 673 161 673 161 678.5 184 c 128,-1,85
 684 207 684 207 688.5 215 c 128,-1,86
 693 223 693 223 694 233 c 0,87,88
 695 250 695 250 711 298 c 0,89,90
 720 323 720 323 726 345 c 0,91,92
 736 381 736 381 744 401 c 0,93,94
 746 408 746 408 763 461.5 c 128,-1,95
 780 515 780 515 785 527.5 c 128,-1,96
 790 540 790 540 789.5 544 c 128,-1,97
 789 548 789 548 800.5 577.5 c 128,-1,98
 812 607 812 607 812 611 c 128,-1,99
 812 615 812 615 818.5 619 c 128,-1,100
 825 623 825 623 825 632.5 c 128,-1,101
 825 642 825 642 829.5 646 c 128,-1,102
 834 650 834 650 834 654 c 128,-1,103
 834 658 834 658 844 669 c 2,104,-1
 854 680 l 1,105,-1
 863 669 l 2,106,107
 881 651 881 651 867 622 c 0,108,109
 861 609 861 609 857 591 c 128,-1,110
 853 573 853 573 850 569.5 c 128,-1,111
 847 566 847 566 840.5 542 c 128,-1,112
 834 518 834 518 810 445 c 0,113,114
 755 279 755 279 751 257 c 0,115,116
 750 247 750 247 737.5 209.5 c 128,-1,117
 725 172 725 172 719 159 c 0,118,119
 714 147 714 147 710.5 130 c 128,-1,120
 707 113 707 113 704.5 109.5 c 128,-1,121
 702 106 702 106 696.5 86.5 c 128,-1,122
 691 67 691 67 677 38 c 0,123,124
 668 19 668 19 663.5 13 c 128,-1,125
 659 7 659 7 652 5 c 0,126,127
 633 -2 633 -2 625 14 c 0,128,129
 621 22 621 22 625 32 c 0,130,131
 629 41 629 41 627.5 43.5 c 128,-1,132
 626 46 626 46 618 46 c 0,133,134
 605 46 605 46 600 69 c 0,135,136
 595 88 595 88 573 127 c 0,137,138
 569 136 569 136 559 145 c 0,139,140
 543 163 543 163 543 175 c 0,141,142
 543 181 543 181 536.5 186.5 c 128,-1,143
 530 192 530 192 524.5 205 c 128,-1,144
 519 218 519 218 516.5 218 c 128,-1,145
 514 218 514 218 498.5 245.5 c 128,-1,146
 483 273 483 273 480 272 c 128,-1,147
 477 271 477 271 468 247 c 128,-1,148
 459 223 459 223 452 210 c 128,-1,149
 445 197 445 197 445 193 c 128,-1,150
 445 189 445 189 440 179 c 128,-1,151
 435 169 435 169 431 154 c 0,152,153
 421 120 421 120 400 75 c 0,154,155
 390 53 390 53 390 49.5 c 128,-1,156
 390 46 390 46 383 32.5 c 128,-1,157
 376 19 376 19 375.5 18 c 128,-1,158
 375 17 375 17 368.5 16 c 128,-1,159
 362 15 362 15 357.5 11.5 c 128,-1,160
 353 8 353 8 344.5 6 c 128,-1,161
 336 4 336 4 334 10 c 0,162,163
 328 30 328 30 311 67 c 0,164,165
 306 77 306 77 294.5 95 c 128,-1,166
 283 113 283 113 283 115 c 0,167,168
 283 119 283 119 269.5 150.5 c 128,-1,169
 256 182 256 182 252 186 c 0,170,171
 245 195 245 195 216 247.5 c 128,-1,172
 187 300 187 300 160.5 350 c 128,-1,173
 134 400 134 400 134 404 c 256,174,175
 134 408 134 408 126 423 c 128,-1,176
 118 438 118 438 118 442 c 128,-1,177
 118 446 118 446 106.5 463.5 c 128,-1,178
 95 481 95 481 88.5 498 c 128,-1,179
 82 515 82 515 66 546 c 128,-1,180
 50 577 50 577 50 583 c 128,-1,0
 50 589 50 589 56.5 603 c 128,-1,1
EndSplineSet
Validated: 33
EndChar

StartChar: X
Encoding: 88 88 26
Width: 625
Flags: W
LayerCount: 2
Fore
SplineSet
73.5 28 m 128,-1,1
 79 36 79 36 79 47 c 128,-1,2
 79 58 79 58 82 59.5 c 128,-1,3
 85 61 85 61 85 66.5 c 128,-1,4
 85 72 85 72 107.5 106 c 128,-1,5
 130 140 130 140 139 155 c 0,6,7
 147 171 147 171 155 184 c 0,8,9
 182 233 182 233 204 268 c 0,10,11
 217 288 217 288 217 289.5 c 128,-1,12
 217 291 217 291 231 311.5 c 128,-1,13
 245 332 245 332 248 339 c 128,-1,14
 251 346 251 346 254.5 351 c 128,-1,15
 258 356 258 356 250.5 366 c 128,-1,16
 243 376 243 376 245 380 c 0,17,18
 246 383 246 383 245 383.5 c 128,-1,19
 244 384 244 384 242 383 c 0,20,21
 238 382 238 382 229 394 c 0,22,23
 204 430 204 430 158 486 c 0,24,25
 144 503 144 503 131.5 520.5 c 128,-1,26
 119 538 119 538 112 545.5 c 128,-1,27
 105 553 105 553 105 555 c 128,-1,28
 105 557 105 557 91 575.5 c 128,-1,29
 77 594 77 594 77 598 c 128,-1,30
 77 602 77 602 88 622.5 c 128,-1,31
 99 643 99 643 99 647 c 128,-1,32
 99 651 99 651 106.5 653 c 128,-1,33
 114 655 114 655 114 657 c 0,34,35
 114 663 114 663 120 659 c 0,36,37
 123 657 123 657 124 655 c 0,38,39
 127 649 127 649 138 635 c 0,40,41
 161 607 161 607 175 580 c 0,42,43
 178 574 178 574 181 574 c 128,-1,44
 184 574 184 574 193.5 558.5 c 128,-1,45
 203 543 203 543 207.5 539 c 128,-1,46
 212 535 212 535 220.5 524 c 128,-1,47
 229 513 229 513 239 502 c 128,-1,48
 249 491 249 491 249 489.5 c 128,-1,49
 249 488 249 488 261 472 c 128,-1,50
 273 456 273 456 285.5 440.5 c 128,-1,51
 298 425 298 425 299 425 c 0,52,53
 304 425 304 425 330 475 c 0,54,55
 344 501 344 501 356.5 521.5 c 128,-1,56
 369 542 369 542 369 544 c 0,57,58
 369 547 369 547 383 573.5 c 128,-1,59
 397 600 397 600 400 603 c 0,60,61
 405 607 405 607 405.5 613 c 128,-1,62
 406 619 406 619 419 643 c 128,-1,63
 432 667 432 667 432 670.5 c 128,-1,64
 432 674 432 674 437.5 680.5 c 128,-1,65
 443 687 443 687 448 698 c 128,-1,66
 453 709 453 709 454 709 c 0,67,68
 457 709 457 709 466 698 c 128,-1,69
 475 687 475 687 475 682 c 0,70,71
 475 670 475 670 460 638 c 0,72,73
 452 620 452 620 452 618.5 c 128,-1,74
 452 617 452 617 442 600 c 0,75,76
 437 592 437 592 432.5 582 c 128,-1,77
 428 572 428 572 426 564 c 128,-1,78
 424 556 424 556 425 554 c 0,79,80
 426 553 426 553 423 551 c 0,81,82
 422 551 422 551 421 550 c 0,83,84
 415 549 415 549 404 526.5 c 128,-1,85
 393 504 393 504 388 500 c 128,-1,86
 383 496 383 496 383 492.5 c 128,-1,87
 383 489 383 489 373.5 473 c 128,-1,88
 364 457 364 457 359 443 c 128,-1,89
 354 429 354 429 343 410 c 128,-1,90
 332 391 332 391 332 384.5 c 128,-1,91
 332 378 332 378 340.5 368 c 128,-1,92
 349 358 349 358 349 356 c 128,-1,93
 349 354 349 354 358 344.5 c 128,-1,94
 367 335 367 335 378 320 c 0,95,96
 416 271 416 271 436 249 c 0,97,98
 454 229 454 229 458 222.5 c 128,-1,99
 462 216 462 216 480 197 c 0,100,101
 490 185 490 185 503 169.5 c 128,-1,102
 516 154 516 154 527 140 c 128,-1,103
 538 126 538 126 546 115 c 128,-1,104
 554 104 554 104 555 101 c 0,105,106
 556 95 556 95 553 91.5 c 128,-1,107
 550 88 550 88 550 79 c 128,-1,108
 550 70 550 70 545.5 66.5 c 128,-1,109
 541 63 541 63 540 54 c 0,110,111
 538 47 538 47 536 46 c 128,-1,112
 534 45 534 45 524 44 c 0,113,114
 510 44 510 44 505 49 c 0,115,116
 484 72 484 72 467 99 c 0,117,118
 461 107 461 107 434 139.5 c 128,-1,119
 407 172 407 172 398 181 c 0,120,121
 391 188 391 188 372 211 c 128,-1,122
 353 234 353 234 337 253 c 128,-1,123
 321 272 321 272 315 282 c 0,124,125
 309 290 309 290 298.5 302.5 c 128,-1,126
 288 315 288 315 285 316 c 0,127,128
 284 314 284 314 283 312 c 0,129,130
 283 308 283 308 276 300 c 128,-1,131
 269 292 269 292 264.5 280.5 c 128,-1,132
 260 269 260 269 245 246 c 0,133,134
 218 206 218 206 222 201 c 1,135,-1
 221 199 l 2,136,137
 218 201 218 201 209.5 189 c 128,-1,138
 201 177 201 177 195 163.5 c 128,-1,139
 189 150 189 150 192 147 c 256,140,141
 195 144 195 144 193 142 c 128,-1,142
 191 140 191 140 189 143 c 0,143,144
 186 148 186 148 176 131 c 0,145,146
 171 122 171 122 172 119 c 0,147,148
 174 115 174 115 171 113.5 c 128,-1,149
 168 112 168 112 168 105 c 0,150,151
 168 100 168 100 167.5 99.5 c 128,-1,152
 167 99 167 99 164 101 c 0,153,154
 160 104 160 104 158.5 99.5 c 128,-1,155
 157 95 157 95 158.5 91 c 128,-1,156
 160 87 160 87 156.5 81 c 128,-1,157
 153 75 153 75 150 75 c 0,158,159
 145 75 145 75 145 71.5 c 128,-1,160
 145 68 145 68 138 59 c 128,-1,161
 131 50 131 50 131 47 c 128,-1,162
 131 44 131 44 127 42.5 c 128,-1,163
 123 41 123 41 117 29 c 0,164,165
 107 6 107 6 86 6 c 0,166,167
 75 6 75 6 71.5 13 c 128,-1,0
 68 20 68 20 73.5 28 c 128,-1,1
EndSplineSet
Validated: 33
EndChar

StartChar: Y
Encoding: 89 89 27
Width: 580
Flags: W
LayerCount: 2
Fore
SplineSet
77 650 m 128,-1,1
 84 658 84 658 84.5 665 c 128,-1,2
 85 672 85 672 92.5 681 c 128,-1,3
 100 690 100 690 100 696 c 128,-1,4
 100 702 100 702 104.5 702 c 128,-1,5
 109 702 109 702 119 693 c 128,-1,6
 129 684 129 684 133 676 c 0,7,8
 149 645 149 645 244 530 c 0,9,10
 270 499 270 499 286 476 c 0,11,12
 300 456 300 456 305.5 449.5 c 128,-1,13
 311 443 311 443 324 432 c 0,14,15
 337 422 337 422 338 414 c 128,-1,16
 339 406 339 406 343 406.5 c 128,-1,17
 347 407 347 407 349 415 c 0,18,19
 352 424 352 424 356 433 c 0,20,21
 362 444 362 444 373.5 477 c 128,-1,22
 385 510 385 510 389 526 c 0,23,24
 393 539 393 539 419 597 c 128,-1,25
 445 655 445 655 449 660 c 0,26,27
 454 665 454 665 460 678.5 c 128,-1,28
 466 692 466 692 470.5 696 c 128,-1,29
 475 700 475 700 475 702.5 c 128,-1,30
 475 705 475 705 482 712 c 2,31,-1
 489 720 l 1,32,-1
 497 709 l 2,33,34
 505 697 505 697 505 693 c 0,35,36
 505 679 505 679 483 634 c 0,37,38
 472 612 472 612 464.5 593.5 c 128,-1,39
 457 575 457 575 454 568 c 0,40,41
 446 551 446 551 434 511 c 0,42,43
 428 492 428 492 426 486 c 0,44,45
 417 454 417 454 391 400 c 0,46,47
 380 376 380 376 364 343 c 256,48,49
 348 310 348 310 339 289 c 0,50,51
 329 268 329 268 323 254.5 c 128,-1,52
 317 241 317 241 302 208 c 128,-1,53
 287 175 287 175 278.5 155.5 c 128,-1,54
 270 136 270 136 263.5 121 c 128,-1,55
 257 106 257 106 253 96 c 0,56,57
 247 78 247 78 231.5 47.5 c 128,-1,58
 216 17 216 17 210 13 c 0,59,60
 201 4 201 4 185 5 c 0,61,62
 179 6 179 6 177.5 15.5 c 128,-1,63
 176 25 176 25 178.5 28.5 c 128,-1,64
 181 32 181 32 179 34 c 128,-1,65
 177 36 177 36 183.5 46.5 c 128,-1,66
 190 57 190 57 190 61.5 c 128,-1,67
 190 66 190 66 205 98 c 0,68,69
 229 148 229 148 238 169 c 0,70,71
 243 184 243 184 258 215.5 c 128,-1,72
 273 247 273 247 281.5 268 c 128,-1,73
 290 289 290 289 297 302.5 c 128,-1,74
 304 316 304 316 303.5 322.5 c 128,-1,75
 303 329 303 329 295 338 c 0,76,77
 286 348 286 348 286 351 c 128,-1,78
 286 354 286 354 282 354 c 256,79,80
 278 354 278 354 268.5 365 c 128,-1,81
 259 376 259 376 259 381 c 128,-1,82
 259 386 259 386 254 389 c 0,83,84
 248 392 248 392 213 444 c 0,85,86
 203 458 203 458 185.5 479.5 c 128,-1,87
 168 501 168 501 166 501 c 256,88,89
 164 501 164 501 141.5 529 c 128,-1,90
 119 557 119 557 100 583 c 0,91,92
 70 624 70 624 70 638 c 0,93,0
 70 642 70 642 77 650 c 128,-1,1
EndSplineSet
Validated: 1
EndChar

StartChar: Z
Encoding: 90 90 28
Width: 745
Flags: W
LayerCount: 2
Fore
SplineSet
76 -4 m 0,0,1
 83 2 83 2 82 8 c 0,2,3
 81 13 81 13 84.5 22.5 c 128,-1,4
 88 32 88 32 93.5 40.5 c 128,-1,5
 99 49 99 49 103 50 c 0,6,7
 109 51 109 51 139.5 86 c 128,-1,8
 170 121 170 121 191 143 c 0,9,10
 298 257 298 257 377 372 c 0,11,12
 402 408 402 408 443 454 c 0,13,14
 457 470 457 470 468 484 c 0,15,16
 474 493 474 493 489 514 c 128,-1,17
 504 535 504 535 516 552 c 128,-1,18
 528 569 528 569 528 570 c 256,19,20
 528 571 528 571 505 573 c 0,21,22
 482 574 482 574 439 571 c 128,-1,23
 396 568 396 568 376 563 c 0,24,25
 354 558 354 558 325.5 557.5 c 128,-1,26
 297 557 297 557 286 555 c 0,27,28
 268 551 268 551 232 548 c 128,-1,29
 196 545 196 545 192 547 c 256,30,31
 188 549 188 549 180 545.5 c 128,-1,32
 172 542 172 542 135.5 542 c 128,-1,33
 99 542 99 542 92 548 c 0,34,35
 81 558 81 558 90 565 c 0,36,37
 94 569 94 569 96 578 c 0,38,39
 98 586 98 586 107.5 603 c 128,-1,40
 117 620 117 620 121 623 c 0,41,42
 125 625 125 625 129 623 c 0,43,44
 134 622 134 622 186.5 625.5 c 128,-1,45
 239 629 239 629 278 635 c 0,46,47
 325 641 325 641 349 641 c 128,-1,48
 373 641 373 641 375.5 643 c 128,-1,49
 378 645 378 645 385 646 c 0,50,51
 391 646 391 646 431 651 c 0,52,53
 470 657 470 657 529.5 658 c 128,-1,54
 589 659 589 659 602 661 c 0,55,56
 611 663 611 663 614.5 661.5 c 128,-1,57
 618 660 618 660 626 652 c 0,58,59
 639 641 639 641 637.5 630 c 128,-1,60
 636 619 636 619 618 584 c 0,61,62
 615 578 615 578 605 576 c 0,63,64
 585 572 585 572 583 566 c 0,65,66
 581 561 581 561 570 548.5 c 128,-1,67
 559 536 559 536 544.5 514 c 128,-1,68
 530 492 530 492 527.5 491 c 128,-1,69
 525 490 525 490 516 473 c 0,70,71
 497 440 497 440 429 362 c 0,72,73
 416 347 416 347 411.5 338 c 128,-1,74
 407 329 407 329 399 322.5 c 128,-1,75
 391 316 391 316 390 312 c 0,76,77
 387 307 387 307 361 269 c 128,-1,78
 335 231 335 231 328 223 c 0,79,80
 318 212 318 212 311 202 c 0,81,82
 280 160 280 160 253 133 c 0,83,84
 243 123 243 123 243 120.5 c 128,-1,85
 243 118 243 118 218 94 c 0,86,87
 195 70 195 70 200 70 c 0,88,89
 201 70 201 70 203 71 c 0,90,91
 213 73 213 73 241 77.5 c 128,-1,92
 269 82 269 82 275.5 83.5 c 128,-1,93
 282 85 282 85 311.5 87 c 128,-1,94
 341 89 341 89 358.5 92 c 128,-1,95
 376 95 376 95 392.5 96.5 c 128,-1,96
 409 98 409 98 429 101 c 0,97,98
 471 108 471 108 556 109 c 0,99,100
 611 110 611 110 627 113 c 0,101,102
 639 115 639 115 644 114 c 128,-1,103
 649 113 649 113 661 103 c 0,104,105
 668 97 668 97 669.5 86.5 c 128,-1,106
 671 76 671 76 666 70 c 0,107,108
 660 63 660 63 660 56 c 0,109,110
 660 50 660 50 652.5 42 c 128,-1,111
 645 34 645 34 636 30 c 0,112,113
 630 27 630 27 619 26 c 0,114,115
 609 26 609 26 585 22 c 0,116,117
 563 20 563 20 557 20 c 128,-1,118
 551 20 551 20 520 23 c 0,119,120
 477 27 477 27 453 21 c 0,121,122
 443 19 443 19 393 15 c 0,123,124
 370 13 370 13 352.5 10 c 128,-1,125
 335 7 335 7 304 4 c 0,126,127
 244 -3 244 -3 222.5 -7 c 128,-1,128
 201 -11 201 -11 125 -30 c 0,129,130
 84 -40 84 -40 75 -33 c 0,131,132
 70 -29 70 -29 70 -27.5 c 128,-1,133
 70 -26 70 -26 74 -23 c 0,134,135
 80 -18 80 -18 75 -16 c 0,136,137
 66 -13 66 -13 76 -4 c 0,0,1
EndSplineSet
Validated: 33
EndChar

StartChar: a
Encoding: 97 97 29
Width: 450
Flags: W
LayerCount: 2
Fore
SplineSet
32 14 m 0,0,1
 34 23 34 23 35 24 c 0,2,3
 38 30 38 30 38 35 c 0,4,5
 40 44 40 44 43 49 c 128,-1,6
 46 54 46 54 46 58 c 0,7,8
 46 63 46 63 48 69 c 0,9,10
 80 135 80 135 81 139 c 0,11,12
 91 164 91 164 98 177 c 0,13,14
 121 230 121 230 132 267 c 0,15,16
 133 270 133 270 135 277 c 128,-1,17
 137 284 137 284 137 285 c 0,18,19
 142 290 142 290 150 317 c 0,20,21
 153 326 153 326 158 340 c 128,-1,22
 163 354 163 354 164 356 c 0,23,24
 175 387 175 387 179 391 c 0,25,26
 180 392 180 392 180 396 c 0,27,28
 180 398 180 398 186 412 c 0,29,30
 204 449 204 449 222 504 c 0,31,32
 237 549 237 549 241 549 c 0,33,34
 251 549 251 549 251 541 c 0,35,36
 251 536 251 536 256 534 c 0,37,38
 259 533 259 533 266 518 c 0,39,40
 285 475 285 475 285 465 c 0,41,42
 285 459 285 459 286 458 c 0,43,44
 289 453 289 453 294 428 c 0,45,46
 297 419 297 419 306.5 385 c 128,-1,47
 316 351 316 351 318 345 c 0,48,49
 330 307 330 307 332 298 c 0,50,51
 354 214 354 214 360 197 c 0,52,53
 363 189 363 189 365.5 181 c 128,-1,54
 368 173 368 173 370 168 c 128,-1,55
 372 163 372 163 373.5 158.5 c 128,-1,56
 375 154 375 154 375.5 151 c 128,-1,57
 376 148 376 148 377 146 c 128,-1,58
 378 144 378 144 378 143 c 0,59,60
 378 141 378 141 386 121 c 2,61,-1
 394 102 l 2,62,63
 394 99 394 99 397 90 c 0,64,65
 397 88 397 88 400.5 76.5 c 128,-1,66
 404 65 404 65 406 59 c 128,-1,67
 408 53 408 53 411.5 42.5 c 128,-1,68
 415 32 415 32 415 31 c 0,69,70
 419 24 419 24 419 17 c 128,-1,71
 419 10 419 10 415 6 c 0,72,73
 410 1 410 1 400 1 c 0,74,75
 393 1 393 1 391.5 2 c 128,-1,76
 390 3 390 3 389 8 c 0,77,78
 387 14 387 14 385 16 c 0,79,80
 384 18 384 18 382 28 c 0,81,82
 379 40 379 40 377 46 c 0,83,84
 377 47 377 47 373 60.5 c 128,-1,85
 369 74 369 74 367 82 c 2,86,-1
 360 106 l 1,87,-1
 230 106 l 2,88,89
 164 106 164 106 156 109 c 0,90,91
 151 112 151 112 150 131 c 2,92,-1
 150 150 l 1,93,-1
 158 151 l 1,94,-1
 178 151 l 2,95,96
 208 151 208 151 213 150 c 0,97,98
 216 150 216 150 230 152 c 0,99,100
 245 152 245 152 246 150 c 0,101,102
 248 147 248 147 254 151 c 0,103,104
 260 156 260 156 276 156 c 0,105,106
 294 156 294 156 297 153 c 0,107,108
 301 151 301 151 302 152 c 0,109,110
 302 154 302 154 322 154 c 2,111,-1
 341 155 l 2,112,113
 342 156 342 156 338 167 c 0,114,115
 332 184 332 184 328 200 c 0,116,117
 321 221 321 221 319 225 c 0,118,119
 316 234 316 234 315 238 c 0,120,121
 314 245 314 245 311 253 c 0,122,123
 309 260 309 260 305 280 c 0,124,125
 305 281 305 281 296 312 c 0,126,127
 292 322 292 322 287 341 c 0,128,129
 284 354 284 354 279 366 c 0,130,131
 267 416 267 416 260 445 c 0,132,133
 252 481 252 481 247 481 c 0,134,135
 245 479 245 479 245 476 c 0,136,137
 245 472 245 472 242 466 c 0,138,139
 242 465 242 465 240 461 c 128,-1,140
 238 457 238 457 236.5 452.5 c 128,-1,141
 235 448 235 448 234 444 c 0,142,143
 233 441 233 441 232 438 c 128,-1,144
 231 435 231 435 230.5 433 c 128,-1,145
 230 431 230 431 229 429 c 2,146,-1
 228 427 l 2,147,148
 227 426 227 426 217 400 c 0,149,150
 206 373 206 373 193 341 c 0,151,152
 182 316 182 316 176 303 c 0,153,154
 172 291 172 291 170 283 c 0,155,156
 166 265 166 265 162 258 c 0,157,158
 158 252 158 252 144 211 c 0,159,160
 140 200 140 200 132.5 181 c 128,-1,161
 125 162 125 162 124 158 c 0,162,163
 115 144 115 144 115 139 c 0,164,165
 114 137 114 137 78 61 c 2,166,-1
 56 16 l 2,167,168
 53 12 53 12 51 9 c 0,169,170
 47 3 47 3 41 3 c 0,171,172
 28 3 28 3 32 14 c 0,0,1
EndSplineSet
Validated: 1
EndChar

StartChar: b
Encoding: 98 98 30
Width: 409
Flags: W
LayerCount: 2
Fore
SplineSet
61 449 m 0,0,1
 62 445 62 445 63 439.5 c 128,-1,2
 64 434 64 434 64.5 430.5 c 128,-1,3
 65 427 65 427 65.5 423.5 c 128,-1,4
 66 420 66 420 66 419 c 0,5,6
 66 411 66 411 70 397 c 0,7,8
 71 391 71 391 72 378.5 c 128,-1,9
 73 366 73 366 75 355 c 0,10,11
 76 345 76 345 76 296 c 2,12,-1
 76 268 l 2,13,14
 75 265 75 265 75 253 c 0,15,16
 75 236 75 236 76 229 c 0,17,18
 78 177 78 177 78 125 c 0,19,20
 78 72 78 72 76 70 c 0,21,22
 74 67 74 67 75 60.5 c 128,-1,23
 76 54 76 54 78 54 c 2,24,-1
 81 57 l 2,25,26
 83 59 83 59 96 55 c 0,27,28
 117 48 117 48 164 48 c 0,29,30
 178 48 178 48 183 49 c 0,31,32
 197 51 197 51 209 51 c 0,33,34
 260 57 260 57 286 69 c 0,35,36
 292 71 292 71 302 77.5 c 128,-1,37
 312 84 312 84 312 86 c 2,38,-1
 319 95 l 2,39,40
 337 113 337 113 339 132 c 0,41,42
 339 134 339 134 339.5 136.5 c 128,-1,43
 340 139 340 139 340 141 c 2,44,-1
 341 143 l 1,45,-1
 341 144 l 2,46,47
 341 146 341 146 340.5 148 c 128,-1,48
 340 150 340 150 339 151 c 2,49,-1
 336 158 l 2,50,51
 336 161 336 161 324.5 178.5 c 128,-1,52
 313 196 313 196 311 198 c 2,53,-1
 303 202 l 1,54,55
 256 234 256 234 195 248 c 0,56,57
 149 261 149 261 142 263 c 0,58,59
 131 266 131 266 125 266 c 2,60,-1
 115 266 l 2,61,62
 101 264 101 264 91 266 c 2,63,-1
 82 267 l 1,64,-1
 82 286 l 2,65,66
 82 305 82 305 87 308 c 0,67,68
 93 312 93 312 96 310 c 0,69,70
 98 309 98 309 118 311 c 0,71,72
 136 315 136 315 141 315 c 0,73,74
 149 315 149 315 158 318 c 0,75,76
 168 322 168 322 170 322 c 0,77,78
 173 322 173 322 179 326 c 128,-1,79
 185 330 185 330 186 330 c 128,-1,80
 187 330 187 330 189.5 331 c 128,-1,81
 192 332 192 332 196 333.5 c 128,-1,82
 200 335 200 335 203 336 c 0,83,84
 230 350 230 350 250 389 c 0,85,86
 256 401 256 401 257 420 c 0,87,88
 257 433 257 433 254.5 439 c 128,-1,89
 252 445 252 445 238 463 c 0,90,91
 228 476 228 476 218 482 c 0,92,93
 192 498 192 498 186 500 c 0,94,95
 176 505 176 505 174 507 c 0,96,97
 162 514 162 514 135 514 c 2,98,-1
 131 514 l 2,99,100
 123 512 123 512 100 512 c 0,101,102
 78 510 78 510 76 508 c 0,103,104
 73 507 73 507 71 507 c 0,105,106
 65 507 65 507 60 502 c 0,107,108
 56 498 56 498 56 490 c 0,109,110
 56 489 56 489 61 449 c 0,0,1
25 530 m 0,111,112
 27 543 27 543 29.5 546 c 128,-1,113
 32 549 32 549 39 549 c 0,114,115
 51 551 51 551 65 551 c 0,116,117
 84 551 84 551 89 553 c 0,118,119
 103 556 103 556 133 556 c 0,120,121
 149 556 149 556 153 555 c 0,122,123
 184 551 184 551 203 539 c 0,124,125
 221 530 221 530 223 530 c 128,-1,126
 225 530 225 530 247.5 506.5 c 128,-1,127
 270 483 270 483 272 478 c 0,128,129
 276 472 276 472 279 469 c 0,130,131
 281 465 281 465 285 453 c 128,-1,132
 289 441 289 441 289 420 c 0,133,134
 289 386 289 386 281 373 c 0,135,136
 280 370 280 370 276 363.5 c 128,-1,137
 272 357 272 357 272 356 c 0,138,139
 271 355 271 355 267 348.5 c 128,-1,140
 263 342 263 342 261 340 c 0,141,142
 241 315 241 315 221 299 c 0,143,144
 216 296 216 296 216 294 c 0,145,146
 216 289 216 289 247 281 c 0,147,148
 286 271 286 271 330 232 c 0,149,150
 349 215 349 215 359 191 c 0,151,152
 372 167 372 167 372 147 c 2,153,-1
 372 137 l 2,154,155
 372 110 372 110 365 96 c 0,156,157
 362 94 362 94 358 85 c 0,158,159
 356 79 356 79 345 65 c 128,-1,160
 334 51 334 51 326 45 c 0,161,162
 313 33 313 33 299 27 c 0,163,164
 293 22 293 22 267.5 15.5 c 128,-1,165
 242 9 242 9 229 8 c 0,166,167
 217 6 217 6 211 4 c 0,168,169
 201 2 201 2 171 2 c 0,170,171
 148 2 148 2 139 3 c 0,172,173
 99 6 99 6 89 11 c 0,174,175
 74 19 74 19 72 16 c 0,176,177
 72 14 72 14 61 10 c 0,178,179
 52 6 52 6 52 4 c 2,180,-1
 51 2 l 1,181,182
 44 2 44 2 44 52 c 0,183,184
 44 72 44 72 45 80 c 0,185,186
 46 87 46 87 46 114 c 2,187,-1
 46 131 l 2,188,189
 46 135 46 135 45.5 183 c 128,-1,190
 45 231 45 231 45 264 c 0,191,192
 45 366 45 366 44 367 c 0,193,194
 42 370 42 370 38 401 c 0,195,196
 37 408 37 408 35.5 417 c 128,-1,197
 34 426 34 426 33 434.5 c 128,-1,198
 32 443 32 443 32 445 c 0,199,200
 29 458 29 458 24 511 c 0,201,202
 24 524 24 524 25 530 c 0,111,112
EndSplineSet
Validated: 1
EndChar

StartChar: c
Encoding: 99 99 31
Width: 462
Flags: W
LayerCount: 2
Fore
SplineSet
47 278 m 0,0,1
 50 295 50 295 53 313 c 0,2,3
 63 379 63 379 90 433 c 0,4,5
 94 441 94 441 104 449 c 0,6,7
 113 456 113 456 113 459 c 0,8,9
 113 464 113 464 128.5 480 c 128,-1,10
 144 496 144 496 155 502 c 128,-1,11
 166 508 166 508 173 513 c 0,12,13
 177 517 177 517 197 524 c 128,-1,14
 217 531 217 531 232 533 c 0,15,16
 253 536 253 536 275 542 c 0,17,18
 284 545 284 545 290 542 c 0,19,20
 292 541 292 541 297.5 540.5 c 128,-1,21
 303 540 303 540 309 540 c 128,-1,22
 315 540 315 540 322 540 c 0,23,24
 331 540 331 540 337.5 540 c 128,-1,25
 344 540 344 540 347 541 c 0,26,27
 353 544 353 544 353 540 c 0,28,29
 353 537 353 537 354 538 c 0,30,31
 356 540 356 540 365 537 c 128,-1,32
 374 534 374 534 376 531 c 0,33,34
 379 528 379 528 379 522 c 0,35,36
 379 517 379 517 383 513 c 0,37,38
 386 509 386 509 380 499 c 2,39,-1
 374 491 l 1,40,-1
 329 491 l 2,41,42
 282 491 282 491 269 487 c 0,43,44
 265 486 265 486 254.5 484 c 128,-1,45
 244 482 244 482 240 481 c 0,46,47
 195 473 195 473 154 435 c 0,48,49
 141 422 141 422 126 401.5 c 128,-1,50
 111 381 111 381 108 371 c 0,51,52
 108 370 108 370 107 366.5 c 128,-1,53
 106 363 106 363 104.5 358.5 c 128,-1,54
 103 354 103 354 101 350 c 0,55,56
 85 310 85 310 85 282 c 0,57,58
 85 272 85 272 82 264 c 0,59,60
 79 254 79 254 79 244 c 128,-1,61
 79 234 79 234 82 220 c 0,62,63
 83 216 83 216 84.5 204.5 c 128,-1,64
 86 193 86 193 87 189 c 0,65,66
 94 145 94 145 120 117 c 0,67,68
 134 102 134 102 151 93.5 c 128,-1,69
 168 85 168 85 209 73 c 0,70,71
 215 71 215 71 225.5 68.5 c 128,-1,72
 236 66 236 66 239 65 c 0,73,74
 248 62 248 62 259.5 61 c 128,-1,75
 271 60 271 60 283 60 c 0,76,77
 290 60 290 60 296 60.5 c 128,-1,78
 302 61 302 61 305 62 c 0,79,80
 318 67 318 67 332 70 c 0,81,82
 347 73 347 73 367 83 c 128,-1,83
 387 93 387 93 389 93 c 0,84,85
 392 93 392 93 412 70 c 0,86,87
 414 67 414 67 416 59 c 0,88,89
 417 54 417 54 413 43.5 c 128,-1,90
 409 33 409 33 406 33 c 2,91,-1
 403 32 l 2,92,93
 400 30 400 30 394.5 28 c 128,-1,94
 389 26 389 26 385 24 c 0,95,96
 347 6 347 6 290 2 c 0,97,98
 280 2 280 2 275 2 c 0,99,100
 260 2 260 2 231 9 c 0,101,102
 183 20 183 20 148 40 c 0,103,104
 144 42 144 42 137 46 c 128,-1,105
 130 50 130 50 128 51 c 0,106,107
 119 55 119 55 105.5 68 c 128,-1,108
 92 81 92 81 88 89 c 0,109,110
 85 95 85 95 79 103 c 0,111,112
 76 107 76 107 71 117 c 0,113,114
 67 125 67 125 63 129 c 128,-1,115
 59 133 59 133 56 169 c 0,116,117
 54 182 54 182 52 184 c 0,118,119
 49 187 49 187 48.5 192.5 c 128,-1,120
 48 198 48 198 50 199 c 0,121,122
 53 201 53 201 49 205 c 256,123,124
 45 209 45 209 45 247 c 0,125,126
 45 253 45 253 45.5 259 c 128,-1,127
 46 265 46 265 46 270 c 128,-1,128
 46 275 46 275 47 278 c 0,0,1
EndSplineSet
Validated: 1
EndChar

StartChar: d
Encoding: 100 100 32
Width: 477
Flags: W
LayerCount: 2
Fore
SplineSet
84.75 407.25 m 0,0,1
 87.75 387.75 87.75 387.75 88.875 369 c 128,-1,2
 90 350.25 90 350.25 91.125 334.875 c 128,-1,3
 92.25 319.5 92.25 319.5 93 244.5 c 0,4,5
 94.5 155.25 94.5 155.25 97.5 80.25 c 0,6,7
 98.25 62.25 98.25 62.25 99.75 60.75 c 128,-1,8
 101.25 59.25 101.25 59.25 117 59.25 c 0,9,10
 135 60 135 60 137.625 58.5 c 128,-1,11
 140.25 57 140.25 57 141.375 59.25 c 128,-1,12
 142.5 61.5 142.5 61.5 159.75 64.875 c 128,-1,13
 177 68.25 177 68.25 188.25 72.375 c 128,-1,14
 199.5 76.5 199.5 76.5 201.75 77.25 c 0,15,16
 204.75 78 204.75 78 206.625 79.125 c 128,-1,17
 208.5 80.25 208.5 80.25 207.75 81 c 0,18,19
 207 82.5 207 82.5 210 94.5 c 0,20,21
 211.5 102 211.5 102 211.875 102.375 c 128,-1,22
 212.25 102.75 212.25 102.75 211.5 97.5 c 0,23,24
 210.75 89.25 210.75 89.25 209.25 84.75 c 0,25,26
 208.5 81.75 208.5 81.75 209.625 81.375 c 128,-1,27
 210.75 81 210.75 81 215.25 81.75 c 0,28,29
 222 83.25 222 83.25 229.5 87 c 128,-1,30
 237 90.75 237 90.75 238.5 89.625 c 128,-1,31
 240 88.5 240 88.5 254.25 93.375 c 128,-1,32
 268.5 98.25 268.5 98.25 270.75 100.875 c 128,-1,33
 273 103.5 273 103.5 276.75 103.5 c 0,34,35
 283.5 103.5 283.5 103.5 300.75 115.125 c 128,-1,36
 318 126.75 318 126.75 318.75 131.25 c 0,37,38
 318.75 132.75 318.75 132.75 327.375 139.5 c 128,-1,39
 336 146.25 336 146.25 344.625 157.125 c 128,-1,40
 353.25 168 353.25 168 359.25 174.75 c 0,41,42
 378 194.25 378 194.25 381 215.25 c 0,43,44
 381.75 220.5 381.75 220.5 386.25 228.75 c 0,45,46
 390.75 235.5 390.75 235.5 390.75 243 c 128,-1,47
 390.75 250.5 390.75 250.5 386.625 251.625 c 128,-1,48
 382.5 252.75 382.5 252.75 387 257.25 c 0,49,50
 390 261 390 261 390.375 267.75 c 128,-1,51
 390.75 274.5 390.75 274.5 387.75 297 c 0,52,53
 386.25 306.75 386.25 306.75 381 321.375 c 128,-1,54
 375.75 336 375.75 336 368.25 350.25 c 128,-1,55
 360.75 364.5 360.75 364.5 354 373.5 c 0,56,57
 345.75 384 345.75 384 339 393 c 0,58,59
 331.5 403.5 331.5 403.5 314.25 419.625 c 128,-1,60
 297 435.75 297 435.75 285.75 442.5 c 0,61,62
 246.75 465.75 246.75 465.75 211.5 474 c 0,63,64
 192.75 479.25 192.75 479.25 157.5 477.75 c 0,65,66
 99.75 475.5 99.75 475.5 90.75 473.25 c 0,67,68
 85.5 471.75 85.5 471.75 84.75 474 c 0,69,70
 81 479.25 81 479.25 80.25 470.25 c 0,71,72
 78 451.5 78 451.5 84.75 407.25 c 0,0,1
46.125 498.375 m 128,-1,74
 48 504 48 504 49.125 511.875 c 128,-1,75
 50.25 519.75 50.25 519.75 57.75 525.75 c 128,-1,76
 65.25 531.75 65.25 531.75 70.5 529.5 c 0,77,78
 74.25 527.25 74.25 527.25 96 527.25 c 128,-1,79
 117.75 527.25 117.75 527.25 117.75 529.5 c 256,80,81
 117.75 531.75 117.75 531.75 152.25 531.75 c 128,-1,82
 186.75 531.75 186.75 531.75 201.75 529.5 c 0,83,84
 237 523.5 237 523.5 252 514.5 c 0,85,86
 256.5 511.5 256.5 511.5 258.75 511.5 c 0,87,88
 264 511.5 264 511.5 284.625 499.875 c 128,-1,89
 305.25 488.25 305.25 488.25 318.75 477.75 c 0,90,91
 332.25 466.5 332.25 466.5 339.375 462 c 128,-1,92
 346.5 457.5 346.5 457.5 353.25 450 c 0,93,94
 381.75 416.25 381.75 416.25 381.75 412.5 c 0,95,96
 381.75 410.25 381.75 410.25 393.75 385.5 c 0,97,98
 414.75 342.75 414.75 342.75 417.75 322.5 c 0,99,100
 422.25 296.25 422.25 296.25 422.25 259.5 c 128,-1,101
 422.25 222.75 422.25 222.75 418.5 206.25 c 0,102,103
 414.75 191.25 414.75 191.25 402 166.125 c 128,-1,104
 389.25 141 389.25 141 379.5 129.75 c 0,105,106
 369 116.25 369 116.25 369 114.75 c 0,107,108
 369 111.75 369 111.75 348.75 92.25 c 128,-1,109
 328.5 72.75 328.5 72.75 322.5 69 c 0,110,111
 314.25 65.25 314.25 65.25 314.25 62.25 c 0,112,113
 314.25 58.5 314.25 58.5 296.25 56.25 c 0,114,115
 281.25 53.25 281.25 53.25 268.5 45 c 0,116,117
 264 42 264 42 255.375 40.5 c 128,-1,118
 246.75 39 246.75 39 241.5 36 c 0,119,120
 217.5 24 217.5 24 212.25 24 c 0,121,122
 208.5 24 208.5 24 204.75 22.5 c 0,123,124
 191.25 15.75 191.25 15.75 177.75 14.25 c 0,125,126
 165.75 13.5 165.75 13.5 160.875 11.25 c 128,-1,127
 156 9 156 9 146.25 7.875 c 128,-1,128
 136.5 6.75 136.5 6.75 134.25 6 c 0,129,130
 130.5 3.75 130.5 3.75 117 3.375 c 128,-1,131
 103.5 3 103.5 3 96 5.25 c 0,132,133
 87 8.25 87 8.25 81.75 13.125 c 128,-1,134
 76.5 18 76.5 18 79.5 21 c 0,135,136
 81.75 24 81.75 24 79.875 26.25 c 128,-1,137
 78 28.5 78 28.5 73.5 28.5 c 256,138,139
 69 28.5 69 28.5 67.5 34.875 c 128,-1,140
 66 41.25 66 41.25 64.5 66 c 0,141,142
 62.25 121.5 62.25 121.5 60 126 c 0,143,144
 58.5 128.25 58.5 128.25 59.25 151.5 c 0,145,146
 60 175.5 60 175.5 59.625 238.5 c 128,-1,147
 59.25 301.5 59.25 301.5 58.5 318.75 c 0,148,149
 57 336.75 57 336.75 55.875 357.75 c 128,-1,150
 54.75 378.75 54.75 378.75 51.375 398.625 c 128,-1,151
 48 418.5 48 418.5 47.25 433.875 c 128,-1,152
 46.5 449.25 46.5 449.25 45.375 471 c 128,-1,73
 44.25 492.75 44.25 492.75 46.125 498.375 c 128,-1,74
EndSplineSet
Validated: 33
EndChar

StartChar: e
Encoding: 101 101 33
Width: 417
Flags: W
LayerCount: 2
Fore
SplineSet
40.5 495.75 m 0,0,1
 46.5 518.25 46.5 518.25 56.25 523.5 c 0,2,3
 60.75 525.75 60.75 525.75 79.875 525.75 c 128,-1,4
 99 525.75 99 525.75 102 523.5 c 0,5,6
 104.25 521.25 104.25 521.25 105.75 522.75 c 0,7,8
 108 525 108 525 156.75 525 c 0,9,10
 207 525 207 525 208.5 526.5 c 2,11,-1
 225 528 l 2,12,13
 238.5 528 238.5 528 255 529.5 c 0,14,15
 267 531.75 267 531.75 293.25 533.25 c 0,16,17
 317.25 534.75 317.25 534.75 318.75 535.5 c 0,18,19
 322.5 537 322.5 537 327.75 532.875 c 128,-1,20
 333 528.75 333 528.75 332.25 525.75 c 0,21,22
 332.25 522 332.25 522 335.25 519 c 0,23,24
 339 515.25 339 515.25 340.5 501 c 0,25,26
 342 490.5 342 490.5 341.25 487.5 c 128,-1,27
 340.5 484.5 340.5 484.5 336 480.75 c 0,28,29
 332.25 477 332.25 477 330 476.25 c 128,-1,30
 327.75 475.5 327.75 475.5 322.5 475.5 c 0,31,32
 320.25 475.5 320.25 475.5 318 475.5 c 128,-1,33
 315.75 475.5 315.75 475.5 312 475.5 c 2,34,-1
 306.75 475.5 l 2,35,36
 294 475.5 294 475.5 275.625 473.625 c 128,-1,37
 257.25 471.75 257.25 471.75 241.5 469.5 c 0,38,39
 237.75 469.5 237.75 469.5 223.875 468.75 c 128,-1,40
 210 468 210 468 191.625 467.625 c 128,-1,41
 173.25 467.25 173.25 467.25 161.25 467.25 c 0,42,43
 159 467.25 159 467.25 157.125 467.25 c 128,-1,44
 155.25 467.25 155.25 467.25 153.75 467.25 c 128,-1,45
 152.25 467.25 152.25 467.25 150.75 467.25 c 0,46,47
 148.5 467.25 148.5 467.25 133.5 467.625 c 128,-1,48
 118.5 468 118.5 468 108.75 468 c 0,49,50
 78 468 78 468 75 469.5 c 0,51,52
 74.25 469.5 74.25 469.5 74.25 469.5 c 2,53,54
 72 469.5 72 469.5 72 460.5 c 0,55,56
 72 452.25 72 452.25 74.25 423.75 c 0,57,58
 76.5 402 76.5 402 78 360 c 0,59,60
 80.25 302.25 80.25 302.25 81 291.375 c 128,-1,61
 81.75 280.5 81.75 280.5 84.75 280.5 c 0,62,63
 85.5 280.5 85.5 280.5 85.5 280.5 c 1,64,65
 116.25 283.5 116.25 283.5 174 291.75 c 0,66,67
 198.75 295.5 198.75 295.5 220.5 297.75 c 128,-1,68
 242.25 300 242.25 300 254.25 300 c 0,69,70
 258.75 300 258.75 300 261.75 299.625 c 128,-1,71
 264.75 299.25 264.75 299.25 265.5 298.5 c 0,72,73
 273 294.75 273 294.75 273 275.25 c 0,74,75
 273 272.25 273 272.25 273 269.25 c 0,76,77
 272.25 252.75 272.25 252.75 266.25 247.5 c 128,-1,78
 260.25 242.25 260.25 242.25 234 242.25 c 0,79,80
 198.75 242.25 198.75 242.25 187.5 239.25 c 0,81,82
 181.5 237.75 181.5 237.75 180 237.75 c 2,83,-1
 165 236.25 l 2,84,85
 153 233.25 153 233.25 121.125 229.125 c 128,-1,86
 89.25 225 89.25 225 83.25 225 c 0,87,88
 82.5 225 82.5 225 82.125 225 c 128,-1,89
 81.75 225 81.75 225 81.375 224.25 c 128,-1,90
 81 223.5 81 223.5 81 222.75 c 128,-1,91
 81 222 81 222 80.625 220.5 c 128,-1,92
 80.25 219 80.25 219 80.25 217.125 c 128,-1,93
 80.25 215.25 80.25 215.25 80.25 212.25 c 128,-1,94
 80.25 209.25 80.25 209.25 79.875 205.125 c 128,-1,95
 79.5 201 79.5 201 79.5 196.5 c 0,96,97
 79.5 183.75 79.5 183.75 80.25 144 c 2,98,-1
 81.75 62.25 l 1,99,100
 81.75 62.25 81.75 62.25 82.125 62.25 c 128,-1,101
 82.5 62.25 82.5 62.25 83.25 62.25 c 0,102,103
 121.5 62.25 121.5 62.25 200.25 68.25 c 0,104,105
 204.75 69 204.75 69 241.5 72 c 0,106,107
 306.75 76.5 306.75 76.5 313.5 78.75 c 0,108,109
 322.5 80.25 322.5 80.25 336.75 81.75 c 2,110,-1
 353.25 83.25 l 1,111,-1
 357 75.75 l 2,112,113
 357.75 75 357.75 75 358.125 73.5 c 128,-1,114
 358.5 72 358.5 72 359.25 70.125 c 128,-1,115
 360 68.25 360 68.25 360.375 66.375 c 128,-1,116
 360.75 64.5 360.75 64.5 360.75 62.625 c 128,-1,117
 360.75 60.75 360.75 60.75 361.125 58.5 c 128,-1,118
 361.5 56.25 361.5 56.25 361.5 54.375 c 128,-1,119
 361.5 52.5 361.5 52.5 361.5 50.25 c 0,120,121
 361.5 42 361.5 42 360 37.5 c 0,122,123
 357 30.75 357 30.75 351.75 28.5 c 0,124,125
 336.75 19.5 336.75 19.5 327.75 19.5 c 0,126,127
 326.25 19.5 326.25 19.5 326.25 20.25 c 0,128,129
 324 22.5 324 22.5 319.5 21 c 0,130,131
 316.5 21 316.5 21 282 18 c 0,132,133
 276.75 17.25 276.75 17.25 255.75 15.75 c 128,-1,134
 234.75 14.25 234.75 14.25 227.25 13.5 c 2,135,-1
 176.25 10.5 l 2,136,137
 142.5 9 142.5 9 123.75 6.75 c 0,138,139
 95.25 5.25 95.25 5.25 86.25 5.25 c 0,140,141
 74.25 5.25 74.25 5.25 73.5 4.5 c 0,142,143
 72 3 72 3 62.25 3 c 2,144,-1
 51.75 3 l 1,145,-1
 51.75 15 l 2,146,147
 50.25 64.5 50.25 64.5 48 74.25 c 0,148,149
 46.5 78 46.5 78 48 81 c 128,-1,150
 49.5 84 49.5 84 49.5 116.25 c 0,151,152
 49.5 140.25 49.5 140.25 48 242.25 c 0,153,154
 47.25 363.75 47.25 363.75 42.75 410.25 c 0,155,156
 40.5 425.25 40.5 425.25 39 447.75 c 0,157,158
 37.5 467.25 37.5 467.25 37.5 473.25 c 128,-1,159
 37.5 479.25 37.5 479.25 40.5 495.75 c 0,0,1
EndSplineSet
Validated: 1
EndChar

StartChar: f
Encoding: 102 102 34
Width: 397
Flags: W
LayerCount: 2
Fore
SplineSet
46.5 486.75 m 0,0,1
 50.25 492.75 50.25 492.75 50.25 504 c 0,2,3
 51.75 515.25 51.75 515.25 55.5 520.5 c 0,4,5
 58.5 524.25 58.5 524.25 61.875 525 c 128,-1,6
 65.25 525.75 65.25 525.75 81.75 525.75 c 0,7,8
 106.5 525.75 106.5 525.75 120 523.5 c 0,9,10
 134.25 521.25 134.25 521.25 175.5 519.75 c 0,11,12
 180 519.75 180 519.75 183.75 519.375 c 128,-1,13
 187.5 519 187.5 519 190.875 519 c 128,-1,14
 194.25 519 194.25 519 196.875 519 c 128,-1,15
 199.5 519 199.5 519 202.5 519 c 0,16,17
 219 519 219 519 232.5 521.25 c 0,18,19
 264 528 264 528 302.25 530.25 c 0,20,21
 312.75 531 312.75 531 319.5 531 c 0,22,23
 341.25 531 341.25 531 342.75 520.5 c 0,24,25
 344.25 514.5 344.25 514.5 345.75 514.5 c 2,26,-1
 346.5 508.5 l 2,27,28
 346.5 492.75 346.5 492.75 343.5 484.5 c 0,29,30
 338.25 472.5 338.25 472.5 332.25 471 c 0,31,32
 327 469.5 327 469.5 319.5 468 c 0,33,34
 310.5 465.75 310.5 465.75 308.25 468 c 2,35,36
 308.25 468 308.25 468 307.125 468.375 c 128,-1,37
 306 468.75 306 468.75 304.875 468.75 c 128,-1,38
 303.75 468.75 303.75 468.75 302.25 468.75 c 128,-1,39
 300.75 468.75 300.75 468.75 299.25 468.75 c 0,40,41
 290.25 468.75 290.25 468.75 276.75 467.625 c 128,-1,42
 263.25 466.5 263.25 466.5 249.75 464.25 c 0,43,44
 213 458.25 213 458.25 186.75 458.25 c 0,45,46
 155.25 459 155.25 459 115.5 463.5 c 0,47,48
 110.25 464.25 110.25 464.25 105.375 464.625 c 128,-1,49
 100.5 465 100.5 465 96.75 465.375 c 128,-1,50
 93 465.75 93 465.75 89.625 465.75 c 128,-1,51
 86.25 465.75 86.25 465.75 84 465.75 c 0,52,53
 79.5 465.75 79.5 465.75 78.75 465 c 256,54,55
 78 464.25 78 464.25 79.5 443.25 c 0,56,57
 79.5 439.5 79.5 439.5 81.75 383.25 c 0,58,59
 81.75 347.25 81.75 347.25 83.25 317.25 c 0,60,61
 84 306 84 306 84 297.375 c 128,-1,62
 84 288.75 84 288.75 83.25 288 c 0,63,64
 81.75 286.5 81.75 286.5 83.25 278.25 c 0,65,66
 85.5 270.75 85.5 270.75 89.25 270.75 c 0,67,68
 90 270.75 90 270.75 93.375 271.5 c 128,-1,69
 96.75 272.25 96.75 272.25 102 272.625 c 128,-1,70
 107.25 273 107.25 273 111 273.75 c 0,71,72
 132 276.75 132 276.75 135.75 277.5 c 0,73,74
 144 280.5 144 280.5 159 282 c 0,75,76
 175.5 284.25 175.5 284.25 177.75 286.5 c 0,77,78
 178.5 288.75 178.5 288.75 183 288.75 c 2,79,-1
 191.25 288.75 l 2,80,81
 192.75 288.75 192.75 288.75 194.25 288.75 c 128,-1,82
 195.75 288.75 195.75 288.75 197.25 288.75 c 0,83,84
 206.25 288.75 206.25 288.75 211.875 287.625 c 128,-1,85
 217.5 286.5 217.5 286.5 220.875 284.25 c 128,-1,86
 224.25 282 224.25 282 226.5 277.5 c 0,87,88
 229.5 271.5 229.5 271.5 225.75 267.75 c 0,89,90
 219.75 261 219.75 261 225.75 261 c 0,91,92
 228.75 261 228.75 261 230.25 257.25 c 0,93,94
 231.75 254.25 231.75 254.25 235.5 254.25 c 0,95,96
 240 254.25 240 254.25 237 249.75 c 0,97,98
 233.25 246 233.25 246 228.75 246 c 0,99,100
 222.75 246 222.75 246 222.75 241.5 c 0,101,102
 221.25 228 221.25 228 206.25 225.75 c 0,103,104
 199.5 225 199.5 225 195.75 222.75 c 2,105,-1
 194.25 222.75 l 2,106,107
 192.75 222.75 192.75 222.75 190.5 222.375 c 128,-1,108
 188.25 222 188.25 222 185.25 221.625 c 128,-1,109
 182.25 221.25 182.25 221.25 178.5 221.25 c 128,-1,110
 174.75 221.25 174.75 221.25 171.75 221.25 c 0,111,112
 147 219.75 147 219.75 140.25 217.5 c 0,113,114
 116.25 211.5 116.25 211.5 105.75 211.5 c 0,115,116
 99.75 211.5 99.75 211.5 96.75 208.5 c 0,117,118
 93 205.5 93 205.5 90 206.25 c 0,119,120
 87.75 207 87.75 207 87 204 c 0,121,122
 87 201.75 87 201.75 86.25 196.5 c 0,123,124
 86.25 190.5 86.25 190.5 84.75 138 c 0,125,126
 84.75 128.25 84.75 128.25 84 96.75 c 128,-1,127
 83.25 65.25 83.25 65.25 82.5 54 c 2,128,-1
 81.75 16.5 l 1,129,-1
 75.75 12 l 2,130,131
 69.75 6 69.75 6 69.75 5.25 c 0,132,133
 69 3.75 69 3.75 69 1.5 c 0,134,135
 68.25 0.75 68.25 0.75 65.25 3.75 c 0,136,137
 61.5 6 61.5 6 57 6 c 0,138,139
 54.75 5.25 54.75 5.25 53.625 5.625 c 128,-1,140
 52.5 6 52.5 6 52.125 7.875 c 128,-1,141
 51.75 9.75 51.75 9.75 51 14.25 c 0,142,143
 49.5 24.75 49.5 24.75 49.5 39.75 c 0,144,145
 51 54 51 54 48.75 57.75 c 0,146,147
 47.25 60 47.25 60 48.75 63 c 0,148,149
 50.25 64.5 50.25 64.5 51.75 80.25 c 0,150,151
 51.75 95.25 51.75 95.25 53.25 96.75 c 0,152,153
 53.25 97.5 53.25 97.5 54 115.125 c 128,-1,154
 54.75 132.75 54.75 132.75 55.5 154.125 c 128,-1,155
 56.25 175.5 56.25 175.5 56.25 185.25 c 0,156,157
 56.25 186.75 56.25 186.75 56.25 188.25 c 128,-1,158
 56.25 189.75 56.25 189.75 56.25 190.5 c 0,159,160
 54 211.5 54 211.5 53.25 213.75 c 0,161,162
 51 216 51 216 54 219 c 0,163,164
 55.5 222 55.5 222 54 225.75 c 0,165,166
 51 228.75 51 228.75 54 231.75 c 0,167,168
 56.25 235.5 56.25 235.5 56.25 260.25 c 0,169,170
 56.25 270 56.25 270 55.875 281.625 c 128,-1,171
 55.5 293.25 55.5 293.25 54.75 307.5 c 0,172,173
 53.25 334.5 53.25 334.5 53.25 353.25 c 0,174,175
 53.25 360 53.25 360 53.25 366.75 c 0,176,177
 53.25 390 53.25 390 52.125 411 c 128,-1,178
 51 432 51 432 49.5 435.75 c 0,179,180
 47.25 441.75 47.25 441.75 50.25 449.25 c 0,181,182
 52.5 457.5 52.5 457.5 49.5 462 c 0,183,184
 45 469.5 45 469.5 45 477.75 c 0,185,186
 45 482.25 45 482.25 46.5 486.75 c 0,0,1
EndSplineSet
Validated: 1
EndChar

StartChar: g
Encoding: 103 103 35
Width: 563
Flags: W
LayerCount: 2
Fore
SplineSet
37.5 222 m 0,0,1
 39 233.25 39 233.25 39.75 246 c 0,2,3
 41.25 267 41.25 267 42.75 277.5 c 0,4,5
 45 284.25 45 284.25 45 288.75 c 0,6,7
 48 305.25 48 305.25 50.25 307.5 c 0,8,9
 52.5 309 52.5 309 52.5 313.5 c 0,10,11
 52.5 322.5 52.5 322.5 66 354.375 c 128,-1,12
 79.5 386.25 79.5 386.25 92.25 408 c 0,13,14
 97.5 416.25 97.5 416.25 109.5 429 c 128,-1,15
 121.5 441.75 121.5 441.75 124.5 441.75 c 128,-1,16
 127.5 441.75 127.5 441.75 127.5 444.75 c 0,17,18
 127.5 450.75 127.5 450.75 161.625 476.625 c 128,-1,19
 195.75 502.5 195.75 502.5 203.25 502.5 c 0,20,21
 207.75 502.5 207.75 502.5 219.75 510 c 0,22,23
 230.25 516.75 230.25 516.75 233.25 516.75 c 2,24,-1
 235.5 517.5 l 2,25,26
 237.75 518.25 237.75 518.25 241.5 520.125 c 128,-1,27
 245.25 522 245.25 522 248.25 522.75 c 0,28,29
 260.25 528 260.25 528 273 529.5 c 0,30,31
 287.25 532.5 287.25 532.5 288.75 534 c 0,32,33
 291.75 536.25 291.75 536.25 309 536.25 c 0,34,35
 324 536.25 324 536.25 343.5 534.75 c 0,36,37
 372 532.5 372 532.5 382.5 525 c 0,38,39
 391.5 519 391.5 519 394.5 519 c 0,40,41
 396 519 396 519 414.375 509.625 c 128,-1,42
 432.75 500.25 432.75 500.25 444 493.5 c 0,43,44
 480 471 480 471 489.75 460.5 c 0,45,46
 499.5 449.25 499.5 449.25 501 435.75 c 0,47,48
 501 432 501 432 501 429 c 0,49,50
 501 421.5 501 421.5 498 417.75 c 128,-1,51
 495 414 495 414 486 412.5 c 0,52,53
 483.75 411.75 483.75 411.75 482.25 411.75 c 0,54,55
 477 411.75 477 411.75 459.75 426.75 c 0,56,57
 410.25 469.5 410.25 469.5 354 483 c 0,58,59
 344.25 485.25 344.25 485.25 315.375 485.25 c 128,-1,60
 286.5 485.25 286.5 485.25 279 483 c 0,61,62
 263.25 478.5 263.25 478.5 255.75 477 c 0,63,64
 216.75 468.75 216.75 468.75 158.25 419.25 c 0,65,66
 133.5 399.75 133.5 399.75 114.75 369.75 c 0,67,68
 108 359.25 108 359.25 99 335.25 c 128,-1,69
 90 311.25 90 311.25 90 304.5 c 0,70,71
 90 301.5 90 301.5 85.5 302.25 c 0,72,73
 81 304.5 81 304.5 81 298.5 c 0,74,75
 81 295.5 81 295.5 78 264 c 0,76,77
 75 238.5 75 238.5 75 227.25 c 0,78,79
 75 213.75 75 213.75 79.5 199.5 c 0,80,81
 84.75 178.5 84.75 178.5 99 157.5 c 0,82,83
 114.75 134.25 114.75 134.25 135.75 115.125 c 128,-1,84
 156.75 96 156.75 96 173.25 90 c 0,85,86
 182.25 86.25 182.25 86.25 187.5 83.25 c 0,87,88
 193.5 78.75 193.5 78.75 198.75 78.75 c 0,89,90
 203.25 78.75 203.25 78.75 208.5 75 c 0,91,92
 212.25 72 212.25 72 227.25 69 c 0,93,94
 228 69 228 69 241.5 66.75 c 128,-1,95
 255 64.5 255 64.5 261 63 c 0,96,97
 285.75 58.5 285.75 58.5 327 58.5 c 0,98,99
 346.5 58.5 346.5 58.5 351 60 c 0,100,101
 352.5 60 352.5 60 356.25 60.75 c 128,-1,102
 360 61.5 360 61.5 363 62.25 c 128,-1,103
 366 63 366 63 369 63 c 0,104,105
 384 64.5 384 64.5 409.5 76.5 c 0,106,107
 420.75 81 420.75 81 420.75 83.25 c 128,-1,108
 420.75 85.5 420.75 85.5 434.25 95.25 c 0,109,110
 460.5 114.75 460.5 114.75 460.5 120.75 c 128,-1,111
 460.5 126.75 460.5 126.75 464.25 132.75 c 2,112,-1
 470.25 144.75 l 2,113,114
 474.75 153 474.75 153 474.75 180 c 0,115,116
 474.75 185.25 474.75 185.25 474 187.5 c 0,117,118
 471 193.5 471 193.5 468.75 193.5 c 0,119,120
 467.25 193.5 467.25 193.5 465.375 200.25 c 128,-1,121
 463.5 207 463.5 207 463.5 212.25 c 0,122,123
 463.5 216 463.5 216 464.25 217.5 c 2,124,125
 464.25 217.5 464.25 217.5 464.25 218.25 c 0,126,127
 464.25 220.5 464.25 220.5 449.25 220.5 c 0,128,129
 444 220.5 444 220.5 434.25 220.5 c 0,130,131
 403.5 220.5 403.5 220.5 400.5 219 c 0,132,133
 396 216.75 396 216.75 384 216.75 c 0,134,135
 339.75 216.75 339.75 216.75 293.25 207 c 0,136,137
 267 202.5 267 202.5 258.75 202.5 c 0,138,139
 252.75 202.5 252.75 202.5 246.75 204.75 c 0,140,141
 239.25 207.75 239.25 207.75 238.5 211.125 c 128,-1,142
 237.75 214.5 237.75 214.5 243.75 222.75 c 0,143,144
 249.75 233.25 249.75 233.25 249.75 234.75 c 0,145,146
 249.75 239.25 249.75 239.25 257.625 249.375 c 128,-1,147
 265.5 259.5 265.5 259.5 270.75 260.25 c 0,148,149
 294.75 266.25 294.75 266.25 354 271.5 c 0,150,151
 437.25 279.75 437.25 279.75 449.25 283.5 c 0,152,153
 461.25 285.75 461.25 285.75 465.75 282.75 c 128,-1,154
 470.25 279.75 470.25 279.75 473.25 282.75 c 0,155,156
 475.5 285 475.5 285 480.75 285 c 0,157,158
 485.25 285 485.25 285 490.875 283.125 c 128,-1,159
 496.5 281.25 496.5 281.25 500.25 278.625 c 128,-1,160
 504 276 504 276 504 273 c 0,161,162
 504 272.25 504 272.25 504 271.5 c 0,163,164
 502.5 267.75 502.5 267.75 507.75 254.25 c 0,165,166
 513.75 234 513.75 234 513.75 215.25 c 0,167,168
 513.75 203.25 513.75 203.25 511.5 189.75 c 0,169,170
 510 177 510 177 510 171.375 c 128,-1,171
 510 165.75 510 165.75 511.5 162.75 c 0,172,173
 514.5 157.5 514.5 157.5 512.25 152.25 c 0,174,175
 510 146.25 510 146.25 508.5 132 c 0,176,177
 507.75 120 507.75 120 501.75 108.75 c 0,178,179
 495.75 101.25 495.75 101.25 495.75 96.75 c 0,180,181
 495.75 93.75 495.75 93.75 487.5 85.5 c 0,182,183
 478.5 75 478.5 75 476.25 70.5 c 0,184,185
 474.75 66.75 474.75 66.75 458.25 53.25 c 128,-1,186
 441.75 39.75 441.75 39.75 429 31.5 c 0,187,188
 420 25.5 420 25.5 418.5 24.75 c 0,189,190
 390 6.75 390 6.75 352.5 6 c 0,191,192
 336 6 336 6 329.25 3.75 c 0,193,194
 327.75 3 327.75 3 318.75 3 c 0,195,196
 298.5 3 298.5 3 256.5 7.5 c 0,197,198
 231 9.75 231 9.75 193.5 23.25 c 128,-1,199
 156 36.75 156 36.75 132.75 51.75 c 0,200,201
 113.25 64.5 113.25 64.5 87.375 94.875 c 128,-1,202
 61.5 125.25 61.5 125.25 58.5 139.5 c 0,203,204
 57 145.5 57 145.5 54 150 c 128,-1,205
 51 154.5 51 154.5 45.75 169.875 c 128,-1,206
 40.5 185.25 40.5 185.25 39.75 190.5 c 0,207,208
 36.75 213 36.75 213 36.75 218.25 c 0,209,210
 36.75 221.25 36.75 221.25 37.5 222 c 0,0,1
EndSplineSet
Validated: 1
EndChar

StartChar: h
Encoding: 104 104 36
Width: 481
Flags: W
LayerCount: 2
Fore
SplineSet
42 490.5 m 0,0,1
 46.5 493.5 46.5 493.5 48 501.75 c 0,2,3
 51 522.75 51 522.75 54.75 522.75 c 0,4,5
 55.5 522.75 55.5 522.75 60 524.25 c 0,6,7
 61.5 525 61.5 525 64.125 522.375 c 128,-1,8
 66.75 519.75 66.75 519.75 67.875 516.75 c 128,-1,9
 69 513.75 69 513.75 67.5 512.25 c 0,10,11
 65.25 510.75 65.25 510.75 68.25 504 c 0,12,13
 78.75 479.25 78.75 479.25 79.5 392.25 c 0,14,15
 79.5 288.75 79.5 288.75 87 281.25 c 0,16,17
 87.75 280.5 87.75 280.5 89.25 282.75 c 0,18,19
 90 283.5 90 283.5 90 284.25 c 0,20,21
 91.5 288.75 91.5 288.75 98.25 288 c 0,22,23
 113.25 284.25 113.25 284.25 230.25 282 c 0,24,25
 273.75 282 273.75 282 312 284.25 c 0,26,27
 343.5 285.75 343.5 285.75 366.75 285.75 c 0,28,29
 375 285.75 375 285.75 379.5 285.75 c 2,30,-1
 399 285.75 l 1,31,-1
 399 325.5 l 2,32,33
 399 389.25 399 389.25 403.5 392.25 c 0,34,35
 405.75 394.5 405.75 394.5 403.5 396.75 c 0,36,37
 402 398.25 402 398.25 402 411.75 c 0,38,39
 402 427.5 402 427.5 403.5 447.375 c 128,-1,40
 405 467.25 405 467.25 407.25 474 c 0,41,42
 410.25 480 410.25 480 408.75 482.25 c 0,43,44
 408.75 483.75 408.75 483.75 414.375 502.5 c 128,-1,45
 420 521.25 420 521.25 420.75 522.75 c 0,46,47
 423.75 522.75 423.75 522.75 426 522 c 0,48,49
 435 519 435 519 435 473.25 c 0,50,51
 435 466.5 435 466.5 435 457.5 c 0,52,53
 433.5 408 433.5 408 433.5 398.25 c 0,54,55
 432.75 386.25 432.75 386.25 432.375 361.875 c 128,-1,56
 432 337.5 432 337.5 432 302.25 c 0,57,58
 432 275.25 432 275.25 432 243.75 c 0,59,60
 432 239.25 432 239.25 432 234.75 c 128,-1,61
 432 230.25 432 230.25 432 225 c 0,62,63
 432 174.75 432 174.75 429.75 126.375 c 128,-1,64
 427.5 78 427.5 78 425.25 74.25 c 0,65,66
 424.5 72.75 424.5 72.75 423 46.5 c 0,67,68
 421.5 19.5 421.5 19.5 420 16.5 c 0,69,70
 419.25 14.25 419.25 14.25 418.125 12.375 c 128,-1,71
 417 10.5 417 10.5 415.5 9 c 128,-1,72
 414 7.5 414 7.5 412.125 6.375 c 128,-1,73
 410.25 5.25 410.25 5.25 408.375 4.125 c 128,-1,74
 406.5 3 406.5 3 404.625 2.625 c 128,-1,75
 402.75 2.25 402.75 2.25 401.25 2.25 c 0,76,77
 399 2.25 399 2.25 397.125 3 c 128,-1,78
 395.25 3.75 395.25 3.75 393.75 5.25 c 0,79,80
 390 9 390 9 390 19.5 c 0,81,82
 390 24 390 24 390.75 36.75 c 0,83,84
 390.75 42.75 390.75 42.75 391.5 51 c 128,-1,85
 392.25 59.25 392.25 59.25 392.625 64.5 c 128,-1,86
 393 69.75 393 69.75 393 71.25 c 0,87,88
 395.25 81 395.25 81 399.75 151.5 c 0,89,90
 400.5 157.5 400.5 157.5 400.5 170.625 c 128,-1,91
 400.5 183.75 400.5 183.75 399.75 196.5 c 2,92,-1
 398.25 228 l 1,93,-1
 329.25 226.5 l 2,94,95
 279.75 225.75 279.75 225.75 229.5 225.75 c 0,96,97
 174.75 225.75 174.75 225.75 136.875 226.875 c 128,-1,98
 99 228 99 228 94.5 230.25 c 256,99,100
 90 232.5 90 232.5 90 226.5 c 0,101,102
 90 223.5 90 223.5 90.75 213.75 c 0,103,104
 92.25 194.25 92.25 194.25 93.75 155.25 c 0,105,106
 94.5 129.75 94.5 129.75 94.5 123 c 0,107,108
 94.5 111.75 94.5 111.75 91.5 109.5 c 0,109,110
 87.75 108 87.75 108 90.75 105.75 c 0,111,112
 91.5 105 91.5 105 91.875 103.875 c 128,-1,113
 92.25 102.75 92.25 102.75 92.625 100.875 c 128,-1,114
 93 99 93 99 93 95.25 c 0,115,116
 93 90.75 93 90.75 92.25 79.5 c 0,117,118
 88.5 18.75 88.5 18.75 84.75 18.75 c 128,-1,119
 81 18.75 81 18.75 78.75 16.5 c 0,120,121
 76.5 13.5 76.5 13.5 70.5 12.75 c 2,122,-1
 69.75 12.75 l 1,123,-1
 65.25 11.25 l 2,124,125
 60.75 11.25 60.75 11.25 59.625 27.75 c 128,-1,126
 58.5 44.25 58.5 44.25 57.75 115.5 c 0,127,128
 57 246.75 57 246.75 54.75 252.75 c 128,-1,129
 52.5 258.75 52.5 258.75 51.75 265.5 c 0,130,131
 44.25 333 44.25 333 43.5 402.75 c 0,132,133
 42 467.25 42 467.25 40.5 472.5 c 0,134,135
 36.75 485.25 36.75 485.25 42 490.5 c 0,0,1
EndSplineSet
Validated: 1
EndChar

StartChar: i
Encoding: 105 105 37
Width: 166
Flags: W
LayerCount: 2
Fore
SplineSet
75.75 531 m 0,0,1
 77.25 531 77.25 531 78.75 530.25 c 0,2,3
 82.5 528.75 82.5 528.75 87.75 527.25 c 256,4,5
 93 525.75 93 525.75 95.25 524.25 c 0,6,7
 98.25 520.5 98.25 520.5 99 513 c 0,8,9
 99.75 504 99.75 504 100.5 446.25 c 0,10,11
 101.25 390.75 101.25 390.75 104.25 360.75 c 0,12,13
 106.5 330 106.5 330 106.5 190.5 c 0,14,15
 106.5 133.5 106.5 133.5 106.5 90.75 c 128,-1,16
 106.5 48 106.5 48 106.5 45 c 0,17,18
 106.5 38.25 106.5 38.25 101.25 23.25 c 0,19,20
 99 17.25 99 17.25 97.5 12.75 c 0,21,22
 96 9.75 96 9.75 95.25 8.25 c 0,23,24
 93.75 6 93.75 6 91.5 4.5 c 256,25,26
 89.25 3 89.25 3 84.75 2.25 c 0,27,28
 81 2.25 81 2.25 77.25 2.25 c 2,29,-1
 69 2.25 l 2,30,31
 63 2.25 63 2.25 63 8.25 c 2,32,-1
 63.75 63 l 2,33,34
 64.5 85.5 64.5 85.5 65.25 102.75 c 0,35,36
 65.25 107.25 65.25 107.25 65.25 112.125 c 128,-1,37
 65.25 117 65.25 117 65.25 119.25 c 128,-1,38
 65.25 121.5 65.25 121.5 65.25 121.5 c 2,39,40
 65.25 126.75 65.25 126.75 65.25 160.5 c 0,41,42
 66 174.75 66 174.75 66 185.25 c 0,43,44
 66 187.5 66 187.5 66 189.375 c 128,-1,45
 66 191.25 66 191.25 65.625 192.75 c 128,-1,46
 65.25 194.25 65.25 194.25 65.25 195.75 c 128,-1,47
 65.25 197.25 65.25 197.25 65.25 197.625 c 128,-1,48
 65.25 198 65.25 198 65.25 198 c 1,49,-1
 65.25 198 l 1,50,51
 64.5 210 64.5 210 64.5 245.25 c 0,52,53
 64.5 260.25 64.5 260.25 64.5 270 c 0,54,55
 64.5 276 64.5 276 65.25 279 c 0,56,57
 65.25 280.5 65.25 280.5 65.25 282 c 0,58,59
 65.25 284.25 65.25 284.25 66 285 c 0,60,61
 66 285.75 66 285.75 66 285.75 c 2,62,63
 64.5 288 64.5 288 63.75 290.25 c 0,64,65
 63 294 63 294 63.75 297 c 2,66,67
 63.75 297 63.75 297 63.75 297.75 c 128,-1,68
 63.75 298.5 63.75 298.5 63 300.375 c 128,-1,69
 62.25 302.25 62.25 302.25 61.5 303 c 0,70,71
 57.75 308.25 57.75 308.25 57 312.75 c 256,72,73
 56.25 317.25 56.25 317.25 57 324.75 c 0,74,75
 59.25 341.25 59.25 341.25 58.5 374.25 c 0,76,77
 58.5 389.25 58.5 389.25 57 399 c 0,78,79
 57 404.25 57 404.25 56.25 407.25 c 2,80,81
 56.25 407.25 56.25 407.25 56.25 408.75 c 0,82,83
 53.25 411.75 53.25 411.75 53.25 417 c 0,84,85
 52.5 421.5 52.5 421.5 53.25 427.5 c 0,86,87
 54 438 54 438 54 442.5 c 0,88,89
 51.75 481.5 51.75 481.5 54 489 c 0,90,91
 56.25 495 56.25 495 63 508.5 c 0,92,93
 65.25 513.75 65.25 513.75 66.75 518.25 c 0,94,95
 67.5 520.5 67.5 520.5 68.25 521.25 c 2,96,-1
 68.25 520.5 l 2,97,98
 67.5 522.75 67.5 522.75 67.5 524.25 c 0,99,100
 67.5 528 67.5 528 71.25 530.25 c 0,101,102
 72.75 531 72.75 531 75.75 531 c 0,0,1
EndSplineSet
Validated: 37
EndChar

StartChar: j
Encoding: 106 106 38
Width: 348
Flags: W
LayerCount: 2
Fore
SplineSet
45 98.25 m 2,0,1
 47.25 100.5 47.25 100.5 45.75 108 c 0,2,3
 45.75 108.75 45.75 108.75 45.75 109.5 c 0,4,5
 45.75 118.5 45.75 118.5 50.25 129 c 128,-1,6
 54.75 139.5 54.75 139.5 59.25 142.5 c 0,7,8
 64.5 145.5 64.5 145.5 71.25 138.75 c 128,-1,9
 78 132 78 132 78 129 c 0,10,11
 78 124.5 78 124.5 80.25 123.75 c 0,12,13
 84 116.25 84 116.25 86.25 110.25 c 0,14,15
 95.25 85.5 95.25 85.5 149.25 71.25 c 0,16,17
 155.25 69.75 155.25 69.75 159 68.625 c 128,-1,18
 162.75 67.5 162.75 67.5 167.25 67.125 c 128,-1,19
 171.75 66.75 171.75 66.75 176.25 66.75 c 0,20,21
 182.25 66.75 182.25 66.75 192 67.5 c 0,22,23
 217.5 68.25 217.5 68.25 225.75 71.25 c 128,-1,24
 234 74.25 234 74.25 240.75 84 c 0,25,26
 254.25 101.25 254.25 101.25 255.75 157.5 c 0,27,28
 255.75 177.75 255.75 177.75 258 182.25 c 0,29,30
 259.5 183.75 259.5 183.75 258 187.5 c 0,31,32
 255.75 190.5 255.75 190.5 255.75 216 c 128,-1,33
 255.75 241.5 255.75 241.5 252 245.25 c 0,34,35
 247.5 249.75 247.5 249.75 249.75 252.75 c 0,36,37
 250.5 255.75 250.5 255.75 250.5 264 c 128,-1,38
 250.5 272.25 250.5 272.25 249.75 314.25 c 0,39,40
 247.5 357 247.5 357 244.5 362.25 c 0,41,42
 240.75 369.75 240.75 369.75 240.75 426 c 0,43,44
 240 452.25 240 452.25 240 461.25 c 0,45,46
 240 483.75 240 483.75 243.75 489 c 0,47,48
 248.25 495 248.25 495 248.25 500.25 c 0,49,50
 248.25 506.25 248.25 506.25 249.75 507.75 c 0,51,52
 252 510 252 510 255 519.75 c 2,53,-1
 257.25 529.5 l 1,54,-1
 265.5 525.75 l 2,55,56
 277.5 520.5 277.5 520.5 277.5 501.75 c 0,57,58
 277.5 499.5 277.5 499.5 277.5 497.25 c 0,59,60
 277.5 496.5 277.5 496.5 277.5 495.375 c 128,-1,61
 277.5 494.25 277.5 494.25 277.5 493.125 c 128,-1,62
 277.5 492 277.5 492 277.5 491.25 c 0,63,64
 277.5 460.5 277.5 460.5 280.125 385.875 c 128,-1,65
 282.75 311.25 282.75 311.25 284.25 309 c 0,66,67
 288 301.5 288 301.5 288 223.5 c 0,68,69
 288 213.75 288 213.75 288 205.5 c 0,70,71
 288 180.75 288 180.75 286.5 154.875 c 128,-1,72
 285 129 285 129 282.75 112.125 c 128,-1,73
 280.5 95.25 280.5 95.25 279 95.25 c 0,74,75
 277.5 94.5 277.5 94.5 277.5 88.5 c 2,76,-1
 278.25 84.75 l 2,77,78
 278.25 76.5 278.25 76.5 263.25 48 c 0,79,80
 244.5 9 244.5 9 227.25 9 c 0,81,82
 226.5 9 226.5 9 225.75 9.375 c 128,-1,83
 225 9.75 225 9.75 224.25 9.75 c 0,84,85
 219 11.25 219 11.25 213 8.25 c 0,86,87
 198 5.25 198 5.25 186 4.5 c 0,88,89
 165 3 165 3 164.25 2.25 c 128,-1,90
 163.5 1.5 163.5 1.5 141.75 9.75 c 0,91,92
 135 12 135 12 129.75 12 c 0,93,94
 121.5 12.75 121.5 12.75 100.875 23.625 c 128,-1,95
 80.25 34.5 80.25 34.5 75 40.5 c 0,96,97
 71.25 45 71.25 45 66 54 c 0,98,99
 63.75 57.75 63.75 57.75 59.25 64.5 c 0,100,101
 56.25 69.75 56.25 69.75 50.625 82.125 c 128,-1,102
 45 94.5 45 94.5 45 97.5 c 0,103,104
 45 98.25 45 98.25 45 98.25 c 2,0,1
EndSplineSet
Validated: 1
EndChar

StartChar: k
Encoding: 107 107 39
Width: 433
Flags: W
LayerCount: 2
Fore
SplineSet
57.75 496.5 m 0,0,1
 63 506.25 63 506.25 66.75 515.625 c 128,-1,2
 70.5 525 70.5 525 75.375 528.75 c 128,-1,3
 80.25 532.5 80.25 532.5 78.75 537 c 0,4,5
 78 540.75 78 540.75 79.5 541.5 c 0,6,7
 81.75 543 81.75 543 84 537 c 0,8,9
 85.5 532.5 85.5 532.5 89.25 528 c 0,10,11
 92.25 525.75 92.25 525.75 92.625 520.125 c 128,-1,12
 93 514.5 93 514.5 92.25 494.25 c 0,13,14
 90 450 90 450 91.125 381.75 c 128,-1,15
 92.25 313.5 92.25 313.5 96 313.5 c 0,16,17
 97.5 313.5 97.5 313.5 102.375 323.625 c 128,-1,18
 107.25 333.75 107.25 333.75 111.375 335.25 c 128,-1,19
 115.5 336.75 115.5 336.75 124.875 345 c 128,-1,20
 134.25 353.25 134.25 353.25 154.125 369 c 128,-1,21
 174 384.75 174 384.75 183 392.25 c 0,22,23
 236.25 440.25 236.25 440.25 285.75 474.75 c 0,24,25
 289.5 477 289.5 477 295.125 482.625 c 128,-1,26
 300.75 488.25 300.75 488.25 305.625 494.25 c 128,-1,27
 310.5 500.25 310.5 500.25 312.75 504 c 0,28,29
 315 507 315 507 319.125 504.75 c 128,-1,30
 323.25 502.5 323.25 502.5 329.25 500.25 c 128,-1,31
 335.25 498 335.25 498 333.75 492.75 c 128,-1,32
 332.25 487.5 332.25 487.5 331.875 477.75 c 128,-1,33
 331.5 468 331.5 468 329.25 463.5 c 0,34,35
 327 457.5 327 457.5 312.375 441.75 c 128,-1,36
 297.75 426 297.75 426 288.75 419.25 c 0,37,38
 280.5 414 280.5 414 273.75 408.75 c 0,39,40
 265.5 403.5 265.5 403.5 258.75 398.25 c 0,41,42
 251.25 393.75 251.25 393.75 245.25 387.75 c 128,-1,43
 239.25 381.75 239.25 381.75 218.625 364.875 c 128,-1,44
 198 348 198 348 197.25 346.125 c 128,-1,45
 196.5 344.25 196.5 344.25 191.25 342 c 2,46,-1
 185.25 339.75 l 1,47,-1
 192.75 333 l 2,48,49
 213 312.75 213 312.75 224.25 297 c 0,50,51
 230.25 288 230.25 288 232.875 286.125 c 128,-1,52
 235.5 284.25 235.5 284.25 237.375 280.5 c 128,-1,53
 239.25 276.75 239.25 276.75 249 266.25 c 0,54,55
 267.75 244.5 267.75 244.5 295.5 204.75 c 0,56,57
 307.5 187.5 307.5 187.5 329.25 160.5 c 0,58,59
 376.5 101.25 376.5 101.25 384 87 c 0,60,61
 388.5 78.75 388.5 78.75 385.5 63.375 c 128,-1,62
 382.5 48 382.5 48 379.5 45.75 c 128,-1,63
 376.5 43.5 376.5 43.5 376.5 40.5 c 256,64,65
 376.5 37.5 376.5 37.5 367.125 36.75 c 128,-1,66
 357.75 36 357.75 36 354.75 39 c 0,67,68
 351 42 351 42 348.375 42 c 128,-1,69
 345.75 42 345.75 42 346.5 45 c 0,70,71
 348 48 348 48 345.375 52.5 c 128,-1,72
 342.75 57 342.75 57 339.75 57 c 0,73,74
 337.5 57 337.5 57 333 67.5 c 128,-1,75
 328.5 78 328.5 78 324.75 81.375 c 128,-1,76
 321 84.75 321 84.75 313.125 96 c 128,-1,77
 305.25 107.25 305.25 107.25 303 107.25 c 256,78,79
 300.75 107.25 300.75 107.25 294.375 115.875 c 128,-1,80
 288 124.5 288 124.5 282.75 134.25 c 0,81,82
 279 140.25 279 140.25 267 156.75 c 128,-1,83
 255 173.25 255 173.25 250.5 180 c 128,-1,84
 246 186.75 246 186.75 228 207 c 128,-1,85
 210 227.25 210 227.25 204.375 235.125 c 128,-1,86
 198.75 243 198.75 243 195.75 243 c 128,-1,87
 192.75 243 192.75 243 192.75 246 c 0,88,89
 192.75 247.5 192.75 247.5 190.125 251.25 c 128,-1,90
 187.5 255 187.5 255 184.125 259.5 c 128,-1,91
 180.75 264 180.75 264 175.875 269.25 c 128,-1,92
 171 274.5 171 274.5 167.25 279 c 0,93,94
 161.25 285 161.25 285 160.5 287.25 c 128,-1,95
 159.75 289.5 159.75 289.5 161.25 296.25 c 0,96,97
 167.25 316.5 167.25 316.5 164.25 318 c 0,98,99
 162 318.75 162 318.75 153.75 310.5 c 0,100,101
 145.5 303 145.5 303 138.75 298.125 c 128,-1,102
 132 293.25 132 293.25 121.875 283.5 c 128,-1,103
 111.75 273.75 111.75 273.75 106.125 273.75 c 128,-1,104
 100.5 273.75 100.5 273.75 99 271.5 c 128,-1,105
 97.5 269.25 97.5 269.25 96.75 151.5 c 0,106,107
 96 10.5 96 10.5 90.75 7.5 c 0,108,109
 79.5 1.5 79.5 1.5 72.75 2.25 c 0,110,111
 68.25 3 68.25 3 67.125 5.25 c 128,-1,112
 66 7.5 66 7.5 64.5 19.5 c 0,113,114
 63 36 63 36 64.5 45.75 c 0,115,116
 66 62.25 66 62.25 66.75 121.875 c 128,-1,117
 67.5 181.5 67.5 181.5 66 216.75 c 0,118,119
 62.25 312 62.25 312 60 315.75 c 0,120,121
 58.5 318 58.5 318 58.5 327 c 0,122,123
 59.25 339 59.25 339 58.5 355.875 c 128,-1,124
 57.75 372.75 57.75 372.75 56.625 385.875 c 128,-1,125
 55.5 399 55.5 399 54 400.5 c 0,126,127
 51.75 402.75 51.75 402.75 52.5 445.5 c 0,128,129
 53.25 474 53.25 474 54 482.25 c 128,-1,130
 54.75 490.5 54.75 490.5 57.75 496.5 c 0,0,1
EndSplineSet
Validated: 33
EndChar

StartChar: l
Encoding: 108 108 40
Width: 443
Flags: W
LayerCount: 2
Fore
SplineSet
48.75 484.5 m 0,0,1
 52.5 492.75 52.5 492.75 54.75 496.875 c 128,-1,2
 57 501 57 501 55.5 503.25 c 128,-1,3
 54 505.5 54 505.5 60 517.125 c 128,-1,4
 66 528.75 66 528.75 66 531 c 0,5,6
 66 531.75 66 531.75 69 531.375 c 128,-1,7
 72 531 72 531 76.5 529.125 c 128,-1,8
 81 527.25 81 527.25 84.75 525 c 0,9,10
 85.5 525 85.5 525 86.25 499.5 c 0,11,12
 89.25 395.25 89.25 395.25 90.75 379.5 c 0,13,14
 91.5 372.75 91.5 372.75 92.625 345.375 c 128,-1,15
 93.75 318 93.75 318 95.25 301.5 c 0,16,17
 101.25 230.25 101.25 230.25 101.25 117.75 c 2,18,-1
 101.25 65.25 l 1,19,-1
 111 64.5 l 2,20,21
 121.5 63 121.5 63 138 65.25 c 128,-1,22
 154.5 67.5 154.5 67.5 207.375 69.75 c 128,-1,23
 260.25 72 260.25 72 267 73.5 c 128,-1,24
 273.75 75 273.75 75 304.875 75.75 c 128,-1,25
 336 76.5 336 76.5 355.5 78.75 c 0,26,27
 372 80.25 372 80.25 379.875 78.375 c 128,-1,28
 387.75 76.5 387.75 76.5 392.25 69.75 c 0,29,30
 395.25 64.5 395.25 64.5 395.625 59.25 c 128,-1,31
 396 54 396 54 393.75 52.5 c 256,32,33
 391.5 51 391.5 51 392.625 43.875 c 128,-1,34
 393.75 36.75 393.75 36.75 390 31.5 c 128,-1,35
 386.25 26.25 386.25 26.25 386.25 22.5 c 0,36,37
 386.25 16.5 386.25 16.5 377.625 14.625 c 128,-1,38
 369 12.75 369 12.75 343.5 12 c 0,39,40
 309.75 10.5 309.75 10.5 287.25 9.75 c 0,41,42
 222 5.25 222 5.25 171 6 c 0,43,44
 161.25 6 161.25 6 152.25 3.75 c 0,45,46
 144.75 1.5 144.75 1.5 106.5 1.125 c 128,-1,47
 68.25 0.75 68.25 0.75 66.75 2.25 c 0,48,49
 63.75 4.5 63.75 4.5 67.5 40.5 c 0,50,51
 69.75 66.75 69.75 66.75 68.25 172.5 c 0,52,53
 68.25 192.75 68.25 192.75 65.625 220.125 c 128,-1,54
 63 247.5 63 247.5 61.5 247.5 c 0,55,56
 60.75 247.5 60.75 247.5 59.625 267.375 c 128,-1,57
 58.5 287.25 58.5 287.25 58.5 291.75 c 0,58,59
 59.25 312.75 59.25 312.75 54.75 342 c 0,60,61
 53.25 351.75 53.25 351.75 53.25 368.25 c 128,-1,62
 53.25 384.75 53.25 384.75 55.5 389.25 c 0,63,64
 56.25 392.25 56.25 392.25 54 400.125 c 128,-1,65
 51.75 408 51.75 408 51 435.375 c 128,-1,66
 50.25 462.75 50.25 462.75 47.25 467.25 c 0,67,68
 45 471.75 45 471.75 45 474.375 c 128,-1,69
 45 477 45 477 48.75 484.5 c 0,0,1
EndSplineSet
Validated: 33
EndChar

StartChar: m
Encoding: 109 109 41
Width: 509
Flags: W
LayerCount: 2
Fore
SplineSet
62.25 480 m 0,0,1
 65.25 490.5 65.25 490.5 70.875 503.625 c 128,-1,2
 76.5 516.75 76.5 516.75 78 516.75 c 256,3,4
 79.5 516.75 79.5 516.75 81 514.5 c 128,-1,5
 82.5 512.25 82.5 512.25 85.5 512.25 c 0,6,7
 100.5 512.25 100.5 512.25 114.75 483 c 0,8,9
 123.75 465.75 123.75 465.75 134.625 447.375 c 128,-1,10
 145.5 429 145.5 429 145.5 426.375 c 128,-1,11
 145.5 423.75 145.5 423.75 147.375 423.75 c 128,-1,12
 149.25 423.75 149.25 423.75 153 416.25 c 128,-1,13
 156.75 408.75 156.75 408.75 162.375 399.75 c 128,-1,14
 168 390.75 168 390.75 171.75 383.625 c 128,-1,15
 175.5 376.5 175.5 376.5 193.125 352.875 c 128,-1,16
 210.75 329.25 210.75 329.25 213.375 324.375 c 128,-1,17
 216 319.5 216 319.5 224.625 309.375 c 128,-1,18
 233.25 299.25 233.25 299.25 237.75 292.5 c 0,19,20
 246 281.25 246 281.25 248.25 279.375 c 128,-1,21
 250.5 277.5 250.5 277.5 253.5 280.5 c 0,22,23
 265.5 290.25 265.5 290.25 296.25 337.5 c 0,24,25
 309 357.75 309 357.75 313.5 362.25 c 128,-1,26
 318 366.75 318 366.75 321.375 373.125 c 128,-1,27
 324.75 379.5 324.75 379.5 333 391.5 c 0,28,29
 338.25 399.75 338.25 399.75 339 402 c 128,-1,30
 339.75 404.25 339.75 404.25 336.75 406.5 c 128,-1,31
 333.75 408.75 333.75 408.75 334.125 409.125 c 128,-1,32
 334.5 409.5 334.5 409.5 337.5 409.5 c 0,33,34
 342 409.5 342 409.5 354.375 426 c 128,-1,35
 366.75 442.5 366.75 442.5 378 462.75 c 0,36,37
 383.25 471 383.25 471 398.25 497.25 c 128,-1,38
 413.25 523.5 413.25 523.5 413.25 525 c 0,39,40
 413.25 529.5 413.25 529.5 419.25 534.375 c 128,-1,41
 425.25 539.25 425.25 539.25 429.75 539.25 c 0,42,43
 444 539.25 444 539.25 447.75 508.5 c 0,44,45
 449.25 494.25 449.25 494.25 450.375 466.5 c 128,-1,46
 451.5 438.75 451.5 438.75 451.125 416.25 c 128,-1,47
 450.75 393.75 450.75 393.75 449.25 393.75 c 0,48,49
 447 393.75 447 393.75 449.625 390.75 c 128,-1,50
 452.25 387.75 452.25 387.75 451.5 344.25 c 128,-1,51
 450.75 300.75 450.75 300.75 453 300.75 c 128,-1,52
 455.25 300.75 455.25 300.75 453 297 c 0,53,54
 450.75 290.25 450.75 290.25 448.5 234.75 c 0,55,56
 444.75 127.5 444.75 127.5 447.75 121.5 c 0,57,58
 449.25 117.75 449.25 117.75 450.75 95.25 c 128,-1,59
 452.25 72.75 452.25 72.75 453.75 56.25 c 0,60,61
 454.5 45.75 454.5 45.75 452.25 34.125 c 128,-1,62
 450 22.5 450 22.5 445.5 13.125 c 128,-1,63
 441 3.75 441 3.75 435.75 0 c 0,64,65
 432 -2.25 432 -2.25 426.375 -0.375 c 128,-1,66
 420.75 1.5 420.75 1.5 420.75 5.25 c 256,67,68
 420.75 9 420.75 9 418.875 10.875 c 128,-1,69
 417 12.75 417 12.75 416.25 18.75 c 0,70,71
 416.25 25.5 416.25 25.5 414.75 47.25 c 0,72,73
 414 70.5 414 70.5 411.75 103.5 c 0,74,75
 408.75 135.75 408.75 135.75 408.75 185.25 c 128,-1,76
 408.75 234.75 408.75 234.75 411.375 236.25 c 128,-1,77
 414 237.75 414 237.75 411.75 240.375 c 128,-1,78
 409.5 243 409.5 243 410.25 249.75 c 0,79,80
 411 262.5 411 262.5 411.375 277.5 c 128,-1,81
 411.75 292.5 411.75 292.5 411.375 303 c 128,-1,82
 411 313.5 411 313.5 410.25 314.25 c 0,83,84
 408 317.25 408 317.25 408 334.5 c 128,-1,85
 408 351.75 408 351.75 410.25 363 c 0,86,87
 411.75 372 411.75 372 409.5 373.5 c 128,-1,88
 407.25 375 407.25 375 405.75 395.25 c 128,-1,89
 404.25 415.5 404.25 415.5 403.125 419.25 c 128,-1,90
 402 423 402 423 404.25 431.25 c 0,91,92
 406.5 441 406.5 441 404.25 440.25 c 0,93,94
 401.25 439.5 401.25 439.5 394.5 426.75 c 0,95,96
 386.25 411.75 386.25 411.75 384 410.625 c 128,-1,97
 381.75 409.5 381.75 409.5 376.125 397.875 c 128,-1,98
 370.5 386.25 370.5 386.25 359.25 369.75 c 0,99,100
 309 292.5 309 292.5 299.25 280.5 c 0,101,102
 291 269.25 291 269.25 291 267.375 c 128,-1,103
 291 265.5 291 265.5 279.75 250.875 c 128,-1,104
 268.5 236.25 268.5 236.25 268.5 233.625 c 128,-1,105
 268.5 231 268.5 231 265.125 228 c 128,-1,106
 261.75 225 261.75 225 261.75 220.5 c 0,107,108
 261.75 213.75 261.75 213.75 256.5 207.375 c 128,-1,109
 251.25 201 251.25 201 244.5 199.5 c 0,110,111
 238.5 198.75 238.5 198.75 235.875 199.875 c 128,-1,112
 233.25 201 233.25 201 228 207 c 0,113,114
 220.5 215.25 220.5 215.25 214.5 225.75 c 0,115,116
 207.75 237 207.75 237 198 248.25 c 0,117,118
 193.5 252.75 193.5 252.75 193.5 255 c 256,119,120
 193.5 257.25 193.5 257.25 170.25 285.75 c 0,121,122
 165.75 292.5 165.75 292.5 154.5 309 c 128,-1,123
 143.25 325.5 143.25 325.5 132.375 342.375 c 128,-1,124
 121.5 359.25 121.5 359.25 117.75 366 c 0,125,126
 111 379.5 111 379.5 105 387 c 0,127,128
 99.75 394.5 99.75 394.5 99 392.25 c 0,129,130
 98.25 391.5 98.25 391.5 98.25 389.25 c 0,131,132
 96.75 384 96.75 384 98.25 351 c 0,133,134
 100.5 326.25 100.5 326.25 101.25 212.25 c 128,-1,135
 102 98.25 102 98.25 100.5 66.75 c 0,136,137
 99 32.25 99 32.25 90 9.75 c 0,138,139
 88.5 6 88.5 6 82.875 4.5 c 128,-1,140
 77.25 3 77.25 3 72 4.5 c 0,141,142
 66 5.25 66 5.25 66 13.875 c 128,-1,143
 66 22.5 66 22.5 62.25 27.75 c 128,-1,144
 58.5 33 58.5 33 61.5 39.375 c 128,-1,145
 64.5 45.75 64.5 45.75 64.875 62.25 c 128,-1,146
 65.25 78.75 65.25 78.75 67.5 79.5 c 128,-1,147
 69.75 80.25 69.75 80.25 68.25 105 c 128,-1,148
 66.75 129.75 66.75 129.75 68.25 141.75 c 0,149,150
 69.75 158.25 69.75 158.25 68.625 225.75 c 128,-1,151
 67.5 293.25 67.5 293.25 65.25 298.5 c 0,152,153
 63.75 304.5 63.75 304.5 62.625 347.625 c 128,-1,154
 61.5 390.75 61.5 390.75 60.75 431.625 c 128,-1,155
 60 472.5 60 472.5 62.25 480 c 0,0,1
EndSplineSet
Validated: 33
EndChar

StartChar: n
Encoding: 110 110 42
Width: 423
Flags: W
LayerCount: 2
Fore
SplineSet
55.5 489.75 m 0,0,1
 58.5 495.75 58.5 495.75 63.75 510.75 c 0,2,3
 66.75 520.5 66.75 520.5 68.25 522.75 c 128,-1,4
 69.75 525 69.75 525 73.5 523.5 c 0,5,6
 83.25 520.5 83.25 520.5 85.5 519 c 128,-1,7
 87.75 517.5 87.75 517.5 87.75 512.25 c 0,8,9
 87 506.25 87 506.25 96.375 493.125 c 128,-1,10
 105.75 480 105.75 480 105.75 478.125 c 128,-1,11
 105.75 476.25 105.75 476.25 112.125 466.875 c 128,-1,12
 118.5 457.5 118.5 457.5 124.875 444.375 c 128,-1,13
 131.25 431.25 131.25 431.25 142.875 411.75 c 128,-1,14
 154.5 392.25 154.5 392.25 162 377.25 c 0,15,16
 180 345 180 345 203.25 312.75 c 0,17,18
 219 290.25 219 290.25 223.5 283.5 c 128,-1,19
 228 276.75 228 276.75 243.375 256.125 c 128,-1,20
 258.75 235.5 258.75 235.5 270.75 217.875 c 128,-1,21
 282.75 200.25 282.75 200.25 292.5 188.25 c 128,-1,22
 302.25 176.25 302.25 176.25 303.375 172.875 c 128,-1,23
 304.5 169.5 304.5 169.5 312.75 157.5 c 128,-1,24
 321 145.5 321 145.5 326.25 135.75 c 0,25,26
 334.5 120.75 334.5 120.75 334.5 132.75 c 0,27,28
 333.75 139.5 333.75 139.5 334.5 183.75 c 0,29,30
 334.5 229.5 334.5 229.5 332.25 249 c 128,-1,31
 330 268.5 330 268.5 328.875 318 c 128,-1,32
 327.75 367.5 327.75 367.5 325.5 388.5 c 128,-1,33
 323.25 409.5 323.25 409.5 322.5 424.875 c 128,-1,34
 321.75 440.25 321.75 440.25 320.625 450.75 c 128,-1,35
 319.5 461.25 319.5 461.25 321.75 468.375 c 128,-1,36
 324 475.5 324 475.5 325.5 486.75 c 0,37,38
 326.25 491.25 326.25 491.25 327.75 496.5 c 128,-1,39
 329.25 501.75 329.25 501.75 330.375 505.5 c 128,-1,40
 331.5 509.25 331.5 509.25 332.625 511.875 c 128,-1,41
 333.75 514.5 333.75 514.5 335.25 514.5 c 256,42,43
 336.75 514.5 336.75 514.5 344.25 506.25 c 0,44,45
 350.25 500.25 350.25 500.25 351.375 495.75 c 128,-1,46
 352.5 491.25 352.5 491.25 353.25 463.5 c 0,47,48
 354 450.75 354 450.75 355.125 445.5 c 128,-1,49
 356.25 440.25 356.25 440.25 358.875 399.75 c 128,-1,50
 361.5 359.25 361.5 359.25 363.75 356.25 c 128,-1,51
 366 353.25 366 353.25 363.75 353.25 c 256,52,53
 361.5 353.25 361.5 353.25 361.125 351 c 128,-1,54
 360.75 348.75 360.75 348.75 361.5 345.375 c 128,-1,55
 362.25 342 362.25 342 364.5 339.75 c 0,56,57
 368.25 336 368.25 336 364.5 334.5 c 128,-1,58
 360.75 333 360.75 333 362.25 305.25 c 128,-1,59
 363.75 277.5 363.75 277.5 364.5 275.25 c 0,60,61
 366.75 272.25 366.75 272.25 367.125 222.375 c 128,-1,62
 367.5 172.5 367.5 172.5 365.25 159.75 c 0,63,64
 359.25 115.5 359.25 115.5 363.75 78.75 c 0,65,66
 367.5 44.25 367.5 44.25 365.25 27.75 c 128,-1,67
 363 11.25 363 11.25 353.25 6.75 c 0,68,69
 330.75 -3.75 330.75 -3.75 327 24.75 c 0,70,71
 325.5 36.75 325.5 36.75 318.75 43.5 c 0,72,73
 306 56.25 306 56.25 304.5 66.75 c 0,74,75
 304.5 70.5 304.5 70.5 300.75 78.75 c 128,-1,76
 297 87 297 87 294.75 87.75 c 0,77,78
 292.5 89.25 292.5 89.25 294.75 93.375 c 128,-1,79
 297 97.5 297 97.5 292.5 100.5 c 128,-1,80
 288 103.5 288 103.5 276.75 120 c 128,-1,81
 265.5 136.5 265.5 136.5 260.25 141.75 c 0,82,83
 256.5 145.5 256.5 145.5 250.5 153 c 128,-1,84
 244.5 160.5 244.5 160.5 240 166.875 c 128,-1,85
 235.5 173.25 235.5 173.25 235.5 174 c 0,86,87
 235.5 176.25 235.5 176.25 226.5 187.125 c 128,-1,88
 217.5 198 217.5 198 201 222.375 c 128,-1,89
 184.5 246.75 184.5 246.75 174 261.75 c 0,90,91
 133.5 318 133.5 318 93 396.75 c 0,92,93
 90 402.75 90 402.75 87 404.25 c 0,94,95
 86.25 404.25 86.25 404.25 85.875 403.5 c 128,-1,96
 85.5 402.75 85.5 402.75 86.25 400.5 c 0,97,98
 87.75 397.5 87.75 397.5 88.875 364.875 c 128,-1,99
 90 332.25 90 332.25 91.875 321.375 c 128,-1,100
 93.75 310.5 93.75 310.5 94.5 278.25 c 0,101,102
 94.5 246.75 94.5 246.75 96 240 c 0,103,104
 98.25 219 98.25 219 100.5 219 c 0,105,106
 102 219 102 219 102 210.75 c 0,107,108
 102.75 202.5 102.75 202.5 104.25 177 c 0,109,110
 106.5 151.5 106.5 151.5 105 127.5 c 0,111,112
 100.5 60 100.5 60 105 46.5 c 0,113,114
 107.25 40.5 107.25 40.5 105.375 39.375 c 128,-1,115
 103.5 38.25 103.5 38.25 102.75 24.75 c 128,-1,116
 102 11.25 102 11.25 96 6 c 0,117,118
 85.5 -2.25 85.5 -2.25 76.5 5.25 c 0,119,120
 72 9 72 9 75.375 11.625 c 128,-1,121
 78.75 14.25 78.75 14.25 74.25 21.75 c 0,122,123
 68.25 33.75 68.25 33.75 73.5 79.5 c 0,124,125
 75 93 75 93 72.375 94.5 c 128,-1,126
 69.75 96 69.75 96 72.75 99 c 0,127,128
 74.25 101.25 74.25 101.25 75 116.25 c 128,-1,129
 75.75 131.25 75.75 131.25 75.375 146.625 c 128,-1,130
 75 162 75 162 73.5 164.25 c 256,131,132
 72 166.5 72 166.5 70.5 172.5 c 0,133,134
 64.5 212.25 64.5 212.25 63.75 244.5 c 0,135,136
 63.75 255 63.75 255 60 259.5 c 0,137,138
 58.5 261 58.5 261 57.75 263.25 c 128,-1,139
 57 265.5 57 265.5 56.625 274.5 c 128,-1,140
 56.25 283.5 56.25 283.5 55.875 295.875 c 128,-1,141
 55.5 308.25 55.5 308.25 55.5 334.5 c 0,142,143
 55.5 405 55.5 405 53.625 415.5 c 128,-1,144
 51.75 426 51.75 426 55.125 429.75 c 128,-1,145
 58.5 433.5 58.5 433.5 55.5 438 c 128,-1,146
 52.5 442.5 52.5 442.5 52.5 463.5 c 128,-1,147
 52.5 484.5 52.5 484.5 55.5 489.75 c 0,0,1
EndSplineSet
Validated: 33
EndChar

StartChar: o
Encoding: 111 111 43
Width: 548
Flags: W
LayerCount: 2
Fore
SplineSet
96.75 213 m 0,0,1
 103.5 187.5 103.5 187.5 109.125 171.75 c 128,-1,2
 114.75 156 114.75 156 122.25 144.375 c 128,-1,3
 129.75 132.75 129.75 132.75 141 120.75 c 0,4,5
 159.75 102 159.75 102 184.875 90 c 128,-1,6
 210 78 210 78 253.5 68.25 c 0,7,8
 283.5 60.75 283.5 60.75 318 66.75 c 0,9,10
 378 77.25 378 77.25 412.5 112.5 c 0,11,12
 430.5 130.5 430.5 130.5 438 145.875 c 128,-1,13
 445.5 161.25 445.5 161.25 447 180 c 0,14,15
 447.75 198 447.75 198 448.5 201 c 0,16,17
 451.5 210 451.5 210 453.375 224.625 c 128,-1,18
 455.25 239.25 455.25 239.25 455.25 253.875 c 128,-1,19
 455.25 268.5 455.25 268.5 453.75 282.375 c 128,-1,20
 452.25 296.25 452.25 296.25 449.25 303 c 0,21,22
 447.75 306.75 447.75 306.75 447 309.75 c 128,-1,23
 446.25 312.75 446.25 312.75 441.75 321.75 c 128,-1,24
 437.25 330.75 437.25 330.75 433.875 343.125 c 128,-1,25
 430.5 355.5 430.5 355.5 428.25 360 c 0,26,27
 424.5 369 424.5 369 423 372 c 0,28,29
 420 379.5 420 379.5 416.25 388.125 c 128,-1,30
 412.5 396.75 412.5 396.75 406.5 404.25 c 0,31,32
 405.75 405 405.75 405 399.75 412.125 c 128,-1,33
 393.75 419.25 393.75 419.25 390.75 423 c 0,34,35
 381 434.25 381 434.25 375 435.75 c 0,36,37
 363 438.75 363 438.75 366 446.25 c 0,38,39
 367.5 450.75 367.5 450.75 366.75 453.75 c 0,40,41
 366 456 366 456 352.5 462.75 c 128,-1,42
 339 469.5 339 469.5 327 474 c 0,43,44
 318.75 477 318.75 477 304.125 477.375 c 128,-1,45
 289.5 477.75 289.5 477.75 283.5 475.5 c 0,46,47
 280.5 474 280.5 474 278.25 474.75 c 0,48,49
 267.75 477 267.75 477 243 465.75 c 0,50,51
 214.5 452.25 214.5 452.25 211.5 452.25 c 0,52,53
 209.25 452.25 209.25 452.25 204 447.75 c 128,-1,54
 198.75 443.25 198.75 443.25 195.75 443.25 c 128,-1,55
 192.75 443.25 192.75 443.25 184.5 435.75 c 0,56,57
 144 398.25 144 398.25 144 396 c 256,58,59
 144 393.75 144 393.75 138 386.25 c 0,60,61
 126 372.75 126 372.75 104.25 321.75 c 0,62,63
 93 297 93 297 90.75 278.25 c 0,64,65
 90 267.75 90 267.75 91.5 247.125 c 128,-1,66
 93 226.5 93 226.5 96.75 213 c 0,0,1
60.75 270 m 2,67,68
 61.5 271.5 61.5 271.5 64.125 288 c 128,-1,69
 66.75 304.5 66.75 304.5 68.25 306.75 c 128,-1,70
 69.75 309 69.75 309 72.75 319.875 c 128,-1,71
 75.75 330.75 75.75 330.75 81 342.75 c 128,-1,72
 86.25 354.75 86.25 354.75 86.25 357.75 c 256,73,74
 86.25 360.75 86.25 360.75 93 375 c 128,-1,75
 99.75 389.25 99.75 389.25 105.75 399 c 0,76,77
 110.25 406.5 110.25 406.5 114.75 414 c 0,78,79
 123 432 123 432 145.125 456 c 128,-1,80
 167.25 480 167.25 480 189 495.75 c 0,81,82
 198.75 503.25 198.75 503.25 200.25 497.25 c 0,83,84
 201 494.25 201 494.25 206.25 498.75 c 2,85,-1
 210 502.5 l 2,86,87
 210 503.25 210 503.25 206.25 502.5 c 0,88,89
 203.25 503.25 203.25 503.25 204 504 c 0,90,91
 208.5 510 208.5 510 213.75 508.5 c 0,92,93
 214.5 507.75 214.5 507.75 214.5 506.25 c 0,94,95
 213 503.25 213 503.25 215.25 503.25 c 0,96,97
 216.75 503.25 216.75 503.25 224.25 505.5 c 128,-1,98
 231.75 507.75 231.75 507.75 239.25 510.75 c 128,-1,99
 246.75 513.75 246.75 513.75 248.25 515.25 c 0,100,101
 251.25 517.5 251.25 517.5 257.25 520.5 c 2,102,-1
 262.5 522.75 l 1,103,-1
 256.5 522 l 1,104,-1
 251.25 522 l 2,105,106
 252.75 524.25 252.75 524.25 264 528 c 0,107,108
 273 531 273 531 283.875 532.5 c 128,-1,109
 294.75 534 294.75 534 295.5 532.5 c 0,110,111
 296.25 531.75 296.25 531.75 294.75 531 c 2,112,-1
 291.75 530.25 l 1,113,114
 273 528.75 273 528.75 273 525 c 0,115,116
 273 522.75 273 522.75 277.875 524.25 c 128,-1,117
 282.75 525.75 282.75 525.75 302.25 526.875 c 128,-1,118
 321.75 528 321.75 528 335.25 522.75 c 0,119,120
 347.25 519 347.25 519 360.375 511.875 c 128,-1,121
 373.5 504.75 373.5 504.75 375.75 502.5 c 0,122,123
 377.25 499.5 377.25 499.5 379.5 502.5 c 0,124,125
 385.5 508.5 385.5 508.5 411.75 483 c 128,-1,126
 438 457.5 438 457.5 447.75 436.5 c 0,127,128
 458.25 412.5 458.25 412.5 465 392.25 c 0,129,130
 471 373.5 471 373.5 472.5 371.25 c 0,131,132
 479.25 360.75 479.25 360.75 483.75 333 c 0,133,134
 489.75 299.25 489.75 299.25 483.75 234.75 c 0,135,136
 481.5 207 481.5 207 481.5 196.5 c 0,137,138
 481.5 184.5 481.5 184.5 477.75 162 c 128,-1,139
 474 139.5 474 139.5 469.5 126.75 c 0,140,141
 463.5 111.75 463.5 111.75 460.5 106.5 c 128,-1,142
 457.5 101.25 457.5 101.25 445.5 85.5 c 0,143,144
 431.25 67.5 431.25 67.5 426.375 60.375 c 128,-1,145
 421.5 53.25 421.5 53.25 415.875 50.625 c 128,-1,146
 410.25 48 410.25 48 410.25 45.75 c 0,147,148
 410.25 45 410.25 45 406.875 42 c 128,-1,149
 403.5 39 403.5 39 399 36.375 c 128,-1,150
 394.5 33.75 394.5 33.75 391.5 33 c 0,151,152
 389.25 31.5 389.25 31.5 372.75 24 c 0,153,154
 348 12.75 348 12.75 322.5 8.25 c 0,155,156
 308.25 5.25 308.25 5.25 302.25 4.125 c 128,-1,157
 296.25 3 296.25 3 280.125 1.875 c 128,-1,158
 264 0.75 264 0.75 254.625 5.25 c 128,-1,159
 245.25 9.75 245.25 9.75 228 13.5 c 0,160,161
 191.25 20.25 191.25 20.25 149.25 45.75 c 0,162,163
 136.5 53.25 136.5 53.25 130.125 56.625 c 128,-1,164
 123.75 60 123.75 60 122.625 63.75 c 128,-1,165
 121.5 67.5 121.5 67.5 118.875 67.875 c 128,-1,166
 116.25 68.25 116.25 68.25 112.5 71.25 c 128,-1,167
 108.75 74.25 108.75 74.25 105 79.125 c 128,-1,168
 101.25 84 101.25 84 99 90 c 0,169,170
 92.25 105.75 92.25 105.75 84.75 127.125 c 128,-1,171
 77.25 148.5 77.25 148.5 78 151.5 c 0,172,173
 78 153 78 153 75.375 159.375 c 128,-1,174
 72.75 165.75 72.75 165.75 72.75 167.625 c 128,-1,175
 72.75 169.5 72.75 169.5 69.75 171.75 c 0,176,177
 66.75 174.75 66.75 174.75 63 210.75 c 0,178,179
 61.5 225 61.5 225 60.375 247.125 c 128,-1,180
 59.25 269.25 59.25 269.25 60 270 c 2,181,-1
 60.75 270 l 2,67,68
EndSplineSet
Validated: 33
EndChar

StartChar: p
Encoding: 112 112 44
Width: 436
Flags: W
LayerCount: 2
Fore
SplineSet
102.75 430.5 m 0,0,1
 103.5 365.25 103.5 365.25 108 318 c 0,2,3
 114 254.25 114 254.25 107.25 243.75 c 0,4,5
 105.75 240 105.75 240 108 235.5 c 128,-1,6
 110.25 231 110.25 231 109.5 207 c 0,7,8
 109.5 203.25 109.5 203.25 109.5 199.5 c 128,-1,9
 109.5 195.75 109.5 195.75 109.5 192.75 c 128,-1,10
 109.5 189.75 109.5 189.75 109.5 187.5 c 128,-1,11
 109.5 185.25 109.5 185.25 109.875 184.125 c 128,-1,12
 110.25 183 110.25 183 111 183 c 0,13,14
 112.5 183.75 112.5 183.75 117 195 c 128,-1,15
 121.5 206.25 121.5 206.25 121.5 210 c 0,16,17
 121.5 213 121.5 213 124.5 216 c 128,-1,18
 127.5 219 127.5 219 132.375 221.25 c 128,-1,19
 137.25 223.5 137.25 223.5 142.5 223.5 c 0,20,21
 177 225.75 177 225.75 198.75 231.75 c 0,22,23
 216 236.25 216 236.25 222 236.25 c 128,-1,24
 228 236.25 228 236.25 250.5 243.75 c 128,-1,25
 273 251.25 273 251.25 284.25 256.5 c 0,26,27
 296.25 263.25 296.25 263.25 312.375 276 c 128,-1,28
 328.5 288.75 328.5 288.75 332.25 295.5 c 0,29,30
 336.75 303 336.75 303 336.75 309 c 128,-1,31
 336.75 315 336.75 315 342.75 330.75 c 0,32,33
 344.25 334.5 344.25 334.5 345.375 338.25 c 128,-1,34
 346.5 342 346.5 342 346.5 344.25 c 128,-1,35
 346.5 346.5 346.5 346.5 346.5 346.5 c 2,36,37
 344.25 346.5 344.25 346.5 344.25 357.75 c 0,38,39
 343.5 386.25 343.5 386.25 327.75 413.25 c 0,40,41
 301.5 455.25 301.5 455.25 252.75 469.5 c 0,42,43
 231 476.25 231 476.25 202.125 480.375 c 128,-1,44
 173.25 484.5 173.25 484.5 169.5 481.5 c 0,45,46
 167.25 480.75 167.25 480.75 156.75 478.875 c 128,-1,47
 146.25 477 146.25 477 134.625 475.125 c 128,-1,48
 123 473.25 123 473.25 114 471.75 c 0,49,50
 105.75 470.25 105.75 470.25 102 466.875 c 128,-1,51
 98.25 463.5 98.25 463.5 100.5 459 c 0,52,53
 102 455.25 102 455.25 102.75 430.5 c 0,0,1
56.625 491.625 m 128,-1,55
 61.5 507 61.5 507 64.5 508.875 c 128,-1,56
 67.5 510.75 67.5 510.75 67.5 514.5 c 0,57,58
 67.5 519 67.5 519 71.625 524.25 c 128,-1,59
 75.75 529.5 75.75 529.5 78 528 c 0,60,61
 82.5 526.5 82.5 526.5 141.75 537 c 0,62,63
 172.5 543 172.5 543 187.5 543.75 c 128,-1,64
 202.5 544.5 202.5 544.5 223.5 540.75 c 0,65,66
 297.75 528 297.75 528 322.5 504.75 c 0,67,68
 331.5 496.5 331.5 496.5 334.125 496.5 c 128,-1,69
 336.75 496.5 336.75 496.5 342 489.375 c 128,-1,70
 347.25 482.25 347.25 482.25 360.75 467.25 c 0,71,72
 373.5 453 373.5 453 378 436.875 c 128,-1,73
 382.5 420.75 382.5 420.75 384.75 384.75 c 0,74,75
 387 345.75 387 345.75 375 304.5 c 0,76,77
 372 293.25 372 293.25 363.75 276.375 c 128,-1,78
 355.5 259.5 355.5 259.5 349.5 251.25 c 0,79,80
 344.25 243.75 344.25 243.75 344.25 241.5 c 128,-1,81
 344.25 239.25 344.25 239.25 337.5 233.25 c 128,-1,82
 330.75 227.25 330.75 227.25 328.5 227.25 c 128,-1,83
 326.25 227.25 326.25 227.25 323.625 222.75 c 128,-1,84
 321 218.25 321 218.25 307.125 209.25 c 128,-1,85
 293.25 200.25 293.25 200.25 287.625 196.5 c 128,-1,86
 282 192.75 282 192.75 267.75 188.625 c 128,-1,87
 253.5 184.5 253.5 184.5 244.875 181.125 c 128,-1,88
 236.25 177.75 236.25 177.75 223.875 177 c 128,-1,89
 211.5 176.25 211.5 176.25 202.5 172.125 c 128,-1,90
 193.5 168 193.5 168 184.875 167.25 c 128,-1,91
 176.25 166.5 176.25 166.5 169.5 163.5 c 128,-1,92
 162.75 160.5 162.75 160.5 145.125 159.75 c 128,-1,93
 127.5 159 127.5 159 117.75 158.25 c 2,94,-1
 108.75 157.5 l 1,95,-1
 108.75 147 l 1,96,97
 114 47.25 114 47.25 108.75 29.25 c 0,98,99
 105 15.75 105 15.75 101.25 12.75 c 0,100,101
 99 10.5 99 10.5 89.25 7.125 c 128,-1,102
 79.5 3.75 79.5 3.75 78 4.5 c 0,103,104
 76.5 6 76.5 6 76.125 22.875 c 128,-1,105
 75.75 39.75 75.75 39.75 76.5 40.5 c 0,106,107
 78.75 42 78.75 42 76.5 51.375 c 128,-1,108
 74.25 60.75 74.25 60.75 74.625 68.25 c 128,-1,109
 75 75.75 75 75.75 73.5 83.25 c 128,-1,110
 72 90.75 72 90.75 74.625 94.5 c 128,-1,111
 77.25 98.25 77.25 98.25 75.375 98.25 c 128,-1,112
 73.5 98.25 73.5 98.25 74.25 126.375 c 128,-1,113
 75 154.5 75 154.5 71.25 162.75 c 0,114,115
 69.75 166.5 69.75 166.5 69 172.125 c 128,-1,116
 68.25 177.75 68.25 177.75 69 181.875 c 128,-1,117
 69.75 186 69.75 186 71.25 186.75 c 0,118,119
 73.5 186.75 73.5 186.75 73.125 220.875 c 128,-1,120
 72.75 255 72.75 255 69.75 258.75 c 128,-1,121
 66.75 262.5 66.75 262.5 69.375 267 c 128,-1,122
 72 271.5 72 271.5 69.75 272.25 c 0,123,124
 68.25 273.75 68.25 273.75 69.375 282 c 128,-1,125
 70.5 290.25 70.5 290.25 72.75 295.5 c 0,126,127
 75 299.25 75 299.25 72.75 299.25 c 0,128,129
 64.5 299.25 64.5 299.25 59.25 408.75 c 0,130,131
 57.75 441 57.75 441 56.25 443.25 c 128,-1,132
 54.75 445.5 54.75 445.5 54.75 451.5 c 0,133,134
 54 458.25 54 458.25 52.5 467.25 c 0,135,54
 51.75 476.25 51.75 476.25 56.625 491.625 c 128,-1,55
EndSplineSet
Validated: 33
EndChar

StartChar: q
Encoding: 113 113 45
Width: 563
Flags: W
LayerCount: 2
Fore
SplineSet
94.5 231.75 m 0,0,1
 120.75 135 120.75 135 172.5 96 c 0,2,3
 192 81 192 81 219 75 c 0,4,5
 228.75 73.5 228.75 73.5 239.25 70.5 c 0,6,7
 248.25 68.25 248.25 68.25 272.25 69 c 128,-1,8
 296.25 69.75 296.25 69.75 309 72.75 c 0,9,10
 322.5 76.5 322.5 76.5 359.25 88.5 c 1,11,12
 359.25 88.5 359.25 88.5 358.5 90 c 128,-1,13
 357.75 91.5 357.75 91.5 356.625 93.75 c 128,-1,14
 355.5 96 355.5 96 354 99 c 0,15,16
 351 105 351 105 350.625 108 c 128,-1,17
 350.25 111 350.25 111 352.5 117.75 c 0,18,19
 355.5 127.5 355.5 127.5 355.5 132 c 0,20,21
 357.75 150 357.75 150 365.25 160.5 c 0,22,23
 368.25 163.5 368.25 163.5 369.75 163.5 c 128,-1,24
 371.25 163.5 371.25 163.5 378 159 c 0,25,26
 387 153 387 153 402 138 c 2,27,-1
 416.25 123 l 1,28,-1
 427.5 135 l 2,29,30
 437.25 144 437.25 144 445.5 158.625 c 128,-1,31
 453.75 173.25 453.75 173.25 456 184.5 c 0,32,33
 464.25 228 464.25 228 468.75 233.25 c 0,34,35
 471.75 237.75 471.75 237.75 471.75 268.875 c 128,-1,36
 471.75 300 471.75 300 468.75 309.75 c 0,37,38
 465 321 465 321 465 330 c 0,39,40
 465 335.25 465 335.25 460.875 349.875 c 128,-1,41
 456.75 364.5 456.75 364.5 451.875 378.75 c 128,-1,42
 447 393 447 393 444 396.75 c 0,43,44
 438.75 402.75 438.75 402.75 412.125 423.75 c 128,-1,45
 385.5 444.75 385.5 444.75 381 446.25 c 0,46,47
 375 448.5 375 448.5 360 455.25 c 0,48,49
 354 458.25 354 458.25 344.25 461.625 c 128,-1,50
 334.5 465 334.5 465 326.25 467.25 c 128,-1,51
 318 469.5 318 469.5 315 469.5 c 0,52,53
 294.75 469.5 294.75 469.5 266.625 465.75 c 128,-1,54
 238.5 462 238.5 462 231.75 458.25 c 0,55,56
 223.5 454.5 223.5 454.5 211.5 450 c 0,57,58
 189.75 441 189.75 441 168 417.75 c 0,59,60
 156.75 406.5 156.75 406.5 144 394.125 c 128,-1,61
 131.25 381.75 131.25 381.75 131.25 378.75 c 128,-1,62
 131.25 375.75 131.25 375.75 129 375.75 c 256,63,64
 126.75 375.75 126.75 375.75 117.75 360.375 c 128,-1,65
 108.75 345 108.75 345 102 330 c 0,66,67
 81.75 279.75 81.75 279.75 94.5 231.75 c 0,0,1
54 232.5 m 0,68,69
 54 241.5 54 241.5 55.125 252 c 128,-1,70
 56.25 262.5 56.25 262.5 57.375 271.125 c 128,-1,71
 58.5 279.75 58.5 279.75 60 286.125 c 128,-1,72
 61.5 292.5 61.5 292.5 62.25 293.25 c 0,73,74
 63.75 294 63.75 294 63.75 301.5 c 0,75,76
 63.75 323.25 63.75 323.25 79.5 354 c 0,77,78
 87 369 87 369 95.25 386.25 c 0,79,80
 103.5 402 103.5 402 112.5 417 c 0,81,82
 117 423 117 423 127.5 435 c 128,-1,83
 138 447 138 447 148.875 458.25 c 128,-1,84
 159.75 469.5 159.75 469.5 169.125 477.75 c 128,-1,85
 178.5 486 178.5 486 180.75 486 c 0,86,87
 184.5 486 184.5 486 203.25 495.75 c 0,88,89
 228.75 508.5 228.75 508.5 255 513.375 c 128,-1,90
 281.25 518.25 281.25 518.25 324.75 518.25 c 0,91,92
 346.5 518.25 346.5 518.25 357 513 c 0,93,94
 374.25 504 374.25 504 374.25 510.75 c 0,95,96
 374.25 513.75 374.25 513.75 377.25 509.25 c 0,97,98
 381 505.5 381 505.5 383.625 506.625 c 128,-1,99
 386.25 507.75 386.25 507.75 386.25 513.75 c 128,-1,100
 386.25 519.75 386.25 519.75 388.5 519.75 c 0,101,102
 393 519.75 393 519.75 403.875 513.375 c 128,-1,103
 414.75 507 414.75 507 417.75 502.5 c 0,104,105
 423 495.75 423 495.75 425.625 495.75 c 128,-1,106
 428.25 495.75 428.25 495.75 445.125 481.875 c 128,-1,107
 462 468 462 468 470.25 464.25 c 128,-1,108
 478.5 460.5 478.5 460.5 487.875 442.125 c 128,-1,109
 497.25 423.75 497.25 423.75 495.75 422.25 c 128,-1,110
 494.25 420.75 494.25 420.75 496.5 417.75 c 128,-1,111
 498.75 414.75 498.75 414.75 503.625 396.375 c 128,-1,112
 508.5 378 508.5 378 508.5 372.75 c 128,-1,113
 508.5 367.5 508.5 367.5 510 360.75 c 128,-1,114
 511.5 354 511.5 354 508.875 354 c 128,-1,115
 506.25 354 506.25 354 510 346.5 c 128,-1,116
 513.75 339 513.75 339 512.625 330 c 128,-1,117
 511.5 321 511.5 321 513.75 318.375 c 128,-1,118
 516 315.75 516 315.75 514.5 305.625 c 128,-1,119
 513 295.5 513 295.5 512.25 280.875 c 128,-1,120
 511.5 266.25 511.5 266.25 508.875 254.25 c 128,-1,121
 506.25 242.25 506.25 242.25 504 228.75 c 128,-1,122
 501.75 215.25 501.75 215.25 499.125 210.375 c 128,-1,123
 496.5 205.5 496.5 205.5 497.25 203.625 c 128,-1,124
 498 201.75 498 201.75 494.25 187.125 c 128,-1,125
 490.5 172.5 490.5 172.5 489.375 171.375 c 128,-1,126
 488.25 170.25 488.25 170.25 480.75 148.5 c 0,127,128
 471 117.75 471 117.75 457.5 99 c 2,129,-1
 453 92.25 l 1,130,-1
 463.5 82.5 l 2,131,132
 474 72.75 474 72.75 485.25 63 c 0,133,134
 497.25 52.5 497.25 52.5 499.125 46.125 c 128,-1,135
 501 39.75 501 39.75 496.5 26.25 c 0,136,137
 491.25 10.5 491.25 10.5 487.5 5.25 c 128,-1,138
 483.75 0 483.75 0 476.25 -3 c 0,139,140
 468 -6 468 -6 459.75 -0.75 c 0,141,142
 455.25 2.25 455.25 2.25 447 9.375 c 128,-1,143
 438.75 16.5 438.75 16.5 432.75 22.875 c 128,-1,144
 426.75 29.25 426.75 29.25 426.75 31.5 c 0,145,146
 426.75 34.5 426.75 34.5 424.5 33.75 c 0,147,148
 422.25 31.5 422.25 31.5 412.5 42.75 c 0,149,150
 411.75 44.25 411.75 44.25 409.875 45 c 128,-1,151
 408 45.75 408 45.75 405.375 45.75 c 128,-1,152
 402.75 45.75 402.75 45.75 400.5 45.375 c 128,-1,153
 398.25 45 398.25 45 396.375 44.25 c 128,-1,154
 394.5 43.5 394.5 43.5 393 42 c 0,155,156
 391.5 39 391.5 39 378.75 31.875 c 128,-1,157
 366 24.75 366 24.75 363.75 25.5 c 0,158,159
 360.75 25.5 360.75 25.5 352.5 21.75 c 0,160,161
 317.25 3 317.25 3 249 2.25 c 0,162,163
 218.25 2.25 218.25 2.25 210.375 6.375 c 128,-1,164
 202.5 10.5 202.5 10.5 197.25 10.5 c 0,165,166
 185.25 10.5 185.25 10.5 138.75 43.5 c 0,167,168
 132.75 47.25 132.75 47.25 130.5 51 c 128,-1,169
 128.25 54.75 128.25 54.75 120 63 c 0,170,171
 114.75 69 114.75 69 108 78.375 c 128,-1,172
 101.25 87.75 101.25 87.75 96 96.75 c 128,-1,173
 90.75 105.75 90.75 105.75 87 113.25 c 128,-1,174
 83.25 120.75 83.25 120.75 84 122.25 c 0,175,176
 85.5 126 85.5 126 81 128.25 c 128,-1,177
 76.5 130.5 76.5 130.5 71.625 144 c 128,-1,178
 66.75 157.5 66.75 157.5 66.75 167.25 c 0,179,180
 66.75 178.5 66.75 178.5 59.25 193.5 c 128,-1,181
 51.75 208.5 51.75 208.5 52.5 214.5 c 128,-1,182
 53.25 220.5 53.25 220.5 54 232.5 c 0,68,69
EndSplineSet
Validated: 33
EndChar

StartChar: r
Encoding: 114 114 46
Width: 474
Flags: W
LayerCount: 2
Fore
SplineSet
92.25 446.25 m 0,0,1
 94.5 438 94.5 438 95.625 418.875 c 128,-1,2
 96.75 399.75 96.75 399.75 97.875 385.125 c 128,-1,3
 99 370.5 99 370.5 100.125 338.625 c 128,-1,4
 101.25 306.75 101.25 306.75 103.5 304.5 c 128,-1,5
 105.75 302.25 105.75 302.25 103.5 300 c 0,6,7
 102 297.75 102 297.75 104.25 266.625 c 128,-1,8
 106.5 235.5 106.5 235.5 108 235.5 c 256,9,10
 109.5 235.5 109.5 235.5 112.5 240.75 c 0,11,12
 114 243.75 114 243.75 117.375 244.5 c 128,-1,13
 120.75 245.25 120.75 245.25 133.5 244.5 c 0,14,15
 139.5 244.5 139.5 244.5 142.875 244.5 c 128,-1,16
 146.25 244.5 146.25 244.5 148.125 244.875 c 128,-1,17
 150 245.25 150 245.25 150.75 246 c 128,-1,18
 151.5 246.75 151.5 246.75 151.5 248.25 c 0,19,20
 151.5 252 151.5 252 156.75 250.5 c 0,21,22
 170.25 246 170.25 246 190.5 245.625 c 128,-1,23
 210.75 245.25 210.75 245.25 230.625 248.625 c 128,-1,24
 250.5 252 250.5 252 262.5 258 c 0,25,26
 271.5 262.5 271.5 262.5 275.25 262.5 c 0,27,28
 281.25 262.5 281.25 262.5 312.75 280.125 c 128,-1,29
 344.25 297.75 344.25 297.75 347.25 303 c 0,30,31
 349.5 306.75 349.5 306.75 355.5 312.75 c 0,32,33
 378.75 334.5 378.75 334.5 371.25 378.75 c 0,34,35
 369 392.25 369 392.25 364.125 401.25 c 128,-1,36
 359.25 410.25 359.25 410.25 348 423 c 0,37,38
 324 448.5 324 448.5 267.75 468.75 c 0,39,40
 251.25 474 251.25 474 244.125 475.125 c 128,-1,41
 237 476.25 237 476.25 212.25 476.25 c 0,42,43
 171 475.5 171 475.5 151.5 470.25 c 0,44,45
 136.5 467.25 136.5 467.25 114.75 462.75 c 0,46,47
 93.75 459 93.75 459 91.5 457.5 c 128,-1,48
 89.25 456 89.25 456 92.25 446.25 c 0,0,1
48 486.75 m 0,49,50
 62.25 528 62.25 528 66 530.25 c 0,51,52
 68.25 532.5 68.25 532.5 72 529.5 c 0,53,54
 78.75 524.25 78.75 524.25 90 520.5 c 0,55,56
 94.5 519 94.5 519 165.75 533.25 c 0,57,58
 191.25 537.75 191.25 537.75 222.75 538.5 c 128,-1,59
 254.25 539.25 254.25 539.25 273.75 534 c 0,60,61
 309.75 523.5 309.75 523.5 315.75 519 c 0,62,63
 318 517.5 318 517.5 325.5 514.5 c 0,64,65
 334.5 511.5 334.5 511.5 369 488.25 c 0,66,67
 384.75 478.5 384.75 478.5 399 453.375 c 128,-1,68
 413.25 428.25 413.25 428.25 416.25 407.25 c 0,69,70
 420 373.5 420 373.5 412.5 351.75 c 0,71,72
 394.5 301.5 394.5 301.5 371.25 268.5 c 0,73,74
 365.25 260.25 365.25 260.25 348.375 246 c 128,-1,75
 331.5 231.75 331.5 231.75 327 231 c 0,76,77
 323.25 231 323.25 231 322.875 229.875 c 128,-1,78
 322.5 228.75 322.5 228.75 325.5 224.25 c 0,79,80
 328.5 217.5 328.5 217.5 330.375 216.375 c 128,-1,81
 332.25 215.25 332.25 215.25 339.75 202.125 c 128,-1,82
 347.25 189 347.25 189 348.75 187.5 c 0,83,84
 351 186 351 186 364.5 160.5 c 128,-1,85
 378 135 378 135 378 132 c 0,86,87
 378 129.75 378 129.75 385.875 119.625 c 128,-1,88
 393.75 109.5 393.75 109.5 393.75 107.625 c 128,-1,89
 393.75 105.75 393.75 105.75 401.625 96.75 c 128,-1,90
 409.5 87.75 409.5 87.75 409.5 85.5 c 128,-1,91
 409.5 83.25 409.5 83.25 415.5 74.25 c 0,92,93
 419.25 69 419.25 69 420 64.125 c 128,-1,94
 420.75 59.25 420.75 59.25 419.625 53.25 c 128,-1,95
 418.5 47.25 418.5 47.25 414 37.5 c 0,96,97
 411 28.5 411 28.5 403.875 22.125 c 128,-1,98
 396.75 15.75 396.75 15.75 390.75 15.75 c 0,99,100
 388.5 15.75 388.5 15.75 373.125 37.5 c 128,-1,101
 357.75 59.25 357.75 59.25 357.75 62.25 c 0,102,103
 357.75 63.75 357.75 63.75 353.25 68.625 c 128,-1,104
 348.75 73.5 348.75 73.5 337.5 96 c 0,105,106
 312 144 312 144 290.25 174 c 0,107,108
 285 180 285 180 282.75 190.875 c 128,-1,109
 280.5 201.75 280.5 201.75 283.5 205.5 c 256,110,111
 286.5 209.25 286.5 209.25 283.5 210 c 2,112,-1
 277.5 208.5 l 2,113,114
 272.25 205.5 272.25 205.5 265.5 201.75 c 0,115,116
 247.5 192 247.5 192 221.25 186 c 128,-1,117
 195 180 195 180 186 183 c 0,118,119
 182.25 184.5 182.25 184.5 174 184.5 c 128,-1,120
 165.75 184.5 165.75 184.5 157.125 183.75 c 128,-1,121
 148.5 183 148.5 183 143.25 180.75 c 0,122,123
 137.25 178.5 137.25 178.5 123 178.5 c 2,124,-1
 108.75 178.5 l 1,125,-1
 109.5 151.5 l 2,126,127
 110.25 123.75 110.25 123.75 111.75 122.25 c 0,128,129
 112.5 119.25 112.5 119.25 112.125 109.5 c 128,-1,130
 111.75 99.75 111.75 99.75 111 88.875 c 128,-1,131
 110.25 78 110.25 78 109.5 77.25 c 0,132,133
 108 75.75 108 75.75 110.25 73.5 c 0,134,135
 111.75 70.5 111.75 70.5 110.625 61.875 c 128,-1,136
 109.5 53.25 109.5 53.25 106.5 40.875 c 128,-1,137
 103.5 28.5 103.5 28.5 99.75 19.5 c 0,138,139
 96 11.25 96 11.25 88.5 7.125 c 128,-1,140
 81 3 81 3 77.25 7.5 c 0,141,142
 74.25 11.25 74.25 11.25 74.25 24.75 c 128,-1,143
 74.25 38.25 74.25 38.25 73.125 40.125 c 128,-1,144
 72 42 72 42 75.375 54.375 c 128,-1,145
 78.75 66.75 78.75 66.75 77.25 78 c 0,146,147
 74.25 111 74.25 111 72.75 135.75 c 0,148,149
 69.75 185.25 69.75 185.25 72 186.75 c 0,150,151
 76.5 189.75 76.5 189.75 69 233.25 c 0,152,153
 66 251.25 66 251.25 63.75 306.75 c 0,154,155
 60.75 386.25 60.75 386.25 56.25 396 c 0,156,157
 55.5 399.75 55.5 399.75 54.75 408.75 c 0,158,159
 51 454.5 51 454.5 47.25 465 c 0,160,161
 45 471.75 45 471.75 45 474.75 c 128,-1,162
 45 477.75 45 477.75 48 486.75 c 0,49,50
EndSplineSet
Validated: 33
EndChar

StartChar: s
Encoding: 115 115 47
Width: 448
Flags: W
LayerCount: 2
Fore
SplineSet
53.25 360.75 m 128,-1,1
 54.75 363.75 54.75 363.75 54 367.875 c 128,-1,2
 53.25 372 53.25 372 56.25 376.875 c 128,-1,3
 59.25 381.75 59.25 381.75 57.75 387.75 c 128,-1,4
 56.25 393.75 56.25 393.75 57.375 394.875 c 128,-1,5
 58.5 396 58.5 396 59.25 402.75 c 0,6,7
 59.25 411 59.25 411 69.75 431.25 c 128,-1,8
 80.25 451.5 80.25 451.5 88.5 460.5 c 0,9,10
 95.25 467.25 95.25 467.25 95.25 469.125 c 128,-1,11
 95.25 471 95.25 471 103.875 480 c 128,-1,12
 112.5 489 112.5 489 117.375 493.875 c 128,-1,13
 122.25 498.75 122.25 498.75 129 497.25 c 2,14,-1
 132.75 497.25 l 1,15,16
 132.75 497.25 132.75 497.25 131.25 498 c 0,17,18
 126.75 500.25 126.75 500.25 130.5 501.75 c 2,19,-1
 133.5 503.25 l 2,20,21
 139.5 506.25 139.5 506.25 151.875 506.625 c 128,-1,22
 164.25 507 164.25 507 174.75 510 c 0,23,24
 187.5 514.5 187.5 514.5 210.375 515.625 c 128,-1,25
 233.25 516.75 233.25 516.75 239.25 513.75 c 0,26,27
 243 511.5 243 511.5 250.875 510.75 c 128,-1,28
 258.75 510 258.75 510 260.25 511.5 c 0,29,30
 261 513.75 261 513.75 266.625 513.75 c 128,-1,31
 272.25 513.75 272.25 513.75 272.25 511.5 c 256,32,33
 272.25 509.25 272.25 509.25 268.875 510.375 c 128,-1,34
 265.5 511.5 265.5 511.5 265.5 510 c 256,35,36
 265.5 508.5 265.5 508.5 279.375 504.75 c 128,-1,37
 293.25 501 293.25 501 297.75 501 c 0,38,39
 300.75 501 300.75 501 299.25 502.875 c 128,-1,40
 297.75 504.75 297.75 504.75 299.25 504.75 c 128,-1,41
 300.75 504.75 300.75 504.75 308.25 501.75 c 0,42,43
 313.5 498 313.5 498 313.5 496.5 c 0,44,45
 310.5 494.25 310.5 494.25 317.25 491.25 c 0,46,47
 330 484.5 330 484.5 323.25 470.25 c 0,48,49
 320.25 465 320.25 465 320.25 462.75 c 0,50,51
 320.25 459.75 320.25 459.75 311.25 450.75 c 128,-1,52
 302.25 441.75 302.25 441.75 298.5 441.75 c 256,53,54
 294.75 441.75 294.75 441.75 290.25 444.75 c 0,55,56
 286.5 447.75 286.5 447.75 276.375 451.5 c 128,-1,57
 266.25 455.25 266.25 455.25 264 454.5 c 256,58,59
 261.75 453.75 261.75 453.75 255.375 455.625 c 128,-1,60
 249 457.5 249 457.5 246.75 459 c 0,61,62
 243 462 243 462 223.125 465 c 128,-1,63
 203.25 468 203.25 468 195.75 466.5 c 0,64,65
 185.25 465 185.25 465 180 465 c 0,66,67
 173.25 463.5 173.25 463.5 152.25 457.5 c 128,-1,68
 131.25 451.5 131.25 451.5 125.25 447.75 c 0,69,70
 99 434.25 99 434.25 92.25 402.75 c 0,71,72
 88.5 386.25 88.5 386.25 88.875 378.375 c 128,-1,73
 89.25 370.5 89.25 370.5 88.5 368.25 c 128,-1,74
 87.75 366 87.75 366 89.25 363 c 0,75,76
 99 338.25 99 338.25 99 330 c 0,77,78
 99 325.5 99 325.5 107.625 316.875 c 128,-1,79
 116.25 308.25 116.25 308.25 126.75 303 c 0,80,81
 156.75 287.25 156.75 287.25 205.5 281.25 c 0,82,83
 235.5 277.5 235.5 277.5 261 280.5 c 0,84,85
 313.5 287.25 313.5 287.25 330 279.75 c 0,86,87
 348 271.5 348 271.5 365.625 251.625 c 128,-1,88
 383.25 231.75 383.25 231.75 391.5 210 c 0,89,90
 396 198 396 198 395.25 177 c 0,91,92
 394.5 147.75 394.5 147.75 389.625 130.125 c 128,-1,93
 384.75 112.5 384.75 112.5 369 79.5 c 0,94,95
 359.25 60 359.25 60 359.25 58.5 c 256,96,97
 359.25 57 359.25 57 352.125 48 c 128,-1,98
 345 39 345 39 343.5 37.5 c 0,99,100
 341.25 36 341.25 36 339 30.75 c 0,101,102
 337.5 27.75 337.5 27.75 330.75 22.875 c 128,-1,103
 324 18 324 18 315.75 13.875 c 128,-1,104
 307.5 9.75 307.5 9.75 301.5 8.25 c 0,105,106
 277.5 3 277.5 3 237 6.75 c 0,107,108
 218.25 9 218.25 9 199.125 6.75 c 128,-1,109
 180 4.5 180 4.5 177.375 6.375 c 128,-1,110
 174.75 8.25 174.75 8.25 159 9.75 c 0,111,112
 140.25 11.25 140.25 11.25 125.25 15.75 c 0,113,114
 117 18 117 18 106.125 23.25 c 128,-1,115
 95.25 28.5 95.25 28.5 95.25 30.375 c 128,-1,116
 95.25 32.25 95.25 32.25 84 38.25 c 128,-1,117
 72.75 44.25 72.75 44.25 70.875 49.125 c 128,-1,118
 69 54 69 54 66 57 c 0,119,120
 60 62.25 60 62.25 66 68.25 c 0,121,122
 69 72.75 69 72.75 69 81.75 c 128,-1,123
 69 90.75 69 90.75 70.875 93 c 128,-1,124
 72.75 95.25 72.75 95.25 74.25 102.375 c 128,-1,125
 75.75 109.5 75.75 109.5 81 113.25 c 0,126,127
 84.75 115.5 84.75 115.5 87.375 114 c 128,-1,128
 90 112.5 90 112.5 101.25 101.25 c 0,129,130
 115.5 86.25 115.5 86.25 126.75 80.25 c 0,131,132
 136.5 75 136.5 75 156 70.125 c 128,-1,133
 175.5 65.25 175.5 65.25 189.75 64.5 c 0,134,135
 225 63 225 63 227.25 64.5 c 0,136,137
 229.5 65.25 229.5 65.25 249 63 c 0,138,139
 275.25 60 275.25 60 297.375 64.5 c 128,-1,140
 319.5 69 319.5 69 330.75 80.25 c 0,141,142
 337.5 87 337.5 87 342 96.75 c 128,-1,143
 346.5 106.5 346.5 106.5 345.75 111.75 c 0,144,145
 345 114.75 345 114.75 346.5 114.75 c 2,146,-1
 348.75 119.25 l 2,147,148
 352.5 132 352.5 132 352.5 147 c 0,149,150
 352.5 157.5 352.5 157.5 354.75 157.5 c 0,151,152
 358.5 157.5 358.5 157.5 345.75 183 c 0,153,154
 335.25 204 335.25 204 318.75 213.75 c 0,155,156
 306.75 220.5 306.75 220.5 295.875 221.625 c 128,-1,157
 285 222.75 285 222.75 261.75 219.75 c 0,158,159
 210 213 210 213 159 224.25 c 0,160,161
 133.5 230.25 133.5 230.25 131.25 231.75 c 128,-1,162
 129 233.25 129 233.25 123 234.75 c 0,163,164
 116.25 236.25 116.25 236.25 99.375 248.25 c 128,-1,165
 82.5 260.25 82.5 260.25 76.5 267.75 c 0,166,167
 65.25 281.25 65.25 281.25 59.25 300.75 c 0,168,169
 55.5 312 55.5 312 53.625 329.25 c 128,-1,170
 51.75 346.5 51.75 346.5 53.625 350.25 c 128,-1,171
 55.5 354 55.5 354 53.625 355.875 c 128,-1,0
 51.75 357.75 51.75 357.75 53.25 360.75 c 128,-1,1
EndSplineSet
Validated: 33
EndChar

StartChar: t
Encoding: 116 116 48
Width: 554
Flags: W
LayerCount: 2
Fore
SplineSet
44.25 467.25 m 0,0,1
 50.25 477.75 50.25 477.75 51.75 486.75 c 128,-1,2
 53.25 495.75 53.25 495.75 60.75 503.25 c 0,3,4
 66.75 509.25 66.75 509.25 70.5 510.375 c 128,-1,5
 74.25 511.5 74.25 511.5 90 512.25 c 0,6,7
 131.25 512.25 131.25 512.25 171 515.25 c 0,8,9
 191.25 516.75 191.25 516.75 228.75 517.5 c 128,-1,10
 266.25 518.25 266.25 518.25 282.75 520.875 c 128,-1,11
 299.25 523.5 299.25 523.5 318 525 c 256,12,13
 336.75 526.5 336.75 526.5 357.75 528 c 0,14,15
 396.75 531.75 396.75 531.75 472.5 531.75 c 0,16,17
 481.5 531.75 481.5 531.75 484.875 531.375 c 128,-1,18
 488.25 531 488.25 531 490.5 529.5 c 128,-1,19
 492.75 528 492.75 528 495 525 c 0,20,21
 501 518.25 501 518.25 501 513.75 c 128,-1,22
 501 509.25 501 509.25 495.75 497.25 c 0,23,24
 484.5 470.25 484.5 470.25 477.75 468 c 0,25,26
 464.25 462.75 464.25 462.75 384.75 462 c 0,27,28
 346.5 462 346.5 462 319.5 459 c 2,29,-1
 292.5 456 l 1,30,-1
 293.25 438.75 l 2,31,32
 294 422.25 294 422.25 295.875 410.25 c 128,-1,33
 297.75 398.25 297.75 398.25 296.25 348 c 0,34,35
 293.25 210 293.25 210 299.25 200.25 c 0,36,37
 300.75 198 300.75 198 302.25 147 c 128,-1,38
 303.75 96 303.75 96 303.75 66 c 0,39,40
 303.75 43.5 303.75 43.5 300.375 40.875 c 128,-1,41
 297 38.25 297 38.25 296.625 33 c 128,-1,42
 296.25 27.75 296.25 27.75 292.125 18.375 c 128,-1,43
 288 9 288 9 279.75 6.375 c 128,-1,44
 271.5 3.75 271.5 3.75 268.5 1.5 c 0,45,46
 267 0.75 267 0.75 265.125 2.625 c 128,-1,47
 263.25 4.5 263.25 4.5 262.125 8.625 c 128,-1,48
 261 12.75 261 12.75 261 16.125 c 128,-1,49
 261 19.5 261 19.5 259.5 26.625 c 128,-1,50
 258 33.75 258 33.75 260.25 40.125 c 128,-1,51
 262.5 46.5 262.5 46.5 261.375 47.625 c 128,-1,52
 260.25 48.75 260.25 48.75 259.125 124.875 c 128,-1,53
 258 201 258 201 256.5 209.25 c 128,-1,54
 255 217.5 255 217.5 254.625 274.875 c 128,-1,55
 254.25 332.25 254.25 332.25 257.25 334.875 c 128,-1,56
 260.25 337.5 260.25 337.5 258 340.5 c 128,-1,57
 255.75 343.5 255.75 343.5 255.75 352.5 c 0,58,59
 254.25 382.5 254.25 382.5 249 411.75 c 0,60,61
 246.75 423 246.75 423 245.25 436.5 c 2,62,-1
 243.75 450 l 1,63,-1
 201.75 449.25 l 2,64,65
 160.5 449.25 160.5 449.25 157.5 447.375 c 128,-1,66
 154.5 445.5 154.5 445.5 112.5 445.5 c 128,-1,67
 70.5 445.5 70.5 445.5 60.375 443.625 c 128,-1,68
 50.25 441.75 50.25 441.75 46.5 444.75 c 0,69,70
 41.25 450.75 41.25 450.75 40.5 454.875 c 128,-1,71
 39.75 459 39.75 459 44.25 467.25 c 0,0,1
EndSplineSet
Validated: 33
EndChar

StartChar: u
Encoding: 117 117 49
Width: 599
Flags: W
LayerCount: 2
Fore
SplineSet
75.75 508.5 m 128,-1,1
 83.25 527.25 83.25 527.25 85.875 534 c 128,-1,2
 88.5 540.75 88.5 540.75 93 543 c 0,3,4
 96.75 544.5 96.75 544.5 101.625 538.875 c 128,-1,5
 106.5 533.25 106.5 533.25 106.5 527.25 c 256,6,7
 106.5 521.25 106.5 521.25 108.75 520.125 c 128,-1,8
 111 519 111 519 110.25 486 c 0,9,10
 108.75 453.75 108.75 453.75 109.125 409.125 c 128,-1,11
 109.5 364.5 109.5 364.5 110.25 358.5 c 0,12,13
 111.75 351.75 111.75 351.75 115.5 326.25 c 0,14,15
 119.25 300 119.25 300 121.875 295.125 c 128,-1,16
 124.5 290.25 124.5 290.25 124.5 282.75 c 128,-1,17
 124.5 275.25 124.5 275.25 128.625 264.375 c 128,-1,18
 132.75 253.5 132.75 253.5 131.25 250.125 c 128,-1,19
 129.75 246.75 129.75 246.75 133.875 239.25 c 128,-1,20
 138 231.75 138 231.75 138 225.75 c 128,-1,21
 138 219.75 138 219.75 141.75 214.875 c 128,-1,22
 145.5 210 145.5 210 145.5 205.125 c 128,-1,23
 145.5 200.25 145.5 200.25 152.25 189.75 c 128,-1,24
 159 179.25 159 179.25 157.5 177.75 c 256,25,26
 156 176.25 156 176.25 161.625 165.375 c 128,-1,27
 167.25 154.5 167.25 154.5 173.25 147 c 0,28,29
 180.75 137.25 180.75 137.25 193.875 124.5 c 128,-1,30
 207 111.75 207 111.75 219 101.625 c 128,-1,31
 231 91.5 231 91.5 236.25 90 c 0,32,33
 248.25 84.75 248.25 84.75 282.375 80.625 c 128,-1,34
 316.5 76.5 316.5 76.5 336.75 78 c 0,35,36
 377.25 80.25 377.25 80.25 390.75 89.25 c 0,37,38
 393 90.75 393 90.75 403.5 94.5 c 0,39,40
 430.5 103.5 430.5 103.5 447 128.25 c 0,41,42
 456 141.75 456 141.75 459 151.875 c 128,-1,43
 462 162 462 162 463.5 183.75 c 0,44,45
 465.75 204.75 465.75 204.75 468.75 217.5 c 0,46,47
 473.25 232.5 473.25 232.5 475.5 255.375 c 128,-1,48
 477.75 278.25 477.75 278.25 476.625 295.5 c 128,-1,49
 475.5 312.75 475.5 312.75 471.75 312.75 c 0,50,51
 468.75 313.5 468.75 313.5 473.25 316.5 c 128,-1,52
 477.75 319.5 477.75 319.5 480.75 357.375 c 128,-1,53
 483.75 395.25 483.75 395.25 486.375 396.375 c 128,-1,54
 489 397.5 489 397.5 486.375 400.125 c 128,-1,55
 483.75 402.75 483.75 402.75 483 433.5 c 0,56,57
 480.75 477.75 480.75 477.75 472.5 477.75 c 0,58,59
 471 477.75 471 477.75 478.5 485.625 c 128,-1,60
 486 493.5 486 493.5 487.5 501.75 c 0,61,62
 489.75 511.5 489.75 511.5 493.5 522.75 c 128,-1,63
 497.25 534 497.25 534 499.5 535.5 c 256,64,65
 501.75 537 501.75 537 510 527.25 c 0,66,67
 518.25 518.25 518.25 518.25 520.5 514.875 c 128,-1,68
 522.75 511.5 522.75 511.5 523.5 504.75 c 0,69,70
 525 497.25 525 497.25 528 496.125 c 128,-1,71
 531 495 531 495 528 491.625 c 128,-1,72
 525 488.25 525 488.25 526.5 475.875 c 128,-1,73
 528 463.5 528 463.5 525.375 461.625 c 128,-1,74
 522.75 459.75 522.75 459.75 524.25 457.5 c 0,75,76
 526.5 453 526.5 453 526.5 432.75 c 128,-1,77
 526.5 412.5 526.5 412.5 524.25 398.25 c 0,78,79
 520.5 378 520.5 378 519.75 345 c 0,80,81
 518.25 240.75 518.25 240.75 510.75 229.5 c 0,82,83
 509.25 227.25 509.25 227.25 508.5 216 c 0,84,85
 498 114.75 498 114.75 477 85.5 c 0,86,87
 470.25 75.75 470.25 75.75 470.25 71.25 c 256,88,89
 470.25 66.75 470.25 66.75 451.5 50.625 c 128,-1,90
 432.75 34.5 432.75 34.5 420 28.5 c 0,91,92
 390.75 14.25 390.75 14.25 352.125 7.5 c 128,-1,93
 313.5 0.75 313.5 0.75 291 6 c 0,94,95
 280.5 8.25 280.5 8.25 255.75 11.25 c 0,96,97
 229.5 14.25 229.5 14.25 213.75 22.125 c 128,-1,98
 198 30 198 30 174 52.5 c 0,99,100
 153.75 71.25 153.75 71.25 143.625 84.375 c 128,-1,101
 133.5 97.5 133.5 97.5 121.5 120.75 c 0,102,103
 110.25 141.75 110.25 141.75 107.25 141 c 256,104,105
 104.25 140.25 104.25 140.25 103.875 142.5 c 128,-1,106
 103.5 144.75 103.5 144.75 106.5 147.375 c 128,-1,107
 109.5 150 109.5 150 105 161.25 c 0,108,109
 83.25 217.5 83.25 217.5 68.25 336.75 c 0,110,111
 67.5 347.25 67.5 347.25 69.75 377.625 c 128,-1,112
 72 408 72 408 69.75 410.25 c 128,-1,113
 67.5 412.5 67.5 412.5 70.125 420.375 c 128,-1,114
 72.75 428.25 72.75 428.25 72.375 436.5 c 128,-1,115
 72 444.75 72 444.75 69.75 444.75 c 0,116,117
 66.75 444.75 66.75 444.75 67.5 467.25 c 128,-1,0
 68.25 489.75 68.25 489.75 75.75 508.5 c 128,-1,1
EndSplineSet
Validated: 33
EndChar

StartChar: v
Encoding: 118 118 50
Width: 555
Flags: W
LayerCount: 2
Fore
SplineSet
38.25 482.25 m 0,0,1
 40.5 489.75 40.5 489.75 57 525 c 0,2,3
 62.25 534.75 62.25 534.75 64.5 534 c 0,4,5
 66 531.75 66 531.75 73.125 526.875 c 128,-1,6
 80.25 522 80.25 522 82.875 515.625 c 128,-1,7
 85.5 509.25 85.5 509.25 87.75 509.25 c 256,8,9
 90 509.25 90 509.25 96 504 c 128,-1,10
 102 498.75 102 498.75 106.875 492.375 c 128,-1,11
 111.75 486 111.75 486 111.75 483.75 c 0,12,13
 111.75 479.25 111.75 479.25 119.625 471.75 c 128,-1,14
 127.5 464.25 127.5 464.25 127.5 462 c 128,-1,15
 127.5 459.75 127.5 459.75 135.375 448.125 c 128,-1,16
 143.25 436.5 143.25 436.5 143.25 433.5 c 128,-1,17
 143.25 430.5 143.25 430.5 151.875 417 c 128,-1,18
 160.5 403.5 160.5 403.5 174 377.25 c 0,19,20
 193.5 338.25 193.5 338.25 198 327 c 0,21,22
 201.75 318.75 201.75 318.75 203.625 318.75 c 128,-1,23
 205.5 318.75 205.5 318.75 205.5 316.125 c 128,-1,24
 205.5 313.5 205.5 313.5 218.25 294.375 c 128,-1,25
 231 275.25 231 275.25 244.5 249.75 c 0,26,27
 280.5 180.75 280.5 180.75 292.5 160.5 c 0,28,29
 300 147.75 300 147.75 303.75 139.5 c 128,-1,30
 307.5 131.25 307.5 131.25 311.625 127.875 c 128,-1,31
 315.75 124.5 315.75 124.5 315.75 122.25 c 0,32,33
 315.75 119.25 315.75 119.25 325.125 103.875 c 128,-1,34
 334.5 88.5 334.5 88.5 336.75 88.5 c 256,35,36
 339 88.5 339 88.5 339 93 c 128,-1,37
 339 97.5 339 97.5 344.25 111 c 0,38,39
 349.5 126 349.5 126 362.25 183 c 0,40,41
 368.25 207.75 368.25 207.75 372 219 c 0,42,43
 389.25 274.5 389.25 274.5 387.75 276.75 c 256,44,45
 386.25 279 386.25 279 393 298.5 c 0,46,47
 405 333.75 405 333.75 430.5 430.5 c 0,48,49
 432.75 438 432.75 438 436.875 446.625 c 128,-1,50
 441 455.25 441 455.25 441 461.25 c 0,51,52
 441 464.25 441 464.25 442.5 470.25 c 128,-1,53
 444 476.25 444 476.25 447 482.625 c 128,-1,54
 450 489 450 489 453.375 495.75 c 128,-1,55
 456.75 502.5 456.75 502.5 459.75 507 c 0,56,57
 464.25 514.5 464.25 514.5 464.25 518.25 c 128,-1,58
 464.25 522 464.25 522 468 525 c 128,-1,59
 471.75 528 471.75 528 473.25 535.5 c 0,60,61
 477.75 553.5 477.75 553.5 490.5 541.5 c 0,62,63
 504.75 528 504.75 528 498 511.5 c 0,64,65
 493.5 503.25 493.5 503.25 490.5 493.875 c 128,-1,66
 487.5 484.5 487.5 484.5 484.125 480.75 c 128,-1,67
 480.75 477 480.75 477 477.375 463.875 c 128,-1,68
 474 450.75 474 450.75 472.125 448.125 c 128,-1,69
 470.25 445.5 470.25 445.5 467.25 429.75 c 128,-1,70
 464.25 414 464.25 414 459.375 400.875 c 128,-1,71
 454.5 387.75 454.5 387.75 452.625 375 c 128,-1,72
 450.75 362.25 450.75 362.25 447.75 355.5 c 128,-1,73
 444.75 348.75 444.75 348.75 439.875 327.75 c 128,-1,74
 435 306.75 435 306.75 423.375 265.125 c 128,-1,75
 411.75 223.5 411.75 223.5 411 216.75 c 0,76,77
 408.75 205.5 408.75 205.5 393.75 146.25 c 0,78,79
 390.75 134.25 390.75 134.25 384 116.25 c 0,80,81
 362.25 53.25 362.25 53.25 364.5 51 c 0,82,83
 366 49.5 366 49.5 362.625 45.375 c 128,-1,84
 359.25 41.25 359.25 41.25 363.375 41.25 c 128,-1,85
 367.5 41.25 367.5 41.25 367.5 38.625 c 128,-1,86
 367.5 36 367.5 36 363.75 37.5 c 0,87,88
 360.75 38.25 360.75 38.25 351 27 c 128,-1,89
 341.25 15.75 341.25 15.75 341.25 11.25 c 0,90,91
 341.25 8.25 341.25 8.25 332.25 4.125 c 128,-1,92
 323.25 0 323.25 0 319.5 1.5 c 0,93,94
 308.25 6 308.25 6 281.25 54.75 c 0,95,96
 264.75 84.75 264.75 84.75 258 95.25 c 128,-1,97
 251.25 105.75 251.25 105.75 243.75 120 c 128,-1,98
 236.25 134.25 236.25 134.25 231.75 141 c 128,-1,99
 227.25 147.75 227.25 147.75 204.375 193.5 c 128,-1,100
 181.5 239.25 181.5 239.25 170.25 257.25 c 128,-1,101
 159 275.25 159 275.25 143.25 305.25 c 0,102,103
 105.75 378.75 105.75 378.75 90.375 404.625 c 128,-1,104
 75 430.5 75 430.5 63 443.25 c 0,105,106
 35.25 470.25 35.25 470.25 36 475.5 c 0,107,108
 36 477 36 477 38.25 482.25 c 0,0,1
EndSplineSet
Validated: 33
EndChar

StartChar: w
Encoding: 119 119 51
Width: 703
Flags: W
LayerCount: 2
Fore
SplineSet
42.375 452.25 m 128,-1,1
 47.25 462.75 47.25 462.75 47.25 466.5 c 128,-1,2
 47.25 470.25 47.25 470.25 50.625 471.375 c 128,-1,3
 54 472.5 54 472.5 57 481.5 c 128,-1,4
 60 490.5 60 490.5 60.75 492 c 0,5,6
 63 495.75 63 495.75 76.5 478.5 c 0,7,8
 81 473.25 81 473.25 82.5 470.25 c 0,9,10
 87 461.25 87 461.25 89.25 457.5 c 0,11,12
 98.25 441.75 98.25 441.75 131.25 369 c 0,13,14
 140.25 349.5 140.25 349.5 146.25 336 c 0,15,16
 155.25 315.75 155.25 315.75 162.75 303.375 c 128,-1,17
 170.25 291 170.25 291 175.5 280.5 c 0,18,19
 191.25 246.75 191.25 246.75 204.75 225 c 0,20,21
 214.5 208.5 214.5 208.5 237.75 163.5 c 0,22,23
 276 88.5 276 88.5 278.25 88.5 c 0,24,25
 279 88.5 279 88.5 282.375 96.375 c 128,-1,26
 285.75 104.25 285.75 104.25 290.25 115.875 c 128,-1,27
 294.75 127.5 294.75 127.5 297.75 137.25 c 0,28,29
 302.25 152.25 302.25 152.25 304.5 154.875 c 128,-1,30
 306.75 157.5 306.75 157.5 312.375 172.125 c 128,-1,31
 318 186.75 318 186.75 324.75 201.75 c 128,-1,32
 331.5 216.75 331.5 216.75 335.25 228 c 2,33,-1
 339 239.25 l 1,34,-1
 330.75 254.25 l 2,35,36
 320.25 272.25 320.25 272.25 302.25 301.5 c 0,37,38
 285 329.25 285 329.25 292.5 329.25 c 0,39,40
 295.5 329.25 295.5 329.25 300.375 340.125 c 128,-1,41
 305.25 351 305.25 351 307.5 351 c 128,-1,42
 309.75 351 309.75 351 308.625 356.25 c 128,-1,43
 307.5 361.5 307.5 361.5 312.75 369 c 2,44,-1
 318.75 375.75 l 1,45,-1
 326.25 368.25 l 2,46,47
 331.5 363 331.5 363 345 343.125 c 128,-1,48
 358.5 323.25 358.5 323.25 363 313.5 c 0,49,50
 363.75 312 363.75 312 364.875 310.5 c 128,-1,51
 366 309 366 309 366.75 308.25 c 128,-1,52
 367.5 307.5 367.5 307.5 368.25 307.5 c 0,53,54
 369.75 308.25 369.75 308.25 383.625 334.875 c 128,-1,55
 397.5 361.5 397.5 361.5 403.125 369 c 128,-1,56
 408.75 376.5 408.75 376.5 414 387 c 0,57,58
 421.5 399 421.5 399 423.75 393.75 c 0,59,60
 423.75 390.75 423.75 390.75 429.75 387.75 c 0,61,62
 436.5 384.75 436.5 384.75 436.125 373.875 c 128,-1,63
 435.75 363 435.75 363 428.625 350.625 c 128,-1,64
 421.5 338.25 421.5 338.25 421.5 334.875 c 128,-1,65
 421.5 331.5 421.5 331.5 418.875 330 c 128,-1,66
 416.25 328.5 416.25 328.5 413.25 321 c 0,67,68
 403.5 299.25 403.5 299.25 395.25 289.5 c 0,69,70
 386.25 278.25 386.25 278.25 399 258 c 0,71,72
 408 242.25 408 242.25 411.375 238.125 c 128,-1,73
 414.75 234 414.75 234 413.25 232.5 c 128,-1,74
 411.75 231 411.75 231 416.625 227.25 c 128,-1,75
 421.5 223.5 421.5 223.5 429 208.5 c 0,76,77
 444.75 178.5 444.75 178.5 462 153.75 c 0,78,79
 480 127.5 480 127.5 490.5 99 c 0,80,81
 492.75 94.5 492.75 94.5 497.25 105 c 2,82,-1
 498.75 108 l 2,83,84
 504.75 120.75 504.75 120.75 508.875 138 c 128,-1,85
 513 155.25 513 155.25 516.375 161.25 c 128,-1,86
 519.75 167.25 519.75 167.25 520.5 174.75 c 0,87,88
 521.25 187.5 521.25 187.5 533.25 223.5 c 0,89,90
 540 242.25 540 242.25 544.5 258.75 c 0,91,92
 552 285.75 552 285.75 558 300.75 c 0,93,94
 559.5 306 559.5 306 572.25 346.125 c 128,-1,95
 585 386.25 585 386.25 588.75 395.625 c 128,-1,96
 592.5 405 592.5 405 592.125 408 c 128,-1,97
 591.75 411 591.75 411 600.375 433.125 c 128,-1,98
 609 455.25 609 455.25 609 458.25 c 128,-1,99
 609 461.25 609 461.25 613.875 464.25 c 128,-1,100
 618.75 467.25 618.75 467.25 618.75 474.375 c 128,-1,101
 618.75 481.5 618.75 481.5 622.125 484.5 c 128,-1,102
 625.5 487.5 625.5 487.5 625.5 490.5 c 128,-1,103
 625.5 493.5 625.5 493.5 633 501.75 c 2,104,-1
 640.5 510 l 1,105,-1
 647.25 501.75 l 2,106,107
 660.75 488.25 660.75 488.25 650.25 466.5 c 0,108,109
 645.75 456.75 645.75 456.75 642.75 443.25 c 128,-1,110
 639.75 429.75 639.75 429.75 637.5 427.125 c 128,-1,111
 635.25 424.5 635.25 424.5 630.375 406.5 c 128,-1,112
 625.5 388.5 625.5 388.5 607.5 333.75 c 0,113,114
 566.25 209.25 566.25 209.25 563.25 192.75 c 0,115,116
 562.5 185.25 562.5 185.25 553.125 157.125 c 128,-1,117
 543.75 129 543.75 129 539.25 119.25 c 0,118,119
 535.5 110.25 535.5 110.25 532.875 97.5 c 128,-1,120
 530.25 84.75 530.25 84.75 528.375 82.125 c 128,-1,121
 526.5 79.5 526.5 79.5 522.375 64.875 c 128,-1,122
 518.25 50.25 518.25 50.25 507.75 28.5 c 0,123,124
 501 14.25 501 14.25 497.625 9.75 c 128,-1,125
 494.25 5.25 494.25 5.25 489 3.75 c 0,126,127
 474.75 -1.5 474.75 -1.5 468.75 10.5 c 0,128,129
 465.75 16.5 465.75 16.5 468.75 24 c 0,130,131
 471.75 30.75 471.75 30.75 470.625 32.625 c 128,-1,132
 469.5 34.5 469.5 34.5 463.5 34.5 c 0,133,134
 453.75 34.5 453.75 34.5 450 51.75 c 0,135,136
 446.25 66 446.25 66 429.75 95.25 c 0,137,138
 426.75 102 426.75 102 419.25 108.75 c 0,139,140
 407.25 122.25 407.25 122.25 407.25 131.25 c 0,141,142
 407.25 135.75 407.25 135.75 402.375 139.875 c 128,-1,143
 397.5 144 397.5 144 393.375 153.75 c 128,-1,144
 389.25 163.5 389.25 163.5 387.375 163.5 c 128,-1,145
 385.5 163.5 385.5 163.5 373.875 184.125 c 128,-1,146
 362.25 204.75 362.25 204.75 360 204 c 128,-1,147
 357.75 203.25 357.75 203.25 351 185.25 c 128,-1,148
 344.25 167.25 344.25 167.25 339 157.5 c 128,-1,149
 333.75 147.75 333.75 147.75 333.75 144.75 c 128,-1,150
 333.75 141.75 333.75 141.75 330 134.25 c 128,-1,151
 326.25 126.75 326.25 126.75 323.25 115.5 c 0,152,153
 315.75 90 315.75 90 300 56.25 c 0,154,155
 292.5 39.75 292.5 39.75 292.5 37.125 c 128,-1,156
 292.5 34.5 292.5 34.5 287.25 24.375 c 128,-1,157
 282 14.25 282 14.25 281.625 13.5 c 128,-1,158
 281.25 12.75 281.25 12.75 276.375 12 c 128,-1,159
 271.5 11.25 271.5 11.25 268.125 8.625 c 128,-1,160
 264.75 6 264.75 6 258.375 4.5 c 128,-1,161
 252 3 252 3 250.5 7.5 c 0,162,163
 246 22.5 246 22.5 233.25 50.25 c 0,164,165
 229.5 57.75 229.5 57.75 220.875 71.25 c 128,-1,166
 212.25 84.75 212.25 84.75 212.25 86.25 c 0,167,168
 212.25 89.25 212.25 89.25 202.125 112.875 c 128,-1,169
 192 136.5 192 136.5 189 139.5 c 0,170,171
 183.75 146.25 183.75 146.25 162 185.625 c 128,-1,172
 140.25 225 140.25 225 120.375 262.5 c 128,-1,173
 100.5 300 100.5 300 100.5 303 c 256,174,175
 100.5 306 100.5 306 94.5 317.25 c 128,-1,176
 88.5 328.5 88.5 328.5 88.5 331.5 c 128,-1,177
 88.5 334.5 88.5 334.5 79.875 347.625 c 128,-1,178
 71.25 360.75 71.25 360.75 66.375 373.5 c 128,-1,179
 61.5 386.25 61.5 386.25 49.5 409.5 c 128,-1,180
 37.5 432.75 37.5 432.75 37.5 437.25 c 128,-1,0
 37.5 441.75 37.5 441.75 42.375 452.25 c 128,-1,1
EndSplineSet
Validated: 33
EndChar

